# Blender 5.2.2 LTS
# www.blender.org
mtllib house_floors.mtl
o house_floors.obj
v -0.700000 -0.361813 0.493677
v -0.700000 0.358183 0.496317
v -0.700000 -0.360346 0.093679
v -0.700000 -0.361483 0.403677
v -0.700000 0.358513 0.406317
v -0.700000 0.359649 0.096319
v 0.700000 0.359649 0.096319
v 0.700000 -0.360346 0.093679
v -0.700000 -0.217813 0.494205
v -0.700000 -0.073814 0.494733
v -0.700000 0.070185 0.495261
v -0.700000 0.214184 0.495789
v 0.700000 0.215650 0.095791
v 0.700000 0.071651 0.095263
v 0.700000 -0.072348 0.094735
v 0.700000 -0.216347 0.094207
v -0.700000 -0.216347 0.094207
v -0.700000 -0.072348 0.094735
v -0.700000 0.071651 0.095263
v -0.700000 0.215650 0.095791
v -0.700000 -0.217483 0.404205
v -0.700000 -0.073484 0.404733
v -0.700000 0.070515 0.405261
v -0.700000 0.214514 0.405789
v -0.560000 0.358183 0.496317
v -0.420000 0.358183 0.496317
v -0.280000 0.358183 0.496317
v -0.140000 0.358183 0.496317
v 0.000000 0.358183 0.496317
v 0.140000 0.358183 0.496317
v 0.280000 0.358183 0.496317
v 0.280000 -0.361813 0.493677
v 0.140000 -0.361813 0.493677
v 0.000000 -0.361813 0.493677
v -0.140000 -0.361813 0.493677
v -0.280000 -0.361813 0.493677
v -0.420000 -0.361813 0.493677
v -0.560000 -0.361813 0.493677
v 0.560000 -0.360346 0.093679
v 0.420000 -0.360346 0.093679
v 0.280000 -0.360346 0.093679
v 0.140000 -0.360346 0.093679
v -0.000000 -0.360346 0.093679
v -0.140000 -0.360346 0.093679
v -0.280000 -0.360346 0.093679
v -0.420000 -0.360346 0.093679
v -0.560000 -0.360346 0.093679
v 0.280000 -0.361483 0.403677
v 0.140000 -0.361483 0.403677
v 0.000000 -0.361483 0.403677
v -0.140000 -0.361483 0.403677
v -0.280000 -0.361483 0.403677
v -0.420000 -0.361483 0.403677
v -0.560000 -0.361483 0.403677
v -0.560000 0.359649 0.096319
v -0.420000 0.359649 0.096319
v -0.280000 0.359649 0.096319
v -0.140000 0.359649 0.096319
v -0.000000 0.359649 0.096319
v 0.140000 0.359649 0.096319
v 0.280000 0.359649 0.096319
v 0.420000 0.359649 0.096319
v 0.560000 0.359649 0.096319
v -0.560000 0.358513 0.406317
v -0.420000 0.358513 0.406317
v -0.280000 0.358513 0.406317
v -0.140000 0.358513 0.406317
v 0.000000 0.358513 0.406317
v 0.140000 0.358513 0.406317
v 0.280000 0.358513 0.406317
v -0.560000 0.214184 0.495789
v -0.420000 0.214184 0.495789
v -0.280000 0.214184 0.495789
v -0.140000 0.214184 0.495789
v 0.000000 0.214184 0.495789
v 0.140000 0.214184 0.495789
v 0.280000 0.214184 0.495789
v -0.560000 0.070185 0.495261
v -0.420000 0.070185 0.495261
v -0.280000 0.070185 0.495261
v -0.140000 0.070185 0.495261
v 0.000000 0.070185 0.495261
v 0.140000 0.070185 0.495261
v 0.280000 0.070185 0.495261
v -0.560000 -0.073814 0.494733
v -0.420000 -0.073814 0.494733
v -0.280000 -0.073814 0.494733
v -0.140000 -0.073814 0.494733
v 0.000000 -0.073814 0.494733
v 0.140000 -0.073814 0.494733
v 0.280000 -0.073814 0.494733
v -0.560000 -0.217813 0.494205
v -0.420000 -0.217813 0.494205
v -0.280000 -0.217813 0.494205
v -0.140000 -0.217813 0.494205
v 0.000000 -0.217813 0.494205
v 0.140000 -0.217813 0.494205
v 0.280000 -0.217813 0.494205
v -0.700000 -0.360749 0.203679
v -0.700000 -0.361116 0.303678
v -0.700000 0.358879 0.306318
v -0.700000 0.359246 0.206319
v 0.700000 0.359246 0.206319
v -0.560000 -0.360749 0.203679
v -0.560000 -0.361116 0.303678
v 0.560000 0.359246 0.206319
v -0.700000 0.215247 0.205791
v -0.700000 0.214880 0.305790
v -0.700000 -0.216750 0.204207
v -0.700000 -0.072751 0.204735
v -0.700000 0.071248 0.205263
v -0.700000 -0.217117 0.304206
v -0.700000 -0.073118 0.304734
v -0.700000 0.070881 0.305262
v 0.420000 -0.361116 0.303678
v 0.420000 0.358879 0.306318
v 0.560000 -0.360749 0.203679
v 0.420000 -0.360749 0.203679
v 0.280000 -0.360749 0.203679
v 0.140000 -0.360749 0.203679
v -0.000000 -0.360749 0.203679
v -0.140000 -0.360749 0.203679
v -0.280000 -0.360749 0.203679
v -0.420000 -0.360749 0.203679
v 0.280000 -0.361116 0.303678
v 0.140000 -0.361116 0.303678
v -0.000000 -0.361116 0.303678
v -0.140000 -0.361116 0.303678
v -0.280000 -0.361116 0.303678
v -0.420000 -0.361116 0.303678
v -0.560000 0.359246 0.206319
v -0.420000 0.359246 0.206319
v -0.280000 0.359246 0.206319
v -0.140000 0.359246 0.206319
v -0.000000 0.359246 0.206319
v 0.140000 0.359246 0.206319
v 0.280000 0.359246 0.206319
v 0.420000 0.359246 0.206319
v -0.560000 0.358879 0.306318
v -0.420000 0.358879 0.306318
v -0.280000 0.358879 0.306318
v -0.140000 0.358879 0.306318
v -0.000000 0.358879 0.306318
v 0.140000 0.358879 0.306318
v 0.280000 0.358879 0.306318
v 0.280000 0.358236 0.481873
v 0.280000 0.214237 0.481345
v 0.280000 0.070238 0.480817
v 0.280000 -0.073761 0.480289
v 0.320174 0.214237 0.481345
v 0.376783 0.358236 0.481873
v 0.352890 0.070238 0.480817
v 0.349213 0.070238 0.480817
v 0.376783 0.275748 0.481570
v 0.349213 0.009700 0.480595
v 0.376783 0.108567 0.480957
v -0.700000 -0.361849 0.503677
v -0.700000 0.358146 0.506317
v -0.700000 -0.360383 0.103679
v -0.700000 -0.361446 0.393677
v -0.700000 0.358549 0.396317
v -0.700000 0.359613 0.106319
v 0.700000 0.359613 0.106319
v 0.700000 -0.360383 0.103679
v -0.700000 -0.217850 0.504205
v -0.700000 -0.073851 0.504733
v -0.700000 0.070148 0.505261
v -0.700000 0.214147 0.505789
v 0.700000 0.215614 0.105791
v 0.700000 0.071615 0.105263
v 0.700000 -0.072385 0.104735
v 0.700000 -0.216384 0.104207
v -0.700000 -0.216384 0.104207
v -0.700000 -0.072384 0.104735
v -0.700000 0.071615 0.105263
v -0.700000 0.215614 0.105791
v -0.700000 -0.217447 0.394205
v -0.700000 -0.073448 0.394733
v -0.700000 0.070551 0.395261
v -0.700000 0.214550 0.395789
v -0.560000 0.358146 0.506317
v -0.420000 0.358146 0.506317
v -0.280000 0.358146 0.506317
v -0.140000 0.358146 0.506317
v 0.000000 0.358146 0.506317
v 0.140000 0.358146 0.506317
v 0.280000 0.358146 0.506317
v 0.280000 -0.361849 0.503677
v 0.140000 -0.361849 0.503677
v 0.000000 -0.361849 0.503677
v -0.140000 -0.361849 0.503677
v -0.280000 -0.361849 0.503677
v -0.420000 -0.361849 0.503677
v -0.560000 -0.361849 0.503677
v 0.560000 -0.360383 0.103679
v 0.420000 -0.360383 0.103679
v 0.280000 -0.360383 0.103679
v 0.140000 -0.360383 0.103679
v 0.000000 -0.360383 0.103679
v -0.140000 -0.360383 0.103679
v -0.280000 -0.360383 0.103679
v -0.420000 -0.360383 0.103679
v -0.560000 -0.360383 0.103679
v 0.280000 -0.361446 0.393677
v 0.140000 -0.361446 0.393677
v -0.000000 -0.361446 0.393677
v -0.140000 -0.361446 0.393677
v -0.280000 -0.361446 0.393677
v -0.420000 -0.361446 0.393677
v -0.560000 -0.361446 0.393677
v -0.560000 0.359613 0.106319
v -0.420000 0.359613 0.106319
v -0.280000 0.359613 0.106319
v -0.140000 0.359613 0.106319
v 0.000000 0.359613 0.106319
v 0.140000 0.359613 0.106319
v 0.280000 0.359613 0.106319
v 0.420000 0.359613 0.106319
v 0.560000 0.359613 0.106319
v -0.560000 0.358549 0.396317
v -0.420000 0.358549 0.396317
v -0.280000 0.358549 0.396317
v -0.140000 0.358549 0.396317
v -0.000000 0.358549 0.396317
v 0.140000 0.358549 0.396317
v 0.280000 0.358549 0.396317
v -0.560000 0.214147 0.505789
v -0.420000 0.214147 0.505789
v -0.280000 0.214147 0.505789
v -0.140000 0.214147 0.505789
v 0.000000 0.214147 0.505789
v 0.140000 0.214147 0.505789
v 0.280000 0.214147 0.505789
v -0.560000 0.070148 0.505261
v -0.420000 0.070148 0.505261
v -0.280000 0.070148 0.505261
v -0.140000 0.070148 0.505261
v 0.000000 0.070148 0.505261
v 0.140000 0.070148 0.505261
v 0.280000 0.070148 0.505261
v -0.560000 -0.073851 0.504733
v -0.420000 -0.073851 0.504733
v -0.280000 -0.073851 0.504733
v -0.140000 -0.073851 0.504733
v 0.000000 -0.073851 0.504733
v 0.140000 -0.073851 0.504733
v 0.280000 -0.073851 0.504733
v -0.560000 -0.217850 0.504205
v -0.420000 -0.217850 0.504205
v -0.280000 -0.217850 0.504205
v -0.140000 -0.217850 0.504205
v 0.000000 -0.217850 0.504205
v 0.140000 -0.217850 0.504205
v 0.280000 -0.217850 0.504205
v -0.700000 -0.360713 0.193679
v -0.700000 -0.361079 0.293678
v -0.700000 0.358916 0.296318
v -0.700000 0.359283 0.196319
v 0.700000 0.359283 0.196319
v -0.560000 -0.360713 0.193679
v -0.560000 -0.361079 0.293678
v 0.560000 0.359283 0.196319
v -0.700000 0.215284 0.195791
v -0.700000 0.214917 0.295790
v -0.700000 -0.216714 0.194207
v -0.700000 -0.072714 0.194735
v -0.700000 0.071285 0.195263
v -0.700000 -0.217080 0.294206
v -0.700000 -0.073081 0.294734
v -0.700000 0.070918 0.295262
v 0.420000 -0.361079 0.293678
v 0.420000 0.358916 0.296318
v 0.560000 -0.360713 0.193679
v 0.420000 -0.360713 0.193679
v 0.280000 -0.360713 0.193679
v 0.140000 -0.360713 0.193679
v 0.000000 -0.360713 0.193679
v -0.140000 -0.360713 0.193679
v -0.280000 -0.360713 0.193679
v -0.420000 -0.360713 0.193679
v 0.280000 -0.361079 0.293678
v 0.140000 -0.361079 0.293678
v 0.000000 -0.361079 0.293678
v -0.140000 -0.361079 0.293678
v -0.280000 -0.361079 0.293678
v -0.420000 -0.361079 0.293678
v -0.560000 0.359283 0.196319
v -0.420000 0.359283 0.196319
v -0.280000 0.359283 0.196319
v -0.140000 0.359283 0.196319
v 0.000000 0.359283 0.196319
v 0.140000 0.359283 0.196319
v 0.280000 0.359283 0.196319
v 0.420000 0.359283 0.196319
v -0.560000 0.358916 0.296318
v -0.420000 0.358916 0.296318
v -0.280000 0.358916 0.296318
v -0.140000 0.358916 0.296318
v 0.000000 0.358916 0.296318
v 0.140000 0.358916 0.296318
v 0.280000 0.358916 0.296318
v 0.280000 0.358199 0.491873
v 0.280000 0.214200 0.491345
v 0.280000 0.070201 0.490817
v 0.280000 -0.073798 0.490289
v 0.320174 0.214200 0.491345
v 0.376783 0.358199 0.491873
v 0.352890 0.070201 0.490817
v 0.349213 0.070201 0.490817
v 0.376783 0.275712 0.491570
v 0.349213 0.009663 0.490595
v 0.376783 0.108530 0.490957
vn -0.0000 0.0037 -1.0000
vn -0.0000 -0.0037 1.0000
vn -1.0000 -0.0000 -0.0000
vn -0.0000 -1.0000 -0.0037
vn 1.0000 -0.0000 -0.0000
vn -0.0000 1.0000 0.0037
vn 0.9816 -0.1909 -0.0007
vn 0.7698 -0.6383 -0.0023
vn 0.7358 -0.6772 -0.0025
vn 0.8486 -0.5290 -0.0019
vn 0.8815 0.4722 0.0017
vt 0.850000 0.700000
vt 0.850000 0.750000
vt 0.875000 0.750000
vt 0.875000 0.700000
vt 0.850000 0.500000
vt 0.850000 0.550000
vt 0.875000 0.550000
vt 0.875000 0.500000
vt 0.850000 0.600000
vt 0.875000 0.600000
vt 0.850000 0.650000
vt 0.875000 0.650000
vt 0.700000 0.650000
vt 0.700000 0.700000
vt 0.725000 0.700000
vt 0.725000 0.650000
vt 0.750000 0.700000
vt 0.750000 0.650000
vt 0.775000 0.700000
vt 0.775000 0.650000
vt 0.800000 0.700000
vt 0.800000 0.650000
vt 0.825000 0.700000
vt 0.825000 0.650000
vt 0.700000 0.600000
vt 0.725000 0.600000
vt 0.750000 0.600000
vt 0.775000 0.600000
vt 0.800000 0.600000
vt 0.825000 0.600000
vt 0.700000 0.550000
vt 0.725000 0.550000
vt 0.750000 0.550000
vt 0.775000 0.550000
vt 0.800000 0.550000
vt 0.825000 0.550000
vt 0.700000 0.500000
vt 0.725000 0.500000
vt 0.750000 0.500000
vt 0.775000 0.500000
vt 0.800000 0.500000
vt 0.825000 0.500000
vt 0.700000 0.750000
vt 0.725000 0.750000
vt 0.750000 0.750000
vt 0.775000 0.750000
vt 0.800000 0.750000
vt 0.825000 0.750000
vt 0.000000 0.000000
vt 0.700000 0.528642
vt 0.700000 0.586691
vt 0.700000 0.621020
s 0
usemtl Material.002
f 92/1/1 38/2/1 1/3/1 9/4/1
f 25/5/1 71/6/1 12/7/1 2/8/1
f 71/6/1 78/9/1 11/10/1 12/7/1
f 78/9/1 85/11/1 10/12/1 11/10/1
f 85/11/1 92/1/1 9/4/1 10/12/1
f 91/13/1 98/14/1 97/15/1 90/16/1
f 90/16/1 97/15/1 96/17/1 89/18/1
f 89/18/1 96/17/1 95/19/1 88/20/1
f 88/20/1 95/19/1 94/21/1 87/22/1
f 87/22/1 94/21/1 93/23/1 86/24/1
f 86/24/1 93/23/1 92/1/1 85/11/1
f 84/25/1 91/13/1 90/16/1 83/26/1
f 83/26/1 90/16/1 89/18/1 82/27/1
f 82/27/1 89/18/1 88/20/1 81/28/1
f 81/28/1 88/20/1 87/22/1 80/29/1
f 80/29/1 87/22/1 86/24/1 79/30/1
f 79/30/1 86/24/1 85/11/1 78/9/1
f 77/31/1 84/25/1 83/26/1 76/32/1
f 76/32/1 83/26/1 82/27/1 75/33/1
f 75/33/1 82/27/1 81/28/1 74/34/1
f 74/34/1 81/28/1 80/29/1 73/35/1
f 73/35/1 80/29/1 79/30/1 72/36/1
f 72/36/1 79/30/1 78/9/1 71/6/1
f 31/37/1 77/31/1 76/32/1 30/38/1
f 30/38/1 76/32/1 75/33/1 29/39/1
f 29/39/1 75/33/1 74/34/1 28/40/1
f 28/40/1 74/34/1 73/35/1 27/41/1
f 27/41/1 73/35/1 72/36/1 26/42/1
f 26/42/1 72/36/1 71/6/1 25/5/1
f 98/14/1 32/43/1 33/44/1 97/15/1
f 97/15/1 33/44/1 34/45/1 96/17/1
f 96/17/1 34/45/1 35/46/1 95/19/1
f 95/19/1 35/46/1 36/47/1 94/21/1
f 94/21/1 36/47/1 37/48/1 93/23/1
f 93/23/1 37/48/1 38/2/1 92/1/1
f 47/49/1 3/49/1 17/49/1 18/49/1 19/49/1 20/49/1 6/49/1 55/49/1 56/49/1 57/49/1 58/49/1 59/49/1 60/49/1 61/49/1 62/49/1 63/49/1 7/49/1 13/49/1 14/49/1 15/49/1 16/49/1 8/49/1 39/49/1 40/49/1 41/49/1 42/49/1 43/49/1 44/49/1 45/49/1 46/49/1
f 53/49/2 52/49/2 51/49/2 50/49/2 49/49/2 48/49/2 70/49/2 69/49/2 68/49/2 67/49/2 66/49/2 65/49/2 64/49/2 5/49/2 24/49/2 23/49/2 22/49/2 21/49/2 4/49/2 54/49/2
f 105/49/2 130/49/2 129/49/2 128/49/2 127/49/2 126/49/2 125/49/2 115/49/2 116/49/2 145/49/2 144/49/2 143/49/2 142/49/2 141/49/2 140/49/2 139/49/2 101/49/2 108/49/2 114/49/2 113/49/2 112/49/2 100/49/2
f 104/49/2 124/49/2 123/49/2 122/49/2 121/49/2 120/49/2 119/49/2 118/49/2 117/49/2 103/49/2 106/49/2 138/49/2 137/49/2 136/49/2 135/49/2 134/49/2 133/49/2 132/49/2 131/49/2 102/49/2 107/49/2 111/49/2 110/49/2 109/49/2 99/49/2
f 147/31/1 146/37/1 151/37/1 154/50/1 150/31/1
f 148/25/1 147/31/1 150/31/1 156/51/1 152/25/1
f 155/52/1 149/13/1 148/25/1 153/25/1
f 248/1/2 165/4/2 157/3/2 194/2/2
f 181/5/2 158/8/2 168/7/2 227/6/2
f 227/6/2 168/7/2 167/10/2 234/9/2
f 234/9/2 167/10/2 166/12/2 241/11/2
f 241/11/2 166/12/2 165/4/2 248/1/2
f 247/13/2 246/16/2 253/15/2 254/14/2
f 246/16/2 245/18/2 252/17/2 253/15/2
f 245/18/2 244/20/2 251/19/2 252/17/2
f 244/20/2 243/22/2 250/21/2 251/19/2
f 243/22/2 242/24/2 249/23/2 250/21/2
f 242/24/2 241/11/2 248/1/2 249/23/2
f 240/25/2 239/26/2 246/16/2 247/13/2
f 239/26/2 238/27/2 245/18/2 246/16/2
f 238/27/2 237/28/2 244/20/2 245/18/2
f 237/28/2 236/29/2 243/22/2 244/20/2
f 236/29/2 235/30/2 242/24/2 243/22/2
f 235/30/2 234/9/2 241/11/2 242/24/2
f 233/31/2 232/32/2 239/26/2 240/25/2
f 232/32/2 231/33/2 238/27/2 239/26/2
f 231/33/2 230/34/2 237/28/2 238/27/2
f 230/34/2 229/35/2 236/29/2 237/28/2
f 229/35/2 228/36/2 235/30/2 236/29/2
f 228/36/2 227/6/2 234/9/2 235/30/2
f 187/37/2 186/38/2 232/32/2 233/31/2
f 186/38/2 185/39/2 231/33/2 232/32/2
f 185/39/2 184/40/2 230/34/2 231/33/2
f 184/40/2 183/41/2 229/35/2 230/34/2
f 183/41/2 182/42/2 228/36/2 229/35/2
f 182/42/2 181/5/2 227/6/2 228/36/2
f 254/14/2 253/15/2 189/44/2 188/43/2
f 253/15/2 252/17/2 190/45/2 189/44/2
f 252/17/2 251/19/2 191/46/2 190/45/2
f 251/19/2 250/21/2 192/47/2 191/46/2
f 250/21/2 249/23/2 193/48/2 192/47/2
f 249/23/2 248/1/2 194/2/2 193/48/2
f 203/49/2 202/49/2 201/49/2 200/49/2 199/49/2 198/49/2 197/49/2 196/49/2 195/49/2 164/49/2 172/49/2 171/49/2 170/49/2 169/49/2 163/49/2 219/49/2 218/49/2 217/49/2 216/49/2 215/49/2 214/49/2 213/49/2 212/49/2 211/49/2 162/49/2 176/49/2 175/49/2 174/49/2 173/49/2 159/49/2
f 209/49/1 210/49/1 160/49/1 177/49/1 178/49/1 179/49/1 180/49/1 161/49/1 220/49/1 221/49/1 222/49/1 223/49/1 224/49/1 225/49/1 226/49/1 204/49/1 205/49/1 206/49/1 207/49/1 208/49/1
f 261/49/1 256/49/1 268/49/1 269/49/1 270/49/1 264/49/1 257/49/1 295/49/1 296/49/1 297/49/1 298/49/1 299/49/1 300/49/1 301/49/1 272/49/1 271/49/1 281/49/1 282/49/1 283/49/1 284/49/1 285/49/1 286/49/1
f 260/49/1 255/49/1 265/49/1 266/49/1 267/49/1 263/49/1 258/49/1 287/49/1 288/49/1 289/49/1 290/49/1 291/49/1 292/49/1 293/49/1 294/49/1 262/49/1 259/49/1 273/49/1 274/49/1 275/49/1 276/49/1 277/49/1 278/49/1 279/49/1 280/49/1
f 303/31/2 306/31/2 310/50/2 307/37/2 302/37/2
f 304/25/2 308/25/2 312/51/2 306/31/2 303/31/2
f 311/52/2 309/25/2 304/25/2 305/13/2
f 2/8/3 12/7/3 168/7/3 158/8/3
f 1/3/4 38/2/4 194/2/4 157/3/4
f 3/49/4 47/49/4 203/49/4 159/49/4
f 54/49/4 4/49/4 160/49/4 210/49/4
f 8/49/5 16/49/5 172/49/5 164/49/5
f 7/49/6 63/49/6 219/49/6 163/49/6
f 6/49/3 20/49/3 176/49/3 162/49/3
f 24/49/3 5/49/3 161/49/3 180/49/3
f 9/4/3 1/3/3 157/3/3 165/4/3
f 10/12/3 9/4/3 165/4/3 166/12/3
f 11/10/3 10/12/3 166/12/3 167/10/3
f 12/7/3 11/10/3 167/10/3 168/7/3
f 13/49/5 7/49/5 163/49/5 169/49/5
f 14/49/5 13/49/5 169/49/5 170/49/5
f 15/49/5 14/49/5 170/49/5 171/49/5
f 16/49/5 15/49/5 171/49/5 172/49/5
f 31/37/6 30/38/6 186/38/6 187/37/6
f 30/38/6 29/39/6 185/39/6 186/38/6
f 29/39/6 28/40/6 184/40/6 185/39/6
f 28/40/6 27/41/6 183/41/6 184/40/6
f 17/49/3 3/49/3 159/49/3 173/49/3
f 18/49/3 17/49/3 173/49/3 174/49/3
f 19/49/3 18/49/3 174/49/3 175/49/3
f 20/49/3 19/49/3 175/49/3 176/49/3
f 4/49/3 21/49/3 177/49/3 160/49/3
f 21/49/3 22/49/3 178/49/3 177/49/3
f 22/49/3 23/49/3 179/49/3 178/49/3
f 23/49/3 24/49/3 180/49/3 179/49/3
f 27/41/6 26/42/6 182/42/6 183/41/6
f 26/42/6 25/5/6 181/5/6 182/42/6
f 25/5/6 2/8/6 158/8/6 181/5/6
f 33/44/4 32/43/4 188/43/4 189/44/4
f 34/45/4 33/44/4 189/44/4 190/45/4
f 35/46/4 34/45/4 190/45/4 191/46/4
f 36/47/4 35/46/4 191/46/4 192/47/4
f 37/48/4 36/47/4 192/47/4 193/48/4
f 38/2/4 37/48/4 193/48/4 194/2/4
f 39/49/4 8/49/4 164/49/4 195/49/4
f 40/49/4 39/49/4 195/49/4 196/49/4
f 41/49/4 40/49/4 196/49/4 197/49/4
f 42/49/4 41/49/4 197/49/4 198/49/4
f 43/49/4 42/49/4 198/49/4 199/49/4
f 44/49/4 43/49/4 199/49/4 200/49/4
f 45/49/4 44/49/4 200/49/4 201/49/4
f 46/49/4 45/49/4 201/49/4 202/49/4
f 47/49/4 46/49/4 202/49/4 203/49/4
f 48/49/4 49/49/4 205/49/4 204/49/4
f 49/49/4 50/49/4 206/49/4 205/49/4
f 50/49/4 51/49/4 207/49/4 206/49/4
f 51/49/4 52/49/4 208/49/4 207/49/4
f 52/49/4 53/49/4 209/49/4 208/49/4
f 53/49/4 54/49/4 210/49/4 209/49/4
f 55/49/6 6/49/6 162/49/6 211/49/6
f 56/49/6 55/49/6 211/49/6 212/49/6
f 57/49/6 56/49/6 212/49/6 213/49/6
f 58/49/6 57/49/6 213/49/6 214/49/6
f 59/49/6 58/49/6 214/49/6 215/49/6
f 60/49/6 59/49/6 215/49/6 216/49/6
f 61/49/6 60/49/6 216/49/6 217/49/6
f 62/49/6 61/49/6 217/49/6 218/49/6
f 63/49/6 62/49/6 218/49/6 219/49/6
f 5/49/6 64/49/6 220/49/6 161/49/6
f 64/49/6 65/49/6 221/49/6 220/49/6
f 65/49/6 66/49/6 222/49/6 221/49/6
f 66/49/6 67/49/6 223/49/6 222/49/6
f 67/49/6 68/49/6 224/49/6 223/49/6
f 68/49/6 69/49/6 225/49/6 224/49/6
f 69/49/6 70/49/6 226/49/6 225/49/6
f 98/14/5 91/13/5 247/13/5 254/14/5
f 91/13/5 84/25/5 240/25/5 247/13/5
f 84/25/5 77/31/5 233/31/5 240/25/5
f 77/31/5 31/37/5 187/37/5 233/31/5
f 32/43/5 98/14/5 254/14/5 188/43/5
f 70/49/5 48/49/5 204/49/5 226/49/5
f 104/49/4 99/49/4 255/49/4 260/49/4
f 105/49/4 100/49/4 256/49/4 261/49/4
f 106/49/6 103/49/6 259/49/6 262/49/6
f 107/49/3 102/49/3 258/49/3 263/49/3
f 108/49/3 101/49/3 257/49/3 264/49/3
f 99/49/3 109/49/3 265/49/3 255/49/3
f 109/49/3 110/49/3 266/49/3 265/49/3
f 110/49/3 111/49/3 267/49/3 266/49/3
f 111/49/3 107/49/3 263/49/3 267/49/3
f 100/49/3 112/49/3 268/49/3 256/49/3
f 112/49/3 113/49/3 269/49/3 268/49/3
f 113/49/3 114/49/3 270/49/3 269/49/3
f 114/49/3 108/49/3 264/49/3 270/49/3
f 116/49/5 115/49/5 271/49/5 272/49/5
f 117/49/4 118/49/4 274/49/4 273/49/4
f 118/49/4 119/49/4 275/49/4 274/49/4
f 119/49/4 120/49/4 276/49/4 275/49/4
f 120/49/4 121/49/4 277/49/4 276/49/4
f 121/49/4 122/49/4 278/49/4 277/49/4
f 122/49/4 123/49/4 279/49/4 278/49/4
f 123/49/4 124/49/4 280/49/4 279/49/4
f 124/49/4 104/49/4 260/49/4 280/49/4
f 115/49/4 125/49/4 281/49/4 271/49/4
f 125/49/4 126/49/4 282/49/4 281/49/4
f 126/49/4 127/49/4 283/49/4 282/49/4
f 127/49/4 128/49/4 284/49/4 283/49/4
f 128/49/4 129/49/4 285/49/4 284/49/4
f 129/49/4 130/49/4 286/49/4 285/49/4
f 130/49/4 105/49/4 261/49/4 286/49/4
f 102/49/6 131/49/6 287/49/6 258/49/6
f 131/49/6 132/49/6 288/49/6 287/49/6
f 132/49/6 133/49/6 289/49/6 288/49/6
f 133/49/6 134/49/6 290/49/6 289/49/6
f 134/49/6 135/49/6 291/49/6 290/49/6
f 135/49/6 136/49/6 292/49/6 291/49/6
f 136/49/6 137/49/6 293/49/6 292/49/6
f 137/49/6 138/49/6 294/49/6 293/49/6
f 138/49/6 106/49/6 262/49/6 294/49/6
f 101/49/6 139/49/6 295/49/6 257/49/6
f 139/49/6 140/49/6 296/49/6 295/49/6
f 140/49/6 141/49/6 297/49/6 296/49/6
f 141/49/6 142/49/6 298/49/6 297/49/6
f 142/49/6 143/49/6 299/49/6 298/49/6
f 143/49/6 144/49/6 300/49/6 299/49/6
f 144/49/6 145/49/6 301/49/6 300/49/6
f 145/49/6 116/49/6 272/49/6 301/49/6
f 103/49/7 117/49/7 273/49/7 259/49/7
f 148/25/3 149/13/3 305/13/3 304/25/3
f 147/31/3 148/25/3 304/25/3 303/31/3
f 146/37/3 147/31/3 303/31/3 302/37/3
f 151/37/6 146/37/6 302/37/6 307/37/6
f 148/25/4 152/25/4 308/25/4 304/25/4
f 153/25/6 148/25/6 304/25/6 309/25/6
f 154/50/5 151/37/5 307/37/5 310/50/5
f 155/52/5 153/25/5 309/25/5 311/52/5
f 149/13/8 155/52/8 311/52/8 305/13/8
f 150/31/9 154/50/9 310/50/9 306/31/9
f 152/25/10 156/51/10 312/51/10 308/25/10
f 156/51/11 150/31/11 306/31/11 312/51/11
