# Blender 5.2.2 LTS
# www.blender.org
mtllib tower_floors.mtl
o Cylinder_etazg
v 0.084188 -0.244263 0.683652
v 0.194120 -0.147823 0.662892
v 0.249181 -0.079270 0.683650
v 0.084273 -0.244166 0.569387
v 0.154440 -0.196544 0.539212
v 0.249142 -0.079316 0.569355
v 0.068198 -0.260249 0.455218
v 0.170723 -0.196352 0.435094
v -0.046385 0.312589 0.462179
v 0.000284 0.331920 0.462179
v -0.058050 0.307754 0.576464
v 0.000286 0.331918 0.576464
v -0.058036 0.307741 0.690750
v 0.000300 0.331905 0.690750
v -0.252392 0.188597 0.462179
v -0.233061 0.235266 0.462179
v -0.257223 0.176927 0.576464
v -0.233059 0.235263 0.576464
v -0.257209 0.176913 0.690750
v -0.233045 0.235250 0.690750
v -0.310385 -0.044749 0.462179
v -0.329716 0.001920 0.462179
v -0.305550 -0.056418 0.576464
v -0.329714 0.001918 0.576464
v -0.305537 -0.056432 0.690750
v -0.329700 0.001904 0.690750
v -0.186392 -0.250756 0.462179
v -0.233061 -0.231425 0.462179
v -0.174723 -0.255591 0.576464
v -0.233059 -0.231427 0.576464
v -0.174709 -0.255604 0.690750
v -0.233045 -0.231441 0.690750
v 0.310953 0.048589 0.462179
v 0.330284 0.001920 0.462179
v 0.306123 0.060254 0.576464
v 0.330286 0.001918 0.576464
v 0.306136 0.060241 0.690750
v 0.330300 0.001904 0.690750
v 0.186960 0.254597 0.462179
v 0.233629 0.235266 0.462179
v 0.175295 0.259427 0.576464
v 0.233632 0.235263 0.576464
v 0.175309 0.259413 0.690750
v 0.233645 0.235250 0.690750
v 0.264284 -0.064080 0.462179
v 0.246499 -0.079332 0.576821
v 0.246532 -0.079331 0.691098
v -0.174709 0.259413 0.690750
v -0.116373 0.283577 0.690750
v -0.305537 0.060241 0.690750
v -0.281373 0.118577 0.690750
v -0.257209 -0.173104 0.690750
v -0.281373 -0.114768 0.690750
v 0.000300 -0.328096 0.690750
v -0.058036 -0.303932 0.690750
v -0.116373 -0.279768 0.690750
v 0.257809 0.176913 0.690750
v 0.281972 0.118577 0.690750
v 0.058636 0.307741 0.690750
v 0.116972 0.283577 0.690750
v 0.081721 -0.244514 0.691002
v 0.190598 -0.147014 0.671041
v -0.174723 0.259427 0.576464
v -0.116386 0.283591 0.576464
v -0.305550 0.060254 0.576464
v -0.281386 0.118591 0.576464
v -0.257223 -0.173091 0.576464
v -0.281386 -0.114755 0.576464
v 0.000286 -0.328082 0.576464
v -0.058050 -0.303918 0.576464
v -0.116386 -0.279755 0.576464
v 0.257795 0.176927 0.576464
v 0.281959 0.118591 0.576464
v 0.058623 0.307754 0.576464
v 0.116959 0.283591 0.576464
v 0.081837 -0.244575 0.576677
v 0.150814 -0.195606 0.547493
v -0.186392 0.254597 0.462179
v -0.139723 0.273927 0.462179
v -0.093054 0.293258 0.462179
v -0.310385 0.048589 0.462179
v -0.291054 0.095258 0.462179
v -0.271723 0.141927 0.462179
v -0.252392 -0.184756 0.462179
v -0.271723 -0.138087 0.462179
v -0.291054 -0.091418 0.462179
v 0.000284 -0.328080 0.462179
v -0.046385 -0.308749 0.462179
v -0.093054 -0.289418 0.462179
v -0.139723 -0.270087 0.462179
v 0.252960 0.188597 0.462179
v 0.272291 0.141927 0.462179
v 0.291622 0.095258 0.462179
v 0.046953 0.312589 0.462179
v 0.093622 0.293258 0.462179
v 0.140291 0.273928 0.462179
v 0.065395 -0.260849 0.462435
v 0.167505 -0.196377 0.442609
v 0.234809 -0.132182 0.442054
v 0.090622 -0.250708 0.687781
v 0.200562 -0.154260 0.667023
v 0.255629 -0.085701 0.687783
v 0.090537 -0.250805 0.573474
v 0.160862 -0.203004 0.543338
v 0.255668 -0.085655 0.573506
v 0.073612 -0.267722 0.459072
v 0.176136 -0.203825 0.438948
v -0.046294 0.312498 0.472178
v 0.000375 0.331829 0.472178
v -0.057963 0.307668 0.586464
v 0.000373 0.331831 0.586464
v -0.057977 0.307681 0.700749
v 0.000360 0.331845 0.700749
v -0.252301 0.188505 0.472178
v -0.232970 0.235174 0.472178
v -0.257136 0.176840 0.586464
v -0.232972 0.235177 0.586464
v -0.257149 0.176854 0.700749
v -0.232986 0.235190 0.700749
v -0.310294 -0.044840 0.472178
v -0.329625 0.001829 0.472178
v -0.305463 -0.056505 0.586464
v -0.329627 0.001831 0.586464
v -0.305477 -0.056492 0.700749
v -0.329640 0.001845 0.700749
v -0.186301 -0.250847 0.472178
v -0.232970 -0.231516 0.472178
v -0.174636 -0.255678 0.586464
v -0.232972 -0.231514 0.586464
v -0.174649 -0.255664 0.700749
v -0.232986 -0.231501 0.700749
v 0.311044 0.048498 0.472178
v 0.330375 0.001829 0.472178
v 0.306209 0.060168 0.586464
v 0.330373 0.001831 0.586464
v 0.306196 0.060181 0.700749
v 0.330360 0.001845 0.700749
v 0.187052 0.254505 0.472178
v 0.233721 0.235174 0.472178
v 0.175382 0.259340 0.586464
v 0.233718 0.235177 0.586464
v 0.175369 0.259354 0.700749
v 0.233705 0.235190 0.700749
v 0.264375 -0.064171 0.472178
v 0.249160 -0.081919 0.586107
v 0.249127 -0.081920 0.700402
v -0.174649 0.259354 0.700749
v -0.116313 0.283517 0.700749
v -0.305477 0.060181 0.700749
v -0.281313 0.118517 0.700749
v -0.257149 -0.173164 0.700749
v -0.281313 -0.114828 0.700749
v 0.000360 -0.328155 0.700749
v -0.057977 -0.303992 0.700749
v -0.116313 -0.279828 0.700749
v 0.257868 0.176854 0.700749
v 0.282032 0.118517 0.700749
v 0.058696 0.307681 0.700749
v 0.117032 0.283517 0.700749
v 0.083939 -0.246736 0.700497
v 0.194934 -0.151348 0.678941
v -0.174636 0.259340 0.586464
v -0.116300 0.283504 0.586464
v -0.305463 0.060168 0.586464
v -0.281300 0.118504 0.586464
v -0.257136 -0.173178 0.586464
v -0.281300 -0.114841 0.586464
v 0.000373 -0.328169 0.586464
v -0.057963 -0.304005 0.586464
v -0.116300 -0.279841 0.586464
v 0.257882 0.176840 0.586464
v 0.282046 0.118504 0.586464
v 0.058709 0.307668 0.586464
v 0.117046 0.283504 0.586464
v 0.083823 -0.246676 0.586250
v 0.155337 -0.200222 0.555124
v -0.186301 0.254505 0.472178
v -0.139632 0.273836 0.472178
v -0.092963 0.293167 0.472178
v -0.310294 0.048498 0.472178
v -0.290963 0.095167 0.472178
v -0.271632 0.141836 0.472178
v -0.252301 -0.184847 0.472178
v -0.271632 -0.138178 0.472178
v -0.290963 -0.091509 0.472178
v 0.000375 -0.328171 0.472178
v -0.046294 -0.308840 0.472178
v -0.092963 -0.289509 0.472178
v -0.139632 -0.270178 0.472178
v 0.253052 0.188505 0.472178
v 0.272383 0.141836 0.472178
v 0.291713 0.095167 0.472178
v 0.047044 0.312498 0.472178
v 0.093713 0.293167 0.472178
v 0.140383 0.273836 0.472178
v 0.067265 -0.263402 0.471921
v 0.170204 -0.200079 0.451498
v 0.234900 -0.132274 0.452053
vn 0.0089 -0.0090 0.9999
vn 0.0082 -0.0082 0.9999
vn 0.0055 -0.0055 1.0000
vn 0.6239 -0.7341 0.2679
vn 0.6949 -0.6467 0.3145
vn 0.5481 -0.8147 0.1895
vn 0.6652 -0.6913 0.2819
vn 0.6915 -0.6548 0.3051
vn -0.0094 0.0093 -0.9999
vn -0.0091 0.0092 -0.9999
vn -0.0064 0.0064 -1.0000
vn -0.6197 0.6187 -0.4829
vn -0.6234 0.6220 -0.4738
vn -0.5286 0.7013 -0.4783
vn -0.6248 0.6130 -0.4836
vn -0.6132 0.6310 -0.4752
vn -0.1791 0.3979 0.8998
vn -0.4613 0.1037 0.8811
vn 0.0017 0.5324 0.8465
vn -0.4412 0.1281 0.8882
vn -0.0783 0.4116 0.9080
vn 0.3827 -0.9238 -0.0119
vn 0.3827 -0.9238 -0.0113
vn 0.3827 -0.9239 -0.0078
vn 0.9238 -0.3827 -0.0119
vn 0.9238 -0.3827 -0.0113
vn 0.9239 -0.3827 -0.0078
vn 0.9239 0.3827 -0.0049
vn 0.9239 0.3827 -0.0047
vn 0.9239 0.3827 -0.0032
vn 0.3827 0.9239 0.0049
vn 0.3827 0.9239 0.0047
vn 0.3827 0.9239 0.0032
vn -0.9239 -0.3827 0.0049
vn -0.9239 -0.3827 0.0047
vn -0.9239 -0.3827 0.0032
vn -0.3827 -0.9239 -0.0049
vn -0.3827 -0.9239 -0.0047
vn -0.3827 -0.9239 -0.0032
vn -0.7070 0.7070 0.0129
vn -0.6935 0.6935 0.1950
vn -0.6941 0.6941 0.1907
vn -0.6976 0.6976 0.1632
vn -0.6989 0.6989 0.1521
vn 0.9239 0.3827 -0.0050
vn -0.9239 -0.3827 0.0050
vn -0.6974 0.6974 0.1649
vn -0.6866 0.6866 0.2393
vn -0.9190 0.3942 0.0120
vn 0.6089 0.7821 0.1327
vn -0.5932 -0.7956 -0.1230
vn -0.5995 -0.7902 -0.1269
vn 0.6726 0.7194 0.1734
vn -0.6854 -0.7051 -0.1819
vn 0.5968 0.7926 0.1252
vt 0.818188 0.301434
vt 0.818188 0.320489
vt 0.818188 0.339544
vt 0.818187 0.358599
vt 0.818187 0.377654
vt 0.818186 0.396709
vt 0.804713 0.410183
vt 0.791239 0.423656
vt 0.777766 0.437130
vt 0.764292 0.450604
vt 0.750818 0.464078
vt 0.731764 0.464078
vt 0.712710 0.464078
vt 0.693656 0.464078
vt 0.674602 0.464078
vt 0.655548 0.464078
vt 0.642076 0.431549
vt 0.615496 0.394463
vt 0.602023 0.361934
vt 0.601658 0.333963
vt 0.588186 0.301434
vt 0.601659 0.287960
vt 0.615133 0.274486
vt 0.628606 0.261012
vt 0.642080 0.247538
vt 0.655554 0.234065
vt 0.674608 0.234065
vt 0.693662 0.234065
vt 0.712716 0.234065
vt 0.731770 0.234065
vt 0.750824 0.234065
vt 0.764297 0.247538
vt 0.777770 0.261012
vt 0.791243 0.274486
vt 0.804716 0.287960
vt 0.872247 0.603259
vt 0.872246 0.627077
vt 0.872245 0.650896
vt 0.872245 0.674715
vt 0.872244 0.698533
vt 0.855402 0.715376
vt 0.838560 0.732218
vt 0.821718 0.749060
vt 0.804876 0.765903
vt 0.781059 0.765903
vt 0.757241 0.765903
vt 0.733424 0.765903
vt 0.709606 0.765903
vt 0.692766 0.725242
vt 0.675060 0.698446
vt 0.659084 0.643920
vt 0.642244 0.603259
vt 0.659086 0.586416
vt 0.675928 0.569574
vt 0.692770 0.552732
vt 0.709612 0.535889
vt 0.733429 0.535889
vt 0.757247 0.535889
vt 0.781064 0.535889
vt 0.804882 0.535889
vt 0.821723 0.552732
vt 0.838564 0.569574
vt 0.855405 0.586416
vt 0.926939 0.067369
vt 0.926939 0.091188
vt 0.926938 0.115007
vt 0.926937 0.138825
vt 0.926937 0.162644
vt 0.910095 0.179486
vt 0.893253 0.196329
vt 0.876411 0.213171
vt 0.859569 0.230014
vt 0.835751 0.230013
vt 0.811934 0.230014
vt 0.788116 0.230014
vt 0.764299 0.230014
vt 0.747458 0.189352
vt 0.722991 0.139852
vt 0.713777 0.108030
vt 0.696936 0.067369
vt 0.713778 0.050527
vt 0.730620 0.033685
vt 0.747462 0.016842
vt 0.764304 0.000000
vt 0.788122 -0.000000
vt 0.811939 -0.000000
vt 0.835757 -0.000000
vt 0.859574 -0.000000
vt 0.876416 0.016842
vt 0.893257 0.033685
vt 0.910098 0.050527
vt 0.231602 0.365993
vt 0.219935 0.336173
vt 0.223802 0.336589
vt 0.235469 0.366409
vt 0.231602 0.279632
vt 0.235469 0.280049
vt 0.975597 0.372242
vt 0.967492 0.330605
vt 0.971359 0.331021
vt 0.979464 0.372658
vt 0.984732 0.665239
vt 0.976728 0.611847
vt 0.980595 0.612263
vt 0.988599 0.665655
vt 0.984732 0.578878
vt 0.988599 0.579294
s 0
usemtl Glass
f 16/1/1 15/2/1 83/3/1 82/4/1 81/5/1 22/6/1 21/7/1 86/8/1 85/9/1 84/10/1 28/11/1 27/12/1 90/13/1 89/14/1 88/15/1 87/16/1 97/17/1 98/18/1 99/19/1 45/20/1 34/21/1 33/22/1 93/23/1 92/24/1 91/25/1 40/26/1 39/27/1 96/28/1 95/29/1 94/30/1 10/31/1 9/32/1 80/33/1 79/34/1 78/35/1
f 18/36/2 17/37/2 66/38/2 65/39/2 24/40/2 23/41/2 68/42/2 67/43/2 30/44/2 29/45/2 71/46/2 70/47/2 69/48/2 76/49/2 77/50/2 46/51/2 36/52/2 35/53/2 73/54/2 72/55/2 42/56/2 41/57/2 75/58/2 74/59/2 12/60/2 11/61/2 64/62/2 63/63/2
f 20/64/3 19/65/3 51/66/3 50/67/3 26/68/3 25/69/3 53/70/3 52/71/3 32/72/3 31/73/3 56/74/3 55/75/3 54/76/3 61/77/3 62/78/3 47/79/3 38/80/3 37/81/3 58/82/3 57/83/3 44/84/3 43/85/3 60/86/3 59/87/3 14/88/3 13/89/3 49/90/3 48/91/3
f 4/92/4 5/93/4 77/94/4 76/95/4
f 5/93/5 6/96/5 46/97/5 77/94/5
f 7/98/6 8/99/6 98/100/6 97/101/6
f 1/102/7 2/103/7 62/104/7 61/105/7
f 2/103/8 3/106/8 47/107/8 62/104/8
f 115/1/9 177/35/9 178/34/9 179/33/9 108/32/9 109/31/9 193/30/9 194/29/9 195/28/9 138/27/9 139/26/9 190/25/9 191/24/9 192/23/9 132/22/9 133/21/9 144/20/9 198/19/9 197/18/9 196/17/9 186/16/9 187/15/9 188/14/9 189/13/9 126/12/9 127/11/9 183/10/9 184/9/9 185/8/9 120/7/9 121/6/9 180/5/9 181/4/9 182/3/9 114/2/9
f 117/36/10 162/63/10 163/62/10 110/61/10 111/60/10 173/59/10 174/58/10 140/57/10 141/56/10 171/55/10 172/54/10 134/53/10 135/52/10 145/51/10 176/50/10 175/49/10 168/48/10 169/47/10 170/46/10 128/45/10 129/44/10 166/43/10 167/42/10 122/41/10 123/40/10 164/39/10 165/38/10 116/37/10
f 119/64/11 147/91/11 148/90/11 112/89/11 113/88/11 158/87/11 159/86/11 142/85/11 143/84/11 156/83/11 157/82/11 136/81/11 137/80/11 146/79/11 161/78/11 160/77/11 153/76/11 154/75/11 155/74/11 130/73/11 131/72/11 151/71/11 152/70/11 124/69/11 125/68/11 149/67/11 150/66/11 118/65/11
f 103/92/12 175/95/12 176/94/12 104/93/12
f 104/93/13 176/94/13 145/97/13 105/96/13
f 106/98/14 196/101/14 197/100/14 107/99/14
f 100/102/15 160/105/15 161/104/15 101/103/15
f 101/103/16 161/104/16 146/107/16 102/106/16
f 2/103/17 1/102/17 100/102/17 101/103/17
f 3/106/18 2/103/18 101/103/18 102/106/18
f 5/93/19 4/92/19 103/92/19 104/93/19
f 6/96/20 5/93/20 104/93/20 105/96/20
f 8/99/21 7/98/21 106/98/21 107/99/21
f 9/32/22 10/31/22 109/31/22 108/32/22
f 11/61/23 12/60/23 111/60/23 110/61/23
f 13/89/24 14/88/24 113/88/24 112/89/24
f 15/2/25 16/1/25 115/1/25 114/2/25
f 17/37/26 18/36/26 117/36/26 116/37/26
f 19/65/27 20/64/27 119/64/27 118/65/27
f 21/7/28 22/6/28 121/6/28 120/7/28
f 23/41/29 24/40/29 123/40/29 122/41/29
f 25/69/30 26/68/30 125/68/30 124/69/30
f 27/12/31 28/11/31 127/11/31 126/12/31
f 29/45/32 30/44/32 129/44/32 128/45/32
f 31/73/33 32/72/33 131/72/33 130/73/33
f 33/22/34 34/21/34 133/21/34 132/22/34
f 35/53/35 36/52/35 135/52/35 134/53/35
f 37/81/36 38/80/36 137/80/36 136/81/36
f 39/27/37 40/26/37 139/26/37 138/27/37
f 41/57/38 42/56/38 141/56/38 140/57/38
f 43/85/39 44/84/39 143/84/39 142/85/39
f 34/21/40 45/20/40 144/20/40 133/21/40
f 36/52/41 46/51/41 145/51/41 135/52/41
f 38/80/42 47/79/42 146/79/42 137/80/42
f 20/64/24 48/91/24 147/91/24 119/64/24
f 48/91/24 49/90/24 148/90/24 147/91/24
f 49/90/24 13/89/24 112/89/24 148/90/24
f 26/68/27 50/67/27 149/67/27 125/68/27
f 50/67/27 51/66/27 150/66/27 149/67/27
f 51/66/27 19/65/27 118/65/27 150/66/27
f 32/72/30 52/71/30 151/71/30 131/72/30
f 52/71/30 53/70/30 152/70/30 151/71/30
f 53/70/30 25/69/30 124/69/30 152/70/30
f 54/76/33 55/75/33 154/75/33 153/76/33
f 55/75/33 56/74/33 155/74/33 154/75/33
f 56/74/33 31/73/33 130/73/33 155/74/33
f 44/84/36 57/83/36 156/83/36 143/84/36
f 57/83/36 58/82/36 157/82/36 156/83/36
f 58/82/36 37/81/36 136/81/36 157/82/36
f 14/88/39 59/87/39 158/87/39 113/88/39
f 59/87/39 60/86/39 159/86/39 158/87/39
f 60/86/39 43/85/39 142/85/39 159/86/39
f 61/77/43 54/76/43 153/76/43 160/77/43
f 18/36/23 63/63/23 162/63/23 117/36/23
f 63/63/23 64/62/23 163/62/23 162/63/23
f 64/62/23 11/61/23 110/61/23 163/62/23
f 24/40/26 65/39/26 164/39/26 123/40/26
f 65/39/26 66/38/26 165/38/26 164/39/26
f 66/38/26 17/37/26 116/37/26 165/38/26
f 30/44/29 67/43/29 166/43/29 129/44/29
f 67/43/29 68/42/29 167/42/29 166/43/29
f 68/42/29 23/41/29 122/41/29 167/42/29
f 69/48/32 70/47/32 169/47/32 168/48/32
f 70/47/32 71/46/32 170/46/32 169/47/32
f 71/46/32 29/45/32 128/45/32 170/46/32
f 42/56/35 72/55/35 171/55/35 141/56/35
f 72/55/35 73/54/35 172/54/35 171/55/35
f 73/54/35 35/53/35 134/53/35 172/54/35
f 12/60/38 74/59/38 173/59/38 111/60/38
f 74/59/38 75/58/38 174/58/38 173/59/38
f 75/58/38 41/57/38 140/57/38 174/58/38
f 76/49/44 69/48/44 168/48/44 175/49/44
f 16/1/22 78/35/22 177/35/22 115/1/22
f 78/35/22 79/34/22 178/34/22 177/35/22
f 79/34/22 80/33/22 179/33/22 178/34/22
f 80/33/22 9/32/22 108/32/22 179/33/22
f 22/6/25 81/5/25 180/5/25 121/6/25
f 81/5/25 82/4/25 181/4/25 180/5/25
f 82/4/25 83/3/25 182/3/25 181/4/25
f 83/3/25 15/2/25 114/2/25 182/3/25
f 28/11/28 84/10/28 183/10/28 127/11/28
f 84/10/28 85/9/28 184/9/28 183/10/28
f 85/9/45 86/8/45 185/8/45 184/9/45
f 86/8/28 21/7/28 120/7/28 185/8/28
f 87/16/31 88/15/31 187/15/31 186/16/31
f 88/15/31 89/14/31 188/14/31 187/15/31
f 89/14/31 90/13/31 189/13/31 188/14/31
f 90/13/31 27/12/31 126/12/31 189/13/31
f 40/26/46 91/25/46 190/25/46 139/26/46
f 91/25/46 92/24/46 191/24/46 190/25/46
f 92/24/34 93/23/34 192/23/34 191/24/34
f 93/23/34 33/22/34 132/22/34 192/23/34
f 10/31/37 94/30/37 193/30/37 109/31/37
f 94/30/37 95/29/37 194/29/37 193/30/37
f 95/29/37 96/28/37 195/28/37 194/29/37
f 96/28/37 39/27/37 138/27/37 195/28/37
f 97/17/47 87/16/47 186/16/47 196/17/47
f 99/19/48 98/18/48 197/18/48 198/19/48
f 45/20/49 99/19/49 198/19/49 144/20/49
f 4/92/50 76/95/50 175/95/50 103/92/50
f 46/97/51 6/96/51 105/96/51 145/97/51
f 47/107/52 3/106/52 102/106/52 146/107/52
f 7/98/53 97/101/53 196/101/53 106/98/53
f 98/100/54 8/99/54 107/99/54 197/100/54
f 1/102/55 61/105/55 160/105/55 100/102/55
