# Blender 5.2.2 LTS
# www.blender.org
mtllib bridge_markings.mtl
o Cube.002
v 0.252711 0.355000 0.037697
v 0.252983 0.355000 0.041660
v 0.252711 0.405000 0.037697
v 0.252983 0.405000 0.041660
v 0.327017 0.355000 0.017340
v 0.327289 0.355000 0.021303
v 0.327017 0.405000 0.017340
v 0.327289 0.405000 0.021303
v -0.047500 0.355000 0.055000
v -0.047500 0.355000 0.059000
v -0.047500 0.405000 0.055000
v -0.047500 0.405000 0.059000
v 0.027500 0.355000 0.055000
v 0.027500 0.355000 0.059000
v 0.027500 0.405000 0.055000
v 0.027500 0.405000 0.059000
v 0.077500 0.355000 0.055000
v 0.077500 0.355000 0.059000
v 0.077500 0.405000 0.055000
v 0.077500 0.405000 0.059000
v 0.152500 0.355000 0.055000
v 0.152500 0.355000 0.059000
v 0.152500 0.405000 0.055000
v 0.152500 0.405000 0.059000
v -0.172500 0.355000 0.055000
v -0.172500 0.355000 0.059000
v -0.172500 0.405000 0.055000
v -0.172500 0.405000 0.059000
v -0.097500 0.355000 0.055000
v -0.097500 0.355000 0.059000
v -0.097500 0.405000 0.055000
v -0.097500 0.405000 0.059000
v -0.347017 0.355000 0.017340
v -0.347289 0.355000 0.021303
v -0.347017 0.405000 0.017340
v -0.347289 0.405000 0.021303
v -0.272711 0.355000 0.037697
v -0.272983 0.355000 0.041660
v -0.272711 0.405000 0.037697
v -0.272983 0.405000 0.041660
vn -0.9977 -0.0000 0.0683
vn -0.0000 1.0000 -0.0000
vn 0.9977 -0.0000 -0.0683
vn -0.0000 -1.0000 -0.0000
vn -0.2642 -0.0000 -0.9645
vn 0.2642 -0.0000 0.9645
vn -1.0000 -0.0000 -0.0000
vn 1.0000 -0.0000 -0.0000
vn -0.0000 -0.0000 -1.0000
vn -0.0000 -0.0000 1.0000
vn -0.9977 -0.0000 -0.0683
vn 0.9977 -0.0000 0.0683
vn 0.2642 -0.0000 -0.9645
vn -0.2642 -0.0000 0.9645
vt 0.375000 0.000000
vt 0.625000 0.000000
vt 0.625000 0.250000
vt 0.375000 0.250000
vt 0.625000 0.500000
vt 0.375000 0.500000
vt 0.625000 0.750000
vt 0.375000 0.750000
vt 0.625000 1.000000
vt 0.375000 1.000000
vt 0.125000 0.500000
vt 0.125000 0.750000
vt 0.875000 0.500000
vt 0.875000 0.750000
s 0
usemtl mat0
f 1/1/1 2/2/1 4/3/1 3/4/1
f 3/4/2 4/3/2 8/5/2 7/6/2
f 7/6/3 8/5/3 6/7/3 5/8/3
f 5/8/4 6/7/4 2/9/4 1/10/4
f 3/11/5 7/6/5 5/8/5 1/12/5
f 8/5/6 4/13/6 2/14/6 6/7/6
f 9/1/7 10/2/7 12/3/7 11/4/7
f 11/4/2 12/3/2 16/5/2 15/6/2
f 15/6/8 16/5/8 14/7/8 13/8/8
f 13/8/4 14/7/4 10/9/4 9/10/4
f 11/11/9 15/6/9 13/8/9 9/12/9
f 16/5/10 12/13/10 10/14/10 14/7/10
f 17/1/7 18/2/7 20/3/7 19/4/7
f 19/4/2 20/3/2 24/5/2 23/6/2
f 23/6/8 24/5/8 22/7/8 21/8/8
f 21/8/4 22/7/4 18/9/4 17/10/4
f 19/11/9 23/6/9 21/8/9 17/12/9
f 24/5/10 20/13/10 18/14/10 22/7/10
f 25/1/7 26/2/7 28/3/7 27/4/7
f 27/4/2 28/3/2 32/5/2 31/6/2
f 31/6/8 32/5/8 30/7/8 29/8/8
f 29/8/4 30/7/4 26/9/4 25/10/4
f 27/11/9 31/6/9 29/8/9 25/12/9
f 32/5/10 28/13/10 26/14/10 30/7/10
f 33/1/11 34/2/11 36/3/11 35/4/11
f 35/4/2 36/3/2 40/5/2 39/6/2
f 39/6/12 40/5/12 38/7/12 37/8/12
f 37/8/4 38/7/4 34/9/4 33/10/4
f 35/11/13 39/6/13 37/8/13 33/12/13
f 40/5/14 36/13/14 34/14/14 38/7/14
