# Blender 5.2.2 LTS
# www.blender.org
mtllib tower_roof.mtl
o Cylinder_top
v 0.233675 0.235220 0.805035
v 0.000330 0.331875 0.805035
v 0.330330 0.001875 0.805035
v 0.233675 -0.231471 0.805035
v 0.000330 -0.328125 0.805035
v -0.233016 -0.231471 0.805035
v -0.329670 0.001875 0.805035
v -0.233016 0.235220 0.805035
v 0.004905 0.135014 0.811379
v 0.004905 0.136229 0.908113
v 0.072405 0.116928 0.811379
v 0.073012 0.117979 0.908113
v 0.121818 0.067514 0.811379
v 0.122870 0.068121 0.908113
v 0.139905 0.000014 0.811379
v 0.141119 0.000014 0.908113
v 0.121818 -0.067486 0.811379
v 0.122870 -0.068093 0.908113
v 0.072405 -0.116899 0.811379
v 0.073012 -0.117951 0.908113
v 0.004905 -0.134986 0.811379
v 0.004905 -0.136200 0.908113
v -0.062595 -0.116899 0.811379
v -0.063202 -0.117951 0.908113
v -0.112008 -0.067486 0.811379
v -0.113060 -0.068093 0.908113
v -0.130095 0.000014 0.811379
v -0.131309 0.000014 0.908113
v -0.112008 0.067514 0.811379
v -0.113060 0.068121 0.908113
v -0.062595 0.116928 0.811379
v -0.063202 0.117979 0.908113
v 0.004905 0.145014 0.808171
v 0.004905 0.146229 0.834904
v 0.077405 0.125588 0.808171
v 0.078012 0.126640 0.834904
v 0.130479 0.072514 0.808171
v 0.131530 0.073121 0.834904
v 0.149905 0.000014 0.808171
v 0.151119 0.000014 0.834904
v 0.130479 -0.072486 0.808171
v 0.131530 -0.073093 0.834904
v 0.077405 -0.125559 0.808171
v 0.078012 -0.126611 0.834904
v 0.004905 -0.144986 0.808171
v 0.004905 -0.146200 0.834904
v -0.067595 -0.125559 0.808171
v -0.068202 -0.126611 0.834904
v -0.120669 -0.072486 0.808171
v -0.121720 -0.073093 0.834904
v -0.140095 0.000014 0.808171
v -0.141309 0.000014 0.834904
v -0.120669 0.072514 0.808171
v -0.121720 0.073121 0.834904
v -0.067595 0.125588 0.808171
v -0.068202 0.126640 0.834904
v 0.187006 0.254551 0.805035
v 0.140337 0.273882 0.805035
v 0.093668 0.293213 0.805035
v 0.046999 0.312544 0.805035
v 0.310999 0.048544 0.805035
v 0.291668 0.095213 0.805035
v 0.272337 0.141882 0.805035
v 0.253006 0.188551 0.805035
v -0.046339 0.312544 0.805035
v -0.093008 0.293213 0.805035
v -0.139677 0.273882 0.805035
v -0.186347 0.254551 0.805035
v -0.252347 0.188551 0.805035
v -0.271677 0.141882 0.805035
v -0.291008 0.095213 0.805035
v -0.310339 0.048544 0.805035
v -0.310339 -0.044794 0.805035
v -0.291008 -0.091463 0.805035
v -0.271677 -0.138133 0.805035
v -0.252347 -0.184802 0.805035
v -0.186347 -0.250802 0.805035
v -0.139677 -0.270133 0.805035
v -0.093008 -0.289463 0.805035
v -0.046339 -0.308794 0.805035
v 0.004905 0.085014 0.906191
v 0.004905 0.090014 0.961191
v 0.065009 0.060118 0.906191
v 0.067098 0.068387 0.956906
v 0.089905 0.000014 0.906191
v 0.089916 -0.000263 0.956019
v 0.065009 -0.060090 0.906191
v 0.066761 -0.068212 0.955306
v 0.004905 -0.084986 0.906191
v 0.004905 -0.085461 0.954064
v -0.055199 -0.060090 0.906191
v -0.056926 -0.068276 0.955885
v -0.080095 0.000014 0.906191
v -0.080108 -0.000263 0.956418
v -0.055199 0.060118 0.906191
v -0.057282 0.068408 0.956727
v 0.071290 0.066399 0.943396
v 0.004905 0.093896 0.943396
v 0.098787 0.000014 0.943396
v 0.071290 -0.066370 0.943396
v 0.004905 -0.093868 0.943396
v -0.061480 -0.066370 0.943396
v -0.088977 0.000014 0.943396
v -0.061480 0.066399 0.943396
v 0.233675 0.235220 0.815035
v 0.000330 0.331875 0.815035
v 0.330330 0.001875 0.815035
v 0.233675 -0.231471 0.815035
v 0.000330 -0.328125 0.815035
v -0.233016 -0.231471 0.815035
v -0.329670 0.001875 0.815035
v -0.233016 0.235220 0.815035
v 0.004905 0.145014 0.811379
v 0.004905 0.143800 0.914645
v 0.077405 0.125588 0.811379
v 0.076798 0.124537 0.914645
v 0.130479 0.072514 0.811379
v 0.129427 0.071907 0.914645
v 0.149905 0.000014 0.811379
v 0.148691 0.000014 0.914645
v 0.130479 -0.072486 0.811379
v 0.129427 -0.071879 0.914645
v 0.077405 -0.125559 0.811379
v 0.076798 -0.124508 0.914645
v 0.004905 -0.144986 0.811379
v 0.004905 -0.143771 0.914645
v -0.067595 -0.125559 0.811379
v -0.066988 -0.124508 0.914645
v -0.120669 -0.072486 0.811379
v -0.119617 -0.071879 0.914645
v -0.140095 0.000014 0.811379
v -0.138881 0.000014 0.914645
v -0.120669 0.072514 0.811379
v -0.119617 0.071907 0.914645
v -0.067595 0.125588 0.811379
v -0.066988 0.124537 0.914645
v 0.004905 0.155014 0.808171
v 0.004905 0.153800 0.841437
v 0.082405 0.134248 0.808171
v 0.081798 0.133197 0.841437
v 0.139139 0.077514 0.808171
v 0.138087 0.076907 0.841437
v 0.159905 0.000014 0.808171
v 0.158691 0.000014 0.841437
v 0.139139 -0.077486 0.808171
v 0.138087 -0.076879 0.841437
v 0.082405 -0.134220 0.808171
v 0.081798 -0.133168 0.841437
v 0.004905 -0.154986 0.808171
v 0.004905 -0.153771 0.841437
v -0.072595 -0.134220 0.808171
v -0.071988 -0.133168 0.841437
v -0.129329 -0.077486 0.808171
v -0.128277 -0.076879 0.841437
v -0.150095 0.000014 0.808171
v -0.148881 0.000014 0.841437
v -0.129329 0.077514 0.808171
v -0.128277 0.076907 0.841437
v -0.072595 0.134248 0.808171
v -0.071988 0.133197 0.841437
v 0.187006 0.254551 0.815035
v 0.140337 0.273882 0.815035
v 0.093668 0.293213 0.815035
v 0.046999 0.312544 0.815035
v 0.310999 0.048544 0.815035
v 0.291668 0.095213 0.815035
v 0.272337 0.141882 0.815035
v 0.253006 0.188551 0.815035
v -0.046339 0.312544 0.815035
v -0.093008 0.293213 0.815035
v -0.139677 0.273882 0.815035
v -0.186347 0.254551 0.815035
v -0.252347 0.188551 0.815035
v -0.271677 0.141882 0.815035
v -0.291008 0.095213 0.815035
v -0.310339 0.048544 0.815035
v -0.310339 -0.044794 0.815035
v -0.291008 -0.091463 0.815035
v -0.271677 -0.138133 0.815035
v -0.252347 -0.184802 0.815035
v -0.186347 -0.250802 0.815035
v -0.139677 -0.270133 0.815035
v -0.093008 -0.289463 0.815035
v -0.046339 -0.308794 0.815035
v 0.004905 0.095014 0.906191
v 0.004905 0.090014 0.951191
v 0.072080 0.067190 0.906191
v 0.069991 0.058921 0.955476
v 0.099905 0.000014 0.906191
v 0.099894 0.000292 0.956364
v 0.072080 -0.067161 0.906191
v 0.070328 -0.059039 0.957076
v 0.004905 -0.094986 0.906191
v 0.004905 -0.094510 0.958319
v -0.062270 -0.067161 0.906191
v -0.060543 -0.058974 0.956498
v -0.090095 0.000014 0.906191
v -0.090082 0.000291 0.955965
v -0.062270 0.067190 0.906191
v -0.060187 0.058900 0.955656
v 0.065800 0.060909 0.949699
v 0.004905 0.086132 0.949699
v 0.091023 0.000014 0.949699
v 0.065800 -0.060880 0.949699
v 0.004905 -0.086104 0.949699
v -0.055990 -0.060880 0.949699
v -0.081213 0.000014 0.949699
v -0.055990 0.060909 0.949699
vn -0.0000 -0.0000 1.0000
vn 0.2588 0.9659 -0.0121
vn 0.7071 0.7071 -0.0121
vn 0.9659 0.2588 -0.0121
vn 0.9659 -0.2588 -0.0121
vn 0.7071 -0.7071 -0.0121
vn 0.2588 -0.9659 -0.0121
vn -0.2588 -0.9659 -0.0121
vn -0.7071 -0.7071 -0.0121
vn -0.9659 -0.2588 -0.0121
vn -0.9659 0.2588 -0.0121
vn -0.7071 0.7071 -0.0121
vn -0.2588 0.9659 -0.0121
vn 0.2586 0.9650 -0.0438
vn 0.7064 0.7064 -0.0438
vn 0.9650 0.2586 -0.0438
vn 0.9650 -0.2586 -0.0438
vn 0.7064 -0.7064 -0.0438
vn 0.2586 -0.9650 -0.0438
vn -0.2586 -0.9650 -0.0438
vn -0.7064 -0.7064 -0.0438
vn -0.9650 -0.2586 -0.0438
vn -0.9650 0.2586 -0.0438
vn -0.7064 0.7064 -0.0438
vn -0.2586 0.9650 -0.0438
vn 0.3491 0.9289 -0.1235
vn 0.9365 0.3474 -0.0472
vn 0.9353 -0.3507 -0.0464
vn 0.3261 -0.9411 -0.0893
vn -0.3261 -0.9411 -0.0893
vn -0.9353 -0.3508 -0.0460
vn -0.8428 0.3201 -0.4327
vn -0.9366 0.3472 -0.0471
vn -0.3487 0.9290 -0.1239
vn 0.8490 0.3218 -0.4191
vn -0.3091 0.8948 -0.3222
vn 0.8574 -0.3186 -0.4042
vn -0.8566 -0.3165 -0.4074
vn 0.3086 0.8983 -0.3128
vn 0.3580 -0.9279 -0.1041
vn -0.3580 -0.9279 -0.1041
vn -0.0000 -0.0000 -1.0000
vn -0.2588 -0.9659 -0.0114
vn -0.7071 -0.7071 -0.0114
vn -0.9659 -0.2588 -0.0114
vn -0.9659 0.2588 -0.0114
vn -0.7071 0.7071 -0.0114
vn -0.2588 0.9659 -0.0114
vn 0.2588 0.9659 -0.0114
vn 0.7071 0.7071 -0.0114
vn 0.9659 0.2588 -0.0114
vn 0.9659 -0.2588 -0.0114
vn 0.7071 -0.7071 -0.0114
vn 0.2588 -0.9659 -0.0114
vn -0.2587 -0.9653 -0.0352
vn -0.7067 -0.7067 -0.0352
vn -0.9653 -0.2587 -0.0352
vn -0.9653 0.2587 -0.0352
vn -0.7067 0.7067 -0.0352
vn -0.2587 0.9653 -0.0352
vn 0.2587 0.9653 -0.0352
vn 0.7067 0.7067 -0.0352
vn 0.9653 0.2587 -0.0352
vn 0.9653 -0.2587 -0.0352
vn 0.7067 -0.7067 -0.0352
vn 0.2587 -0.9653 -0.0352
vn -0.3994 -0.9066 -0.1364
vn -0.9075 -0.4168 -0.0526
vn -0.9096 0.4124 -0.0501
vn -0.4300 0.8991 -0.0823
vn 0.4305 0.8987 -0.0833
vn 0.9096 0.4124 -0.0507
vn 0.7080 -0.3264 -0.6263
vn 0.9076 -0.4166 -0.0528
vn 0.3994 -0.9066 -0.1364
vn -0.6876 -0.3163 -0.6536
vn 0.3851 -0.8104 -0.4416
vn -0.6714 0.3079 -0.6741
vn 0.6771 0.3073 -0.6686
vn -0.3812 -0.8062 -0.4525
vn -0.3825 0.8219 -0.4221
vn 0.3802 0.8177 -0.4322
vn -0.3827 -0.9239 -0.0000
vn -0.9239 -0.3827 -0.0000
vn -0.9239 0.3827 -0.0000
vn -0.3827 0.9239 -0.0000
vn 0.3827 0.9239 -0.0000
vn 0.9239 0.3827 -0.0000
vn 0.9239 -0.3827 -0.0000
vn 0.3827 -0.9239 -0.0000
vt 0.534300 0.000002
vt 0.553354 0.000002
vt 0.572408 0.000001
vt 0.591462 0.000001
vt 0.610516 0.000001
vt 0.629570 0.000000
vt 0.643044 0.013474
vt 0.656517 0.026947
vt 0.669990 0.040421
vt 0.683463 0.053894
vt 0.696936 0.067368
vt 0.696936 0.086423
vt 0.696936 0.105478
vt 0.696936 0.124533
vt 0.696936 0.143588
vt 0.696936 0.162643
vt 0.683463 0.176117
vt 0.669990 0.189591
vt 0.656517 0.203065
vt 0.643043 0.216539
vt 0.629570 0.230014
vt 0.610516 0.230014
vt 0.591462 0.230014
vt 0.572408 0.230015
vt 0.553354 0.230015
vt 0.534300 0.230016
vt 0.466934 0.162648
vt 0.466934 0.067373
vt 0.480407 0.053899
vt 0.493880 0.040425
vt 0.507353 0.026951
vt 0.520827 0.013477
vt 0.131785 0.842367
vt 0.169507 0.842365
vt 0.169524 0.866488
vt 0.131802 0.866490
vt 0.169524 0.893810
vt 0.131802 0.893811
vt 0.169507 0.917009
vt 0.131785 0.917010
vt 0.094112 0.842366
vt 0.131785 0.842737
vt 0.131090 0.868604
vt 0.093417 0.868233
vt 0.131090 0.895425
vt 0.093417 0.895054
vt 0.131785 0.916013
vt 0.094112 0.915641
vt 0.887725 0.484784
vt 0.850007 0.484791
vt 0.849808 0.460949
vt 0.887526 0.460943
vt 0.849808 0.433615
vt 0.887526 0.433608
vt 0.850007 0.410111
vt 0.887725 0.410104
vt 0.214012 0.487188
vt 0.176297 0.487175
vt 0.176032 0.463746
vt 0.213747 0.463758
vt 0.339105 0.785481
vt 0.366440 0.785481
vt 0.390113 0.799150
vt 0.403781 0.822824
vt 0.403780 0.850161
vt 0.390112 0.873836
vt 0.366439 0.887504
vt 0.339103 0.887504
vt 0.315430 0.873836
vt 0.301763 0.850161
vt 0.301763 0.822824
vt 0.315431 0.799150
vt 0.176032 0.436413
vt 0.213747 0.436426
vt 0.176297 0.412501
vt 0.214012 0.412514
vt 0.023127 0.842882
vt 0.034443 0.842882
vt 0.034461 0.868728
vt 0.023145 0.868728
vt 0.034461 0.898001
vt 0.023145 0.898001
vt 0.034443 0.922857
vt 0.023127 0.922857
vt 0.903242 0.410117
vt 0.914544 0.410229
vt 0.913799 0.437944
vt 0.902497 0.437832
vt 0.913799 0.466680
vt 0.902497 0.466569
vt 0.914544 0.488738
vt 0.903242 0.488627
vt 0.023127 0.922896
vt 0.011811 0.922898
vt 0.011598 0.897354
vt 0.022914 0.897352
vt 0.011598 0.868067
vt 0.022914 0.868065
vt 0.011811 0.842884
vt 0.023127 0.842882
vt 0.011598 0.922894
vt 0.000284 0.922890
vt 0.000000 0.897787
vt 0.011315 0.897791
vt 0.791559 0.765903
vt 0.820847 0.765903
vt 0.846211 0.780547
vt 0.860855 0.805913
vt 0.860855 0.835202
vt 0.846211 0.860568
vt 0.820847 0.875213
vt 0.791559 0.875213
vt 0.766195 0.860569
vt 0.751551 0.835203
vt 0.751551 0.805914
vt 0.766195 0.780548
vt 0.000000 0.868502
vt 0.011314 0.868506
vt 0.000284 0.842882
vt 0.011598 0.842886
vt 0.778989 0.464079
vt 0.797850 0.464078
vt 0.797863 0.488407
vt 0.779002 0.488407
vt 0.797850 0.512063
vt 0.778989 0.512064
vt 0.214517 0.412501
vt 0.233354 0.412686
vt 0.232848 0.438160
vt 0.214012 0.437974
vt 0.233354 0.459792
vt 0.214517 0.459607
vt 0.778990 0.512087
vt 0.760131 0.512090
vt 0.759986 0.487963
vt 0.778845 0.487960
vt 0.760131 0.464081
vt 0.778990 0.464078
vt 0.927132 0.199875
vt 0.926939 0.176049
vt 0.930577 0.176050
vt 0.930769 0.199877
vt 0.759986 0.512089
vt 0.741128 0.512083
vt 0.740936 0.488256
vt 0.759793 0.488262
vt 0.741128 0.464078
vt 0.759986 0.464085
vt 0.669288 0.464079
vt 0.695270 0.464078
vt 0.713643 0.482451
vt 0.713643 0.508435
vt 0.695270 0.526809
vt 0.669288 0.526810
vt 0.650915 0.508437
vt 0.650915 0.482453
vt 0.063663 0.879822
vt 0.063650 0.903478
vt 0.060012 0.903478
vt 0.060025 0.879822
vt 0.926939 0.224053
vt 0.930577 0.224055
vt 0.756433 0.896881
vt 0.755927 0.922355
vt 0.752293 0.922319
vt 0.752799 0.896846
vt 0.930769 0.224058
vt 0.930914 0.200176
vt 0.934551 0.200176
vt 0.934407 0.224057
vt 0.063663 0.927807
vt 0.060025 0.927807
vt 0.755927 0.875249
vt 0.752293 0.875213
vt 0.930769 0.176049
vt 0.934407 0.176049
s 0
usemtl Material.002
f 1/1/1 57/2/1 58/3/1 59/4/1 60/5/1 2/6/1 65/7/1 66/8/1 67/9/1 68/10/1 8/11/1 69/12/1 70/13/1 71/14/1 72/15/1 7/16/1 73/17/1 74/18/1 75/19/1 76/20/1 6/21/1 77/22/1 78/23/1 79/24/1 80/25/1 5/26/1 4/27/1 3/28/1 61/29/1 62/30/1 63/31/1 64/32/1
f 9/33/2 10/34/2 12/35/2 11/36/2
f 11/36/3 12/35/3 14/37/3 13/38/3
f 13/38/4 14/37/4 16/39/4 15/40/4
f 15/41/5 16/42/5 18/43/5 17/44/5
f 17/44/6 18/43/6 20/45/6 19/46/6
f 19/46/7 20/45/7 22/47/7 21/48/7
f 21/49/8 22/50/8 24/51/8 23/52/8
f 23/52/9 24/51/9 26/53/9 25/54/9
f 25/54/10 26/53/10 28/55/10 27/56/10
f 27/57/11 28/58/11 30/59/11 29/60/11
f 12/61/1 10/62/1 32/63/1 30/64/1 28/65/1 26/66/1 24/67/1 22/68/1 20/69/1 18/70/1 16/71/1 14/72/1
f 29/60/12 30/59/12 32/73/12 31/74/12
f 31/74/13 32/73/13 10/75/13 9/76/13
f 33/77/14 34/78/14 36/79/14 35/80/14
f 35/80/15 36/79/15 38/81/15 37/82/15
f 37/82/16 38/81/16 40/83/16 39/84/16
f 39/85/17 40/86/17 42/87/17 41/88/17
f 41/88/18 42/87/18 44/89/18 43/90/18
f 43/90/19 44/89/19 46/91/19 45/92/19
f 45/93/20 46/94/20 48/95/20 47/96/20
f 47/96/21 48/95/21 50/97/21 49/98/21
f 49/98/22 50/97/22 52/99/22 51/100/22
f 51/101/23 52/102/23 54/103/23 53/104/23
f 36/105/1 34/106/1 56/107/1 54/108/1 52/109/1 50/110/1 48/111/1 46/112/1 44/113/1 42/114/1 40/115/1 38/116/1
f 53/104/24 54/103/24 56/117/24 55/118/24
f 55/118/25 56/117/25 34/119/25 33/120/25
f 81/121/26 82/122/26 84/123/26 83/124/26
f 83/124/27 84/123/27 86/125/27 85/126/27
f 85/127/28 86/128/28 88/129/28 87/130/28
f 87/130/29 88/129/29 90/131/29 89/132/29
f 89/133/30 90/134/30 92/135/30 91/136/30
f 91/136/31 92/135/31 94/137/31 93/138/31
f 88/139/32 86/140/32 99/141/32 100/142/32
f 93/143/33 94/144/33 96/145/33 95/146/33
f 95/146/34 96/145/34 82/147/34 81/148/34
f 97/149/1 98/150/1 104/151/1 103/152/1 102/153/1 101/154/1 100/155/1 99/156/1
f 94/157/35 92/158/35 102/159/35 103/160/35
f 90/161/36 88/139/36 100/142/36 101/162/36
f 96/163/37 94/164/37 103/165/37 104/166/37
f 86/167/38 84/168/38 97/169/38 99/170/38
f 92/158/39 90/171/39 101/172/39 102/159/39
f 82/173/40 96/163/40 104/166/40 98/174/40
f 84/168/41 82/175/41 98/176/41 97/169/41
f 105/1/42 168/32/42 167/31/42 166/30/42 165/29/42 107/28/42 108/27/42 109/26/42 184/25/42 183/24/42 182/23/42 181/22/42 110/21/42 180/20/42 179/19/42 178/18/42 177/17/42 111/16/42 176/15/42 175/14/42 174/13/42 173/12/42 112/11/42 172/10/42 171/9/42 170/8/42 169/7/42 106/6/42 164/5/42 163/4/42 162/3/42 161/2/42
f 113/33/43 115/36/43 116/35/43 114/34/43
f 115/36/44 117/38/44 118/37/44 116/35/44
f 117/38/45 119/40/45 120/39/45 118/37/45
f 119/41/46 121/44/46 122/43/46 120/42/46
f 121/44/47 123/46/47 124/45/47 122/43/47
f 123/46/48 125/48/48 126/47/48 124/45/48
f 125/49/49 127/52/49 128/51/49 126/50/49
f 127/52/50 129/54/50 130/53/50 128/51/50
f 129/54/51 131/56/51 132/55/51 130/53/51
f 131/57/52 133/60/52 134/59/52 132/58/52
f 116/61/42 118/72/42 120/71/42 122/70/42 124/69/42 126/68/42 128/67/42 130/66/42 132/65/42 134/64/42 136/63/42 114/62/42
f 133/60/53 135/74/53 136/73/53 134/59/53
f 135/74/54 113/76/54 114/75/54 136/73/54
f 137/77/55 139/80/55 140/79/55 138/78/55
f 139/80/56 141/82/56 142/81/56 140/79/56
f 141/82/57 143/84/57 144/83/57 142/81/57
f 143/85/58 145/88/58 146/87/58 144/86/58
f 145/88/59 147/90/59 148/89/59 146/87/59
f 147/90/60 149/92/60 150/91/60 148/89/60
f 149/93/61 151/96/61 152/95/61 150/94/61
f 151/96/62 153/98/62 154/97/62 152/95/62
f 153/98/63 155/100/63 156/99/63 154/97/63
f 155/101/64 157/104/64 158/103/64 156/102/64
f 140/105/42 142/116/42 144/115/42 146/114/42 148/113/42 150/112/42 152/111/42 154/110/42 156/109/42 158/108/42 160/107/42 138/106/42
f 157/104/65 159/118/65 160/117/65 158/103/65
f 159/118/66 137/120/66 138/119/66 160/117/66
f 185/121/67 187/124/67 188/123/67 186/122/67
f 187/124/68 189/126/68 190/125/68 188/123/68
f 189/127/69 191/130/69 192/129/69 190/128/69
f 191/130/70 193/132/70 194/131/70 192/129/70
f 193/133/71 195/136/71 196/135/71 194/134/71
f 195/136/72 197/138/72 198/137/72 196/135/72
f 192/139/73 204/142/73 203/141/73 190/140/73
f 197/143/74 199/146/74 200/145/74 198/144/74
f 199/146/75 185/148/75 186/147/75 200/145/75
f 201/149/42 203/156/42 204/155/42 205/154/42 206/153/42 207/152/42 208/151/42 202/150/42
f 198/157/76 207/160/76 206/159/76 196/158/76
f 194/161/77 205/162/77 204/142/77 192/139/77
f 200/163/78 208/166/78 207/165/78 198/164/78
f 190/167/79 203/170/79 201/169/79 188/168/79
f 196/158/80 206/159/80 205/172/80 194/171/80
f 186/173/81 202/174/81 208/166/81 200/163/81
f 188/168/82 201/169/82 202/176/82 186/175/82
f 2/6/83 60/5/83 164/5/83 106/6/83
f 1/1/84 64/32/84 168/32/84 105/1/84
f 3/28/85 4/27/85 108/27/85 107/28/85
f 4/27/86 5/26/86 109/26/86 108/27/86
f 5/26/87 80/25/87 184/25/87 109/26/87
f 6/21/88 76/20/88 180/20/88 110/21/88
f 7/16/89 72/15/89 176/15/89 111/16/89
f 8/11/90 68/10/90 172/10/90 112/11/90
f 9/33/1 11/36/1 115/36/1 113/33/1
f 11/36/1 13/38/1 117/38/1 115/36/1
f 13/38/1 15/40/1 119/40/1 117/38/1
f 15/41/1 17/44/1 121/44/1 119/41/1
f 17/44/1 19/46/1 123/46/1 121/44/1
f 19/46/1 21/48/1 125/48/1 123/46/1
f 21/49/1 23/52/1 127/52/1 125/49/1
f 23/52/1 25/54/1 129/54/1 127/52/1
f 25/54/1 27/56/1 131/56/1 129/54/1
f 27/57/1 29/60/1 133/60/1 131/57/1
f 29/60/1 31/74/1 135/74/1 133/60/1
f 31/74/1 9/76/1 113/76/1 135/74/1
f 33/77/1 35/80/1 139/80/1 137/77/1
f 35/80/1 37/82/1 141/82/1 139/80/1
f 37/82/1 39/84/1 143/84/1 141/82/1
f 39/85/1 41/88/1 145/88/1 143/85/1
f 41/88/1 43/90/1 147/90/1 145/88/1
f 43/90/1 45/92/1 149/92/1 147/90/1
f 45/93/1 47/96/1 151/96/1 149/93/1
f 47/96/1 49/98/1 153/98/1 151/96/1
f 49/98/1 51/100/1 155/100/1 153/98/1
f 51/101/1 53/104/1 157/104/1 155/101/1
f 53/104/1 55/118/1 159/118/1 157/104/1
f 55/118/1 33/120/1 137/120/1 159/118/1
f 57/2/83 1/1/83 105/1/83 161/2/83
f 58/3/83 57/2/83 161/2/83 162/3/83
f 59/4/83 58/3/83 162/3/83 163/4/83
f 60/5/83 59/4/83 163/4/83 164/5/83
f 61/29/84 3/28/84 107/28/84 165/29/84
f 62/30/84 61/29/84 165/29/84 166/30/84
f 63/31/84 62/30/84 166/30/84 167/31/84
f 64/32/84 63/31/84 167/31/84 168/32/84
f 65/7/90 2/6/90 106/6/90 169/7/90
f 66/8/90 65/7/90 169/7/90 170/8/90
f 67/9/90 66/8/90 170/8/90 171/9/90
f 68/10/90 67/9/90 171/9/90 172/10/90
f 69/12/89 8/11/89 112/11/89 173/12/89
f 70/13/89 69/12/89 173/12/89 174/13/89
f 71/14/89 70/13/89 174/13/89 175/14/89
f 72/15/89 71/14/89 175/14/89 176/15/89
f 73/17/88 7/16/88 111/16/88 177/17/88
f 74/18/88 73/17/88 177/17/88 178/18/88
f 75/19/88 74/18/88 178/18/88 179/19/88
f 76/20/88 75/19/88 179/19/88 180/20/88
f 77/22/87 6/21/87 110/21/87 181/22/87
f 78/23/87 77/22/87 181/22/87 182/23/87
f 79/24/87 78/23/87 182/23/87 183/24/87
f 80/25/87 79/24/87 183/24/87 184/25/87
f 81/121/1 83/124/1 187/124/1 185/121/1
f 83/124/1 85/126/1 189/126/1 187/124/1
f 85/127/1 87/130/1 191/130/1 189/127/1
f 87/130/1 89/132/1 193/132/1 191/130/1
f 89/133/1 91/136/1 195/136/1 193/133/1
f 91/136/1 93/138/1 197/138/1 195/136/1
f 93/143/1 95/146/1 199/146/1 197/143/1
f 95/146/1 81/148/1 185/148/1 199/146/1
