# Blender 5.2.2 LTS
# www.blender.org
mtllib tower_windows.mtl
o Cylinder_win
v 0.266123 0.189625 0.380246
v 0.283811 0.146921 0.380246
v -0.141634 0.278553 0.265743
v -0.094965 0.297884 0.265743
v 0.275759 0.143585 0.757271
v 0.275759 0.143585 0.728448
v 0.295090 0.096916 0.757271
v 0.295090 0.096916 0.728448
v 0.258202 0.185971 0.728448
v 0.312647 0.054530 0.728448
v 0.258202 0.185971 0.757271
v 0.312647 0.054530 0.757271
v 0.278079 0.144546 0.529665
v 0.278079 0.144546 0.498911
v 0.297410 0.097877 0.529665
v 0.297410 0.097877 0.498911
v 0.260152 0.187824 0.498911
v 0.315336 0.054599 0.498911
v 0.260152 0.187824 0.529665
v 0.315336 0.054599 0.529665
v 0.276163 0.143753 0.642295
v 0.276163 0.143753 0.614852
v 0.295494 0.097084 0.642295
v 0.295494 0.097084 0.614852
v 0.258871 0.185501 0.614852
v 0.312787 0.055335 0.614852
v 0.258871 0.185501 0.642295
v 0.312787 0.055335 0.642295
v 0.274582 0.143098 0.414758
v 0.275070 0.143300 0.383010
v 0.293913 0.096429 0.414758
v 0.293913 0.096429 0.385246
v 0.258246 0.186362 0.381711
v 0.311602 0.053725 0.385246
v 0.256893 0.185802 0.414758
v 0.311602 0.053725 0.414758
v 0.275464 0.143463 0.302049
v 0.275464 0.143463 0.269385
v 0.294795 0.096794 0.302049
v 0.294795 0.096794 0.269385
v 0.257172 0.187623 0.269385
v 0.313087 0.052634 0.269385
v 0.257172 0.187623 0.302049
v 0.313087 0.052634 0.302049
v 0.276640 0.143950 0.186514
v 0.276640 0.143950 0.156348
v 0.295971 0.097281 0.186514
v 0.295971 0.097281 0.156348
v 0.258826 0.186957 0.156348
v 0.313784 0.054275 0.156348
v 0.258826 0.186957 0.186514
v 0.313784 0.054275 0.186514
v 0.101173 0.288669 0.187364
v 0.101173 0.288669 0.155498
v 0.147842 0.269338 0.187364
v 0.147842 0.269338 0.155498
v 0.101173 0.288669 0.301473
v 0.101173 0.288669 0.269960
v 0.147842 0.269338 0.301473
v 0.147842 0.269338 0.269960
v 0.101173 0.288669 0.415566
v 0.101173 0.288669 0.384438
v 0.147842 0.269338 0.415566
v 0.147842 0.269338 0.384438
v 0.101173 0.288669 0.644334
v 0.101173 0.288669 0.612814
v 0.147842 0.269338 0.644334
v 0.147842 0.269338 0.612814
v 0.101173 0.288669 0.530880
v 0.101173 0.288669 0.497696
v 0.147842 0.269338 0.530880
v 0.147842 0.269338 0.497696
v 0.101173 0.288669 0.757818
v 0.101173 0.288669 0.727900
v 0.147842 0.269338 0.757818
v 0.147842 0.269338 0.727900
v 0.058281 0.306435 0.727900
v 0.190734 0.251571 0.727900
v 0.058281 0.306435 0.757818
v 0.190734 0.251571 0.757818
v 0.057541 0.306741 0.612814
v 0.191473 0.251265 0.612814
v 0.057541 0.306741 0.644334
v 0.191473 0.251265 0.644334
v 0.056773 0.307060 0.497696
v 0.192242 0.250946 0.497696
v 0.056773 0.307060 0.530880
v 0.192242 0.250946 0.530880
v 0.057722 0.306666 0.384438
v 0.191293 0.251340 0.384438
v 0.057722 0.306666 0.415566
v 0.191293 0.251340 0.415566
v 0.057544 0.306740 0.269960
v 0.191470 0.251266 0.269960
v 0.057544 0.306740 0.301473
v 0.191470 0.251266 0.301473
v 0.057381 0.306808 0.155498
v 0.191633 0.251199 0.155498
v 0.057381 0.306808 0.187364
v 0.191633 0.251199 0.187364
v -0.138278 0.270451 0.300690
v -0.138480 0.270939 0.268507
v -0.091609 0.289782 0.300690
v -0.091811 0.290270 0.268507
v -0.138278 0.270451 0.414945
v -0.138278 0.270451 0.385060
v -0.091609 0.289782 0.414945
v -0.091609 0.289782 0.385060
v -0.138278 0.270451 0.528047
v -0.138278 0.270451 0.500529
v -0.091609 0.289782 0.528047
v -0.091609 0.289782 0.500529
v -0.138278 0.270451 0.760454
v -0.138278 0.270451 0.725265
v -0.091609 0.289782 0.760454
v -0.091609 0.289782 0.725265
v -0.183604 0.251677 0.725265
v -0.046283 0.308557 0.725265
v -0.183604 0.251677 0.760454
v -0.046283 0.308557 0.760454
v -0.180061 0.253144 0.500529
v -0.049826 0.307089 0.500529
v -0.180061 0.253144 0.528047
v -0.049826 0.307089 0.528047
v -0.181154 0.252691 0.385060
v -0.048733 0.307542 0.385060
v -0.181154 0.252691 0.414945
v -0.048733 0.307542 0.414945
v -0.181183 0.252679 0.270743
v -0.048704 0.307554 0.270743
v -0.181183 0.252679 0.300690
v -0.048704 0.307554 0.300690
v -0.283477 0.095954 0.186620
v -0.283477 0.095954 0.156241
v -0.264146 0.142623 0.186620
v -0.264146 0.142623 0.156241
v -0.283477 0.095954 0.300971
v -0.283477 0.095954 0.270462
v -0.264146 0.142623 0.300971
v -0.264146 0.142623 0.270462
v -0.283477 0.095954 0.413535
v -0.283477 0.095954 0.386469
v -0.264146 0.142623 0.413535
v -0.264146 0.142623 0.386469
v -0.283477 0.095954 0.528764
v -0.283477 0.095954 0.499812
v -0.264146 0.142623 0.528764
v -0.264146 0.142623 0.499812
v -0.301058 0.053508 0.499812
v -0.246564 0.185069 0.499812
v -0.301058 0.053508 0.528764
v -0.246564 0.185069 0.528764
v -0.300697 0.054380 0.386469
v -0.246925 0.184197 0.386469
v -0.300697 0.054380 0.413535
v -0.246925 0.184197 0.413535
v -0.301356 0.052790 0.270462
v -0.246266 0.185787 0.270462
v -0.301356 0.052790 0.300971
v -0.246266 0.185787 0.300971
v -0.301331 0.052849 0.156241
v -0.246291 0.185728 0.156241
v -0.301331 0.052849 0.186620
v -0.246291 0.185728 0.186620
v -0.265421 -0.142915 0.186910
v -0.265421 -0.142915 0.155952
v -0.284752 -0.096246 0.186910
v -0.284752 -0.096246 0.155952
v -0.265421 -0.142915 0.416712
v -0.265421 -0.142915 0.383293
v -0.284752 -0.096246 0.416712
v -0.284752 -0.096246 0.383293
v -0.265421 -0.142915 0.527434
v -0.265421 -0.142915 0.501142
v -0.284752 -0.096246 0.527434
v -0.284752 -0.096246 0.501142
v -0.265421 -0.142915 0.758416
v -0.265421 -0.142915 0.727303
v -0.284752 -0.096246 0.758416
v -0.284752 -0.096246 0.727303
v -0.247426 -0.186358 0.727303
v -0.302747 -0.052802 0.727303
v -0.247426 -0.186358 0.758416
v -0.302747 -0.052802 0.758416
v -0.248348 -0.184131 0.501142
v -0.301824 -0.055029 0.501142
v -0.248348 -0.184131 0.527434
v -0.301824 -0.055029 0.527434
v -0.246985 -0.187423 0.383293
v -0.303188 -0.051737 0.383293
v -0.246985 -0.187423 0.416711
v -0.303188 -0.051737 0.416712
v -0.247455 -0.186286 0.155952
v -0.302717 -0.052874 0.155952
v -0.247455 -0.186286 0.186910
v -0.302717 -0.052874 0.186910
v -0.090261 -0.287000 0.186707
v -0.090261 -0.287000 0.156155
v -0.136930 -0.267669 0.186707
v -0.136930 -0.267669 0.156155
v -0.090261 -0.287000 0.298822
v -0.090261 -0.287000 0.272611
v -0.136930 -0.267669 0.298822
v -0.136930 -0.267669 0.272611
v -0.090261 -0.287000 0.415499
v -0.090261 -0.287000 0.384505
v -0.136930 -0.267669 0.415499
v -0.136930 -0.267669 0.384505
v -0.090261 -0.287000 0.641781
v -0.090261 -0.287000 0.615367
v -0.136930 -0.267669 0.641781
v -0.136930 -0.267669 0.615367
v -0.043592 -0.306331 0.495240
v -0.090261 -0.287000 0.495240
v -0.136930 -0.267669 0.495240
v -0.183599 -0.248338 0.495240
v -0.043592 -0.306331 0.533336
v -0.090261 -0.287000 0.533336
v -0.136930 -0.267669 0.533336
v -0.183599 -0.248338 0.533336
v -0.090261 -0.287000 0.757227
v -0.090261 -0.287000 0.728492
v -0.136930 -0.267669 0.757227
v -0.136930 -0.267669 0.728492
v -0.048988 -0.304096 0.615367
v -0.178203 -0.250574 0.615367
v -0.048988 -0.304096 0.641781
v -0.178203 -0.250574 0.641781
v -0.047916 -0.304540 0.728492
v -0.179275 -0.250129 0.728492
v -0.047916 -0.304540 0.757227
v -0.179275 -0.250129 0.757227
v -0.046872 -0.304972 0.384505
v -0.180318 -0.249697 0.384505
v -0.046872 -0.304972 0.415499
v -0.180318 -0.249697 0.415499
v -0.049082 -0.304057 0.272611
v -0.178109 -0.250613 0.272611
v -0.049082 -0.304057 0.298822
v -0.178109 -0.250613 0.298822
v -0.047076 -0.304888 0.156155
v -0.180114 -0.249782 0.156155
v -0.047076 -0.304888 0.186707
v -0.180114 -0.249782 0.186707
v 0.288871 -0.127706 0.221738
v 0.288912 -0.126491 0.172795
v 0.288923 -0.129864 0.337363
v 0.288747 -0.128772 0.292584
v 0.308927 -0.067650 0.166834
v 0.264672 -0.174634 0.166906
v 0.308868 -0.068179 0.212432
v 0.264608 -0.175159 0.212558
v 0.265421 -0.174713 0.322154
v 0.265488 -0.174240 0.280573
v 0.282803 -0.137787 0.462018
v 0.285388 -0.134233 0.410086
v 0.308904 -0.070181 0.388930
v 0.309160 -0.071383 0.435929
v 0.262534 -0.179177 0.389784
v 0.261279 -0.180827 0.437369
v 0.124316 -0.294994 0.284855
v 0.124589 -0.297458 0.330367
v 0.123795 -0.289877 0.169893
v 0.123990 -0.292230 0.216936
v 0.175267 -0.263201 0.165519
v 0.068654 -0.307368 0.165489
v 0.068735 -0.308325 0.210042
v 0.175333 -0.264170 0.210053
v 0.174937 -0.267328 0.318589
v 0.069916 -0.310851 0.318608
v 0.069839 -0.309948 0.275548
v 0.174885 -0.266405 0.275564
v 0.151862 -0.293653 0.427184
v 0.177449 -0.291840 0.497317
v 0.071601 -0.311083 0.390095
v 0.072264 -0.310726 0.435211
v 0.190134 -0.266593 0.400827
v 0.201260 -0.264846 0.457834
v 0.285756 -0.125427 0.337632
v 0.285581 -0.124334 0.292853
v 0.305284 -0.066165 0.322131
v 0.305343 -0.065685 0.280578
v 0.096445 -0.298543 0.167700
v 0.096579 -0.300200 0.213502
v 0.097553 -0.304053 0.324505
v 0.097384 -0.302367 0.280210
v 0.112136 -0.302236 0.408501
v 0.125372 -0.301093 0.466150
v 0.108586 -0.295243 0.648022
v 0.101241 -0.293240 0.687609
v 0.148389 -0.284358 0.671000
v 0.129203 -0.282753 0.701490
v 0.072343 -0.305028 0.627026
v 0.071690 -0.304208 0.673021
v 0.135992 -0.298130 0.545458
v 0.128178 -0.296334 0.587680
v 0.073940 -0.309296 0.504495
v 0.201588 -0.286275 0.588684
v 0.181297 -0.284844 0.621124
v 0.073156 -0.308192 0.553116
v 0.303407 -0.070301 0.501807
v 0.276527 -0.133598 0.530270
v 0.277693 -0.122324 0.575554
v 0.281718 -0.094669 0.686518
v 0.280630 -0.106032 0.641168
v 0.303191 -0.068506 0.551535
v 0.302049 -0.064986 0.623169
v 0.301913 -0.063261 0.672948
v 0.266123 0.189625 0.390246
v 0.283811 0.146921 0.390246
v -0.141634 0.278553 0.275743
v -0.094965 0.297884 0.275743
v 0.284998 0.147412 0.757271
v 0.284998 0.147412 0.728448
v 0.304329 0.100743 0.757271
v 0.304329 0.100743 0.728448
v 0.267441 0.189798 0.728448
v 0.321886 0.058357 0.728448
v 0.267441 0.189798 0.757271
v 0.321886 0.058357 0.757271
v 0.287318 0.148373 0.529665
v 0.287318 0.148373 0.498911
v 0.306649 0.101704 0.529665
v 0.306649 0.101704 0.498911
v 0.269391 0.191651 0.498911
v 0.324575 0.058426 0.498911
v 0.269391 0.191651 0.529665
v 0.324575 0.058426 0.529665
v 0.285402 0.147580 0.642295
v 0.285402 0.147580 0.614852
v 0.304733 0.100911 0.642295
v 0.304733 0.100911 0.614852
v 0.268110 0.189328 0.614852
v 0.322026 0.059162 0.614852
v 0.268110 0.189328 0.642295
v 0.322026 0.059162 0.642295
v 0.283821 0.146925 0.414758
v 0.283333 0.146723 0.387482
v 0.303152 0.100256 0.414758
v 0.303152 0.100256 0.385246
v 0.264779 0.189068 0.388782
v 0.320840 0.057552 0.385246
v 0.266132 0.189629 0.414758
v 0.320840 0.057552 0.414758
v 0.284703 0.147290 0.302049
v 0.284703 0.147290 0.269385
v 0.304034 0.100621 0.302049
v 0.304034 0.100621 0.269385
v 0.266411 0.191450 0.269385
v 0.322326 0.056461 0.269385
v 0.266411 0.191450 0.302049
v 0.322326 0.056461 0.302049
v 0.285878 0.147777 0.186514
v 0.285878 0.147777 0.156348
v 0.305209 0.101108 0.186514
v 0.305209 0.101108 0.156348
v 0.268065 0.190783 0.156348
v 0.323023 0.058101 0.156348
v 0.268065 0.190783 0.186514
v 0.323023 0.058101 0.186514
v 0.105000 0.297907 0.187364
v 0.105000 0.297907 0.155498
v 0.151669 0.278576 0.187364
v 0.151669 0.278576 0.155498
v 0.105000 0.297907 0.301473
v 0.105000 0.297907 0.269960
v 0.151669 0.278576 0.301473
v 0.151669 0.278576 0.269960
v 0.105000 0.297907 0.415566
v 0.105000 0.297907 0.384438
v 0.151669 0.278576 0.415566
v 0.151669 0.278576 0.384438
v 0.105000 0.297907 0.644334
v 0.105000 0.297907 0.612814
v 0.151669 0.278576 0.644334
v 0.151669 0.278576 0.612814
v 0.105000 0.297907 0.530880
v 0.105000 0.297907 0.497696
v 0.151669 0.278576 0.530880
v 0.151669 0.278576 0.497696
v 0.105000 0.297907 0.757818
v 0.105000 0.297907 0.727900
v 0.151669 0.278576 0.757818
v 0.151669 0.278576 0.727900
v 0.062108 0.315674 0.727900
v 0.194560 0.260810 0.727900
v 0.062108 0.315674 0.757818
v 0.194560 0.260810 0.757818
v 0.061368 0.315980 0.612814
v 0.195300 0.260504 0.612814
v 0.061368 0.315980 0.644334
v 0.195300 0.260504 0.644334
v 0.060599 0.316299 0.497696
v 0.196069 0.260185 0.497696
v 0.060599 0.316298 0.530880
v 0.196069 0.260185 0.530880
v 0.061549 0.315905 0.384438
v 0.195119 0.260579 0.384438
v 0.061549 0.315905 0.415566
v 0.195119 0.260579 0.415566
v 0.061371 0.315979 0.269960
v 0.195297 0.260505 0.269960
v 0.061371 0.315979 0.301473
v 0.195297 0.260505 0.301473
v 0.061208 0.316046 0.155498
v 0.195460 0.260437 0.155498
v 0.061208 0.316046 0.187364
v 0.195460 0.260437 0.187364
v -0.142105 0.279690 0.300690
v -0.141903 0.279202 0.272979
v -0.095436 0.299021 0.300690
v -0.095234 0.298533 0.272979
v -0.142105 0.279690 0.414945
v -0.142105 0.279690 0.385060
v -0.095436 0.299021 0.414945
v -0.095436 0.299021 0.385060
v -0.142105 0.279690 0.528047
v -0.142105 0.279690 0.500529
v -0.095436 0.299021 0.528047
v -0.095436 0.299021 0.500529
v -0.142105 0.279690 0.760454
v -0.142105 0.279690 0.725265
v -0.095436 0.299021 0.760454
v -0.095436 0.299021 0.725265
v -0.187431 0.260915 0.725265
v -0.050110 0.317796 0.725265
v -0.187431 0.260915 0.760454
v -0.050110 0.317796 0.760454
v -0.183888 0.262383 0.500529
v -0.053653 0.316328 0.500529
v -0.183888 0.262383 0.528047
v -0.053653 0.316328 0.528047
v -0.184981 0.261930 0.385060
v -0.052560 0.316781 0.385060
v -0.184981 0.261930 0.414945
v -0.052560 0.316781 0.414945
v -0.185010 0.261918 0.270743
v -0.052531 0.316793 0.270743
v -0.185010 0.261918 0.300690
v -0.052531 0.316793 0.300690
v -0.292715 0.099781 0.186620
v -0.292715 0.099781 0.156241
v -0.273384 0.146450 0.186620
v -0.273384 0.146450 0.156241
v -0.292715 0.099781 0.300971
v -0.292715 0.099781 0.270462
v -0.273384 0.146450 0.300971
v -0.273384 0.146450 0.270462
v -0.292715 0.099781 0.413535
v -0.292715 0.099781 0.386469
v -0.273384 0.146450 0.413535
v -0.273384 0.146450 0.386469
v -0.292715 0.099781 0.528764
v -0.292715 0.099781 0.499812
v -0.273384 0.146450 0.528764
v -0.273384 0.146450 0.499812
v -0.310297 0.057335 0.499812
v -0.255803 0.188896 0.499812
v -0.310297 0.057335 0.528764
v -0.255803 0.188896 0.528764
v -0.309936 0.058207 0.386469
v -0.256164 0.188024 0.386469
v -0.309936 0.058207 0.413535
v -0.256164 0.188024 0.413535
v -0.310595 0.056617 0.270462
v -0.255505 0.189614 0.270462
v -0.310595 0.056617 0.300971
v -0.255505 0.189614 0.300971
v -0.310570 0.056676 0.156241
v -0.255530 0.189555 0.156241
v -0.310570 0.056676 0.186620
v -0.255530 0.189555 0.186620
v -0.274659 -0.146741 0.186910
v -0.274659 -0.146741 0.155952
v -0.293990 -0.100072 0.186910
v -0.293990 -0.100072 0.155952
v -0.274659 -0.146741 0.416712
v -0.274659 -0.146741 0.383293
v -0.293990 -0.100072 0.416712
v -0.293990 -0.100072 0.383293
v -0.274659 -0.146741 0.527434
v -0.274659 -0.146741 0.501142
v -0.293990 -0.100072 0.527434
v -0.293990 -0.100072 0.501142
v -0.274659 -0.146741 0.758416
v -0.274659 -0.146741 0.727303
v -0.293990 -0.100072 0.758416
v -0.293990 -0.100072 0.727303
v -0.256664 -0.190185 0.727303
v -0.311985 -0.056629 0.727303
v -0.256664 -0.190185 0.758416
v -0.311985 -0.056629 0.758416
v -0.257587 -0.187958 0.501142
v -0.311063 -0.058856 0.501142
v -0.257587 -0.187958 0.527434
v -0.311063 -0.058856 0.527434
v -0.256223 -0.191250 0.383293
v -0.312426 -0.055564 0.383293
v -0.256223 -0.191250 0.416711
v -0.312426 -0.055564 0.416712
v -0.256694 -0.190113 0.155952
v -0.311956 -0.056701 0.155952
v -0.256694 -0.190113 0.186910
v -0.311956 -0.056701 0.186910
v -0.094088 -0.296239 0.186707
v -0.094088 -0.296239 0.156155
v -0.140757 -0.276908 0.186707
v -0.140757 -0.276908 0.156155
v -0.094088 -0.296239 0.298822
v -0.094088 -0.296239 0.272611
v -0.140757 -0.276908 0.298822
v -0.140757 -0.276908 0.272611
v -0.094088 -0.296239 0.415499
v -0.094088 -0.296239 0.384505
v -0.140757 -0.276908 0.415499
v -0.140757 -0.276908 0.384505
v -0.094088 -0.296239 0.641781
v -0.094088 -0.296239 0.615367
v -0.140757 -0.276908 0.641781
v -0.140757 -0.276908 0.615367
v -0.047419 -0.315570 0.495240
v -0.094088 -0.296239 0.495240
v -0.140757 -0.276908 0.495240
v -0.187426 -0.257577 0.495240
v -0.047419 -0.315570 0.533336
v -0.094088 -0.296239 0.533336
v -0.140757 -0.276908 0.533336
v -0.187426 -0.257577 0.533336
v -0.094088 -0.296239 0.757227
v -0.094088 -0.296239 0.728492
v -0.140757 -0.276908 0.757227
v -0.140757 -0.276908 0.728492
v -0.052814 -0.313335 0.615367
v -0.182030 -0.259812 0.615367
v -0.052814 -0.313335 0.641781
v -0.182030 -0.259812 0.641781
v -0.051742 -0.313779 0.728492
v -0.183102 -0.259368 0.728492
v -0.051742 -0.313779 0.757227
v -0.183102 -0.259368 0.757227
v -0.050699 -0.314211 0.384505
v -0.184145 -0.258936 0.384505
v -0.050699 -0.314211 0.415499
v -0.184145 -0.258936 0.415499
v -0.052909 -0.313296 0.272611
v -0.181935 -0.259851 0.272611
v -0.052909 -0.313296 0.298822
v -0.181935 -0.259851 0.298822
v -0.050903 -0.314127 0.156155
v -0.183941 -0.259021 0.156155
v -0.050903 -0.314127 0.186707
v -0.183941 -0.259021 0.186707
v 0.298089 -0.131583 0.221677
v 0.298134 -0.130356 0.172734
v 0.297814 -0.134439 0.337269
v 0.297639 -0.133347 0.292490
v 0.318397 -0.070860 0.166785
v 0.273595 -0.179148 0.166833
v 0.318338 -0.071388 0.212382
v 0.273531 -0.179672 0.212485
v 0.274312 -0.179288 0.322060
v 0.274380 -0.178815 0.280479
v 0.291939 -0.141853 0.462096
v 0.294533 -0.138278 0.410163
v 0.318250 -0.073737 0.388979
v 0.318506 -0.074940 0.435978
v 0.271440 -0.183722 0.389890
v 0.270186 -0.185372 0.437475
v 0.128139 -0.304225 0.284448
v 0.128394 -0.306697 0.329959
v 0.127627 -0.299106 0.169513
v 0.127806 -0.301466 0.216556
v 0.179932 -0.272040 0.165185
v 0.071594 -0.316922 0.165205
v 0.071675 -0.317879 0.209759
v 0.179997 -0.273009 0.209719
v 0.179902 -0.276001 0.318239
v 0.072489 -0.320510 0.318314
v 0.072413 -0.319606 0.275254
v 0.179850 -0.275079 0.275214
v 0.155567 -0.302902 0.426328
v 0.181730 -0.300820 0.496299
v 0.073602 -0.320880 0.389968
v 0.074264 -0.320523 0.435083
v 0.195735 -0.274759 0.399434
v 0.206861 -0.273012 0.456440
v 0.295238 -0.128603 0.337562
v 0.295063 -0.127510 0.292782
v 0.314766 -0.069341 0.322060
v 0.314825 -0.068861 0.280508
v 0.099390 -0.308093 0.167350
v 0.099524 -0.309750 0.213144
v 0.100142 -0.313705 0.324119
v 0.099970 -0.312020 0.279842
v 0.114180 -0.312023 0.408287
v 0.127482 -0.310862 0.465805
v 0.111144 -0.304870 0.648904
v 0.103714 -0.302873 0.688649
v 0.150684 -0.293995 0.672365
v 0.131499 -0.292390 0.702854
v 0.075065 -0.314633 0.627598
v 0.074412 -0.313814 0.673592
v 0.137517 -0.307992 0.546099
v 0.129630 -0.306199 0.588436
v 0.075575 -0.319150 0.504965
v 0.202927 -0.296142 0.589614
v 0.182636 -0.294710 0.622054
v 0.074791 -0.318046 0.553585
v 0.312599 -0.074212 0.502253
v 0.285720 -0.137510 0.530716
v 0.286886 -0.126235 0.576000
v 0.290481 -0.099453 0.687088
v 0.289393 -0.110817 0.641738
v 0.312383 -0.072418 0.551981
v 0.310812 -0.069770 0.623740
v 0.310676 -0.068045 0.673518
vn -0.1217 0.2937 0.9481
vn 0.9239 0.3827 -0.0000
vn 0.9271 0.3735 0.0307
vn 0.9258 0.3780 0.0086
vn 0.2071 0.0981 0.9734
vn 0.3827 0.9239 -0.0000
vn -0.3877 0.9217 0.0085
vn -0.3826 0.9238 0.0164
vn -0.3776 0.9259 0.0085
vn -0.3827 0.9239 -0.0000
vn -0.9239 0.3827 -0.0000
vn -0.9239 -0.3827 -0.0000
vn -0.3827 -0.9239 -0.0000
vn 0.8892 -0.4575 -0.0094
vn 0.9471 -0.3208 -0.0049
vn 0.8922 -0.4515 -0.0073
vn 0.9346 -0.3555 0.0049
vn 0.8906 -0.4546 0.0106
vn 0.2587 -0.9649 -0.0459
vn 0.4971 -0.8670 -0.0350
vn 0.4668 -0.8837 -0.0334
vn 0.2944 -0.9547 -0.0423
vn 0.5620 -0.8153 -0.1395
vn 0.2125 -0.9763 -0.0420
vn 0.9482 -0.3176 -0.0071
vn 0.2001 -0.9797 -0.0128
vn 0.2940 -0.9554 -0.0283
vn 0.2573 -0.9659 -0.0294
vn 0.2296 -0.9636 0.1365
vn 0.2721 -0.9606 0.0571
vn 0.1339 -0.9866 0.0931
vn 0.1635 -0.9854 0.0469
vn 0.9193 -0.3911 0.0446
vn 0.8763 -0.4784 0.0570
vn -0.3709 0.8954 0.2463
vn -0.9191 -0.3922 0.0374
vn -0.9217 -0.3877 0.0093
vn 0.8314 0.3608 -0.4226
vn 0.3772 -0.9261 0.0092
vn 0.3826 -0.9237 0.0190
vn 0.3881 -0.9216 0.0092
vn 0.3827 -0.9239 -0.0000
vn 0.9239 -0.3827 -0.0000
vn -0.8892 0.4575 0.0094
vn -0.9470 0.3212 0.0049
vn -0.8924 0.4511 0.0073
vn -0.9346 0.3557 -0.0049
vn -0.8908 0.4544 -0.0106
vn -0.2614 0.9641 0.0459
vn -0.4959 0.8677 0.0350
vn -0.4662 0.8841 0.0334
vn -0.2958 0.9543 0.0423
vn -0.5583 0.8178 0.1393
vn -0.2169 0.9753 0.0423
vn -0.9482 0.3176 0.0071
vn -0.2001 0.9797 0.0127
vn -0.2940 0.9554 0.0283
vn -0.2573 0.9659 0.0294
vn -0.2294 0.9637 -0.1364
vn -0.2723 0.9605 -0.0572
vn -0.1339 0.9866 -0.0930
vn -0.1636 0.9854 -0.0470
vn -0.9193 0.3911 -0.0446
vn -0.8763 0.4784 -0.0571
vn -0.0000 -0.0000 1.0000
vn -0.0000 -0.0000 -1.0000
vn -0.2123 -0.0879 0.9732
vn 0.0879 -0.2123 0.9732
vn -0.4576 -0.8889 -0.0199
vn 0.0388 0.0870 0.9955
vn -0.0393 -0.1011 0.9941
vn -0.3210 -0.9470 -0.0114
vn 0.4514 0.8923 0.0109
vn -0.0569 -0.1346 -0.9893
vn 0.0650 0.1563 -0.9856
vn 0.1236 0.2600 -0.9577
vn 0.4576 0.8891 0.0109
vn -0.0966 -0.2077 0.9734
vn -0.3555 -0.9344 -0.0220
vn 0.4537 0.8901 0.0428
vn 0.1067 0.2754 0.9554
vn -0.1249 -0.3184 -0.9397
vn -0.1673 -0.3317 0.9284
vn 0.2028 0.4059 -0.8912
vn 0.0836 -0.0000 0.9965
vn -0.0616 -0.0520 0.9967
vn 0.9558 0.2940 0.0046
vn -0.8845 -0.4665 -0.0088
vn -0.1217 -0.0179 -0.9924
vn 0.1030 0.0651 -0.9926
vn -0.1940 -0.0535 -0.9795
vn 0.1864 0.0843 -0.9788
vn 0.9663 0.2573 0.0037
vn -0.8680 -0.4965 -0.0096
vn 0.1584 0.0360 0.9867
vn -0.1456 -0.0727 0.9867
vn 0.9796 0.2003 -0.0160
vn -0.7981 -0.5770 0.1734
vn 0.4830 0.1465 0.8633
vn -0.6976 -0.3113 -0.6453
vn -0.3928 -0.0971 0.9145
vn 0.4813 0.1220 -0.8680
vn 0.3177 0.9479 0.0219
vn -0.0831 -0.2265 -0.9705
vn -0.3177 -0.9481 -0.0114
vn 0.0684 0.1823 0.9809
vn -0.0590 -0.0600 0.9965
vn 0.1001 0.0750 -0.9921
vn 0.1817 0.1026 -0.9780
vn -0.1412 -0.0884 0.9860
vn -0.3767 -0.1650 0.9115
vn 0.4594 0.2191 -0.8608
vn -0.8219 -0.2670 -0.5031
vn 0.9619 0.2731 0.0088
vn -0.4898 -0.0688 0.8691
vn 0.4368 0.0426 -0.8986
vn -0.4999 -0.0250 0.8657
vn 0.4500 -0.0001 -0.8930
vn -0.5465 -0.0405 0.8365
vn -0.8397 -0.1628 -0.5180
vn 0.9863 0.1643 0.0122
vn 0.5292 0.0302 -0.8479
vn -0.5503 -0.0134 0.8348
vn 0.5337 0.0032 -0.8457
vn 0.1117 0.3677 0.9232
vn 0.3903 0.8910 -0.2319
vn 0.4782 0.8491 -0.2242
vn -0.3926 -0.9192 0.0315
vn -0.4805 -0.8765 0.0291
vn -0.1089 -0.3616 -0.9259
vn 0.1263 0.3424 0.9310
vn -0.1184 -0.3287 -0.9370
vt 0.398834 0.905022
vt 0.398834 0.924076
vt 0.397412 0.924076
vt 0.397412 0.905022
vt 0.199743 0.887510
vt 0.210616 0.887504
vt 0.210616 0.903260
vt 0.199743 0.903266
vt 0.210616 0.920608
vt 0.199743 0.920614
vt 0.210616 0.936364
vt 0.199743 0.936370
vt 0.790690 0.875220
vt 0.802291 0.875213
vt 0.802291 0.891301
vt 0.790690 0.891307
vt 0.802291 0.908649
vt 0.790690 0.908655
vt 0.802291 0.924736
vt 0.790690 0.924743
vt 0.210616 0.887510
vt 0.220968 0.887504
vt 0.220968 0.903023
vt 0.210616 0.903029
vt 0.220968 0.920371
vt 0.210616 0.920377
vt 0.220968 0.935890
vt 0.210616 0.935896
vt 0.048830 0.879828
vt 0.059962 0.879822
vt 0.059962 0.895696
vt 0.048830 0.895702
vt 0.059962 0.913044
vt 0.048830 0.913050
vt 0.059962 0.928918
vt 0.048830 0.928924
vt 0.322865 0.904940
vt 0.322865 0.887504
vt 0.324748 0.887505
vt 0.324748 0.904940
vt 0.720031 0.875219
vt 0.732352 0.875213
vt 0.732352 0.891628
vt 0.720031 0.891635
vt 0.732352 0.908976
vt 0.720031 0.908983
vt 0.732352 0.925391
vt 0.720031 0.925398
vt 0.914544 0.460764
vt 0.925924 0.460757
vt 0.925924 0.476744
vt 0.914544 0.476750
vt 0.925924 0.494092
vt 0.914544 0.494098
vt 0.925924 0.510078
vt 0.914544 0.510085
vt 0.657040 0.875213
vt 0.669060 0.875218
vt 0.669060 0.891959
vt 0.657040 0.891954
vt 0.669060 0.909800
vt 0.657040 0.909795
vt 0.669060 0.926541
vt 0.657040 0.926536
vt 0.848968 0.875213
vt 0.860855 0.875219
vt 0.860855 0.891897
vt 0.848968 0.891892
vt 0.860855 0.909738
vt 0.848968 0.909733
vt 0.860855 0.926417
vt 0.848968 0.926411
vt 0.837226 0.875213
vt 0.848968 0.875219
vt 0.848968 0.891829
vt 0.837226 0.891824
vt 0.848968 0.909670
vt 0.837226 0.909665
vt 0.848968 0.926281
vt 0.837226 0.926275
vt 0.739661 0.875213
vt 0.751551 0.875218
vt 0.751551 0.891898
vt 0.739661 0.891893
vt 0.751551 0.909739
vt 0.739661 0.909734
vt 0.751551 0.926419
vt 0.739661 0.926413
vt 0.682090 0.875213
vt 0.694607 0.875218
vt 0.694607 0.892192
vt 0.682090 0.892186
vt 0.694607 0.910033
vt 0.682090 0.910027
vt 0.694607 0.927007
vt 0.682090 0.927001
vt 0.914544 0.410117
vt 0.925830 0.410122
vt 0.925830 0.426519
vt 0.914544 0.426514
vt 0.925830 0.444360
vt 0.914544 0.444355
vt 0.925830 0.460757
vt 0.914544 0.460752
vt 0.767727 0.925546
vt 0.756433 0.925632
vt 0.756433 0.909331
vt 0.767727 0.909245
vt 0.756433 0.891600
vt 0.767727 0.891514
vt 0.756433 0.875299
vt 0.767727 0.875213
vt 0.705878 0.925524
vt 0.694607 0.925610
vt 0.694607 0.909320
vt 0.705878 0.909234
vt 0.694607 0.891589
vt 0.705878 0.891503
vt 0.694607 0.875299
vt 0.705878 0.875213
vt 0.199681 0.894568
vt 0.189303 0.894648
vt 0.189303 0.878773
vt 0.199681 0.878694
vt 0.189303 0.861042
vt 0.199681 0.860963
vt 0.189303 0.845167
vt 0.199681 0.845088
vt 0.189303 0.897261
vt 0.176032 0.897362
vt 0.176032 0.880141
vt 0.189303 0.880040
vt 0.176032 0.862410
vt 0.189303 0.862309
vt 0.176032 0.845189
vt 0.189303 0.845088
vt 0.779184 0.925061
vt 0.767727 0.924965
vt 0.767727 0.908826
vt 0.779184 0.908922
vt 0.767727 0.891352
vt 0.779184 0.891449
vt 0.767727 0.875213
vt 0.779184 0.875310
vt 0.790690 0.925107
vt 0.779184 0.925010
vt 0.779184 0.908848
vt 0.790690 0.908945
vt 0.779184 0.891375
vt 0.790690 0.891472
vt 0.779184 0.875213
vt 0.790690 0.875310
vt 0.936038 0.458809
vt 0.925830 0.458723
vt 0.925830 0.443157
vt 0.936038 0.443243
vt 0.925830 0.425683
vt 0.936038 0.425769
vt 0.925830 0.410117
vt 0.936038 0.410203
vt 0.090995 0.929616
vt 0.080076 0.929524
vt 0.080076 0.913632
vt 0.090995 0.913724
vt 0.080076 0.896158
vt 0.090995 0.896250
vt 0.080076 0.880266
vt 0.090995 0.880358
vt 0.825491 0.925279
vt 0.813814 0.925351
vt 0.813814 0.909075
vt 0.825491 0.909003
vt 0.813814 0.891562
vt 0.825491 0.891489
vt 0.813814 0.875286
vt 0.825491 0.875213
vt 0.720030 0.926132
vt 0.707426 0.926210
vt 0.707426 0.909508
vt 0.720030 0.909429
vt 0.707426 0.891994
vt 0.720030 0.891915
vt 0.707426 0.875291
vt 0.720030 0.875213
vt 0.230884 0.935952
vt 0.220968 0.936014
vt 0.220968 0.920547
vt 0.230884 0.920485
vt 0.220968 0.903033
vt 0.230884 0.902972
vt 0.220968 0.887566
vt 0.230884 0.887504
vt 0.837226 0.925333
vt 0.825491 0.925406
vt 0.825491 0.909103
vt 0.837226 0.909030
vt 0.825491 0.891589
vt 0.837226 0.891516
vt 0.825491 0.875286
vt 0.837226 0.875213
vt 0.813815 0.925718
vt 0.802291 0.925651
vt 0.802291 0.909279
vt 0.813815 0.909346
vt 0.802291 0.891586
vt 0.813815 0.891653
vt 0.802291 0.875213
vt 0.813815 0.875280
vt 0.882520 0.535777
vt 0.872634 0.535719
vt 0.872634 0.520107
vt 0.882520 0.520165
vt 0.872634 0.502414
vt 0.882520 0.502471
vt 0.872634 0.486802
vt 0.882520 0.486859
vt 0.680750 0.927042
vt 0.669060 0.926974
vt 0.669060 0.910524
vt 0.680750 0.910592
vt 0.669060 0.892830
vt 0.680750 0.892898
vt 0.669060 0.876381
vt 0.680750 0.876449
vt 0.935886 0.509804
vt 0.925924 0.509746
vt 0.925924 0.494099
vt 0.935886 0.494157
vt 0.925924 0.476405
vt 0.935886 0.476463
vt 0.925924 0.460757
vt 0.935886 0.460815
vt 0.812231 0.517242
vt 0.797863 0.517159
vt 0.797863 0.499465
vt 0.812231 0.499549
vt 0.797863 0.481772
vt 0.812231 0.481855
vt 0.797863 0.464078
vt 0.812231 0.464162
vt 0.080076 0.930131
vt 0.069238 0.930068
vt 0.069238 0.914014
vt 0.080076 0.914077
vt 0.069238 0.896320
vt 0.080076 0.896383
vt 0.069238 0.880266
vt 0.080076 0.880329
vt 0.713643 0.532277
vt 0.713643 0.512591
vt 0.730097 0.508916
vt 0.728902 0.528745
vt 0.851962 0.507541
vt 0.849808 0.484791
vt 0.866983 0.484805
vt 0.870393 0.507757
vt 0.849808 0.527871
vt 0.867004 0.527886
vt 0.721363 0.489170
vt 0.713643 0.464078
vt 0.731334 0.464366
vt 0.740936 0.490792
vt 0.713643 0.508171
vt 0.731575 0.508916
vt 0.050492 0.870902
vt 0.052155 0.862790
vt 0.069238 0.864078
vt 0.067131 0.871950
vt 0.048830 0.842882
vt 0.065011 0.843700
vt 0.070765 0.862261
vt 0.069238 0.842882
vt 0.085986 0.843728
vt 0.088428 0.863547
vt 0.070002 0.870844
vt 0.087211 0.871907
vt 0.201801 0.507587
vt 0.190441 0.491360
vt 0.211548 0.487188
vt 0.227394 0.499976
vt 0.196121 0.519245
vt 0.217389 0.514799
vt 0.216857 0.482730
vt 0.216857 0.459792
vt 0.232197 0.462899
vt 0.233354 0.486204
vt 0.190441 0.530903
vt 0.207385 0.529622
vt 0.069238 0.879427
vt 0.085994 0.880266
vt 0.048830 0.879014
vt 0.065024 0.879822
vt 0.230895 0.905753
vt 0.230884 0.891408
vt 0.242569 0.887504
vt 0.243764 0.897837
vt 0.230884 0.918788
vt 0.245007 0.908714
vt 0.642249 0.903988
vt 0.642244 0.880671
vt 0.654175 0.875213
vt 0.655009 0.894157
vt 0.642244 0.926042
vt 0.655865 0.913758
vt 0.885033 0.532913
vt 0.884761 0.505364
vt 0.902370 0.511848
vt 0.902370 0.535777
vt 0.741312 0.530689
vt 0.740936 0.512089
vt 0.758763 0.518000
vt 0.758763 0.532978
s 0
usemtl Material.001
f 4/1/1 3/2/1 102/3/1 104/4/1
f 9/5/2 11/6/2 5/7/2 6/8/2
f 6/8/2 5/7/2 7/9/2 8/10/2
f 8/10/2 7/9/2 12/11/2 10/12/2
f 17/13/2 19/14/2 13/15/2 14/16/2
f 14/16/2 13/15/2 15/17/2 16/18/2
f 16/18/2 15/17/2 20/19/2 18/20/2
f 25/21/2 27/22/2 21/23/2 22/24/2
f 22/24/2 21/23/2 23/25/2 24/26/2
f 24/26/2 23/25/2 28/27/2 26/28/2
f 33/29/3 35/30/3 29/31/3 30/32/3
f 30/32/4 29/31/4 31/33/4 32/34/4
f 32/34/2 31/33/2 36/35/2 34/36/2
f 2/37/5 1/38/5 33/39/5 30/40/5
f 41/41/2 43/42/2 37/43/2 38/44/2
f 38/44/2 37/43/2 39/45/2 40/46/2
f 40/46/2 39/45/2 44/47/2 42/48/2
f 49/49/2 51/50/2 45/51/2 46/52/2
f 46/52/2 45/51/2 47/53/2 48/54/2
f 48/54/2 47/53/2 52/55/2 50/56/2
f 97/57/6 99/58/6 53/59/6 54/60/6
f 54/60/6 53/59/6 55/61/6 56/62/6
f 56/62/6 55/61/6 100/63/6 98/64/6
f 93/65/6 95/66/6 57/67/6 58/68/6
f 58/68/6 57/67/6 59/69/6 60/70/6
f 60/70/6 59/69/6 96/71/6 94/72/6
f 89/73/6 91/74/6 61/75/6 62/76/6
f 62/76/6 61/75/6 63/77/6 64/78/6
f 64/78/6 63/77/6 92/79/6 90/80/6
f 81/81/6 83/82/6 65/83/6 66/84/6
f 66/84/6 65/83/6 67/85/6 68/86/6
f 68/86/6 67/85/6 84/87/6 82/88/6
f 85/89/6 87/90/6 69/91/6 70/92/6
f 70/92/6 69/91/6 71/93/6 72/94/6
f 72/94/6 71/93/6 88/95/6 86/96/6
f 77/97/6 79/98/6 73/99/6 74/100/6
f 74/100/6 73/99/6 75/101/6 76/102/6
f 76/102/6 75/101/6 80/103/6 78/104/6
f 129/105/7 131/106/7 101/107/7 102/108/7
f 102/108/8 101/107/8 103/109/8 104/110/8
f 104/110/9 103/109/9 132/111/9 130/112/9
f 125/113/10 127/114/10 105/115/10 106/116/10
f 106/116/10 105/115/10 107/117/10 108/118/10
f 108/118/10 107/117/10 128/119/10 126/120/10
f 121/121/10 123/122/10 109/123/10 110/124/10
f 110/124/10 109/123/10 111/125/10 112/126/10
f 112/126/10 111/125/10 124/127/10 122/128/10
f 117/129/10 119/130/10 113/131/10 114/132/10
f 114/132/10 113/131/10 115/133/10 116/134/10
f 116/134/10 115/133/10 120/135/10 118/136/10
f 161/137/11 163/138/11 133/139/11 134/140/11
f 134/140/11 133/139/11 135/141/11 136/142/11
f 136/142/11 135/141/11 164/143/11 162/144/11
f 157/145/11 159/146/11 137/147/11 138/148/11
f 138/148/11 137/147/11 139/149/11 140/150/11
f 140/150/11 139/149/11 160/151/11 158/152/11
f 153/153/11 155/154/11 141/155/11 142/156/11
f 142/156/11 141/155/11 143/157/11 144/158/11
f 144/158/11 143/157/11 156/159/11 154/160/11
f 149/161/11 151/162/11 145/163/11 146/164/11
f 146/164/11 145/163/11 147/165/11 148/166/11
f 148/166/11 147/165/11 152/167/11 150/168/11
f 193/169/12 195/170/12 165/171/12 166/172/12
f 166/172/12 165/171/12 167/173/12 168/174/12
f 168/174/12 167/173/12 196/175/12 194/176/12
f 189/177/12 191/178/12 169/179/12 170/180/12
f 170/180/12 169/179/12 171/181/12 172/182/12
f 172/182/12 171/181/12 192/183/12 190/184/12
f 185/185/12 187/186/12 173/187/12 174/188/12
f 174/188/12 173/187/12 175/189/12 176/190/12
f 176/190/12 175/189/12 188/191/12 186/192/12
f 181/193/12 183/194/12 177/195/12 178/196/12
f 178/196/12 177/195/12 179/197/12 180/198/12
f 180/198/12 179/197/12 184/199/12 182/200/12
f 241/201/13 243/202/13 197/203/13 198/204/13
f 198/204/13 197/203/13 199/205/13 200/206/13
f 200/206/13 199/205/13 244/207/13 242/208/13
f 237/209/13 239/210/13 201/211/13 202/212/13
f 202/212/13 201/211/13 203/213/13 204/214/13
f 204/214/13 203/213/13 240/215/13 238/216/13
f 233/217/13 235/218/13 205/219/13 206/220/13
f 206/220/13 205/219/13 207/221/13 208/222/13
f 208/222/13 207/221/13 236/223/13 234/224/13
f 225/225/13 227/226/13 209/227/13 210/228/13
f 210/228/13 209/227/13 211/229/13 212/230/13
f 212/230/13 211/229/13 228/231/13 226/232/13
f 213/233/13 217/234/13 218/235/13 214/236/13
f 214/236/13 218/235/13 219/237/13 215/238/13
f 215/238/13 219/237/13 220/239/13 216/240/13
f 229/241/13 231/242/13 221/243/13 222/244/13
f 222/244/13 221/243/13 223/245/13 224/246/13
f 224/246/13 223/245/13 232/247/13 230/248/13
f 254/249/14 248/250/14 247/251/14 253/252/14
f 246/253/15 249/254/15 251/255/15 245/256/15
f 250/257/16 246/253/16 245/256/16 252/258/16
f 256/259/17 257/260/17 258/261/17 255/262/17
f 259/263/18 256/259/18 255/262/18 260/264/18
f 286/265/19 261/266/19 262/267/19 285/268/19
f 261/266/20 272/269/20 269/270/20 262/267/20
f 263/271/21 265/272/21 268/273/21 264/274/21
f 283/275/22 263/271/22 264/274/22 284/276/22
f 273/277/23 277/278/23 278/279/23 274/280/23
f 287/281/24 273/277/24 274/280/24 288/282/24
f 280/283/25 282/284/25 281/285/25 279/286/25
f 275/287/26 287/281/26 288/282/26 276/288/26
f 266/289/27 283/275/27 284/276/27 267/290/27
f 271/291/28 286/265/28 285/268/28 270/292/28
f 289/293/29 291/294/29 292/295/29 290/296/29
f 293/297/30 289/293/30 290/296/30 294/298/30
f 295/299/31 298/300/31 299/301/31 296/302/31
f 297/303/32 295/299/32 296/302/32 300/304/32
f 302/305/33 301/306/33 306/307/33 303/308/33
f 305/309/34 307/310/34 308/311/34 304/312/34
f 312/1/35 412/4/35 410/3/35 311/2/35
f 317/5/12 314/8/12 313/7/12 319/6/12
f 314/8/12 316/10/12 315/9/12 313/7/12
f 316/10/12 318/12/12 320/11/12 315/9/12
f 325/13/12 322/16/12 321/15/12 327/14/12
f 322/16/12 324/18/12 323/17/12 321/15/12
f 324/18/12 326/20/12 328/19/12 323/17/12
f 333/21/12 330/24/12 329/23/12 335/22/12
f 330/24/12 332/26/12 331/25/12 329/23/12
f 332/26/12 334/28/12 336/27/12 331/25/12
f 341/29/36 338/32/36 337/31/36 343/30/36
f 338/32/37 340/34/37 339/33/37 337/31/37
f 340/34/12 342/36/12 344/35/12 339/33/12
f 310/37/38 338/40/38 341/39/38 309/38/38
f 349/41/12 346/44/12 345/43/12 351/42/12
f 346/44/12 348/46/12 347/45/12 345/43/12
f 348/46/12 350/48/12 352/47/12 347/45/12
f 357/49/12 354/52/12 353/51/12 359/50/12
f 354/52/12 356/54/12 355/53/12 353/51/12
f 356/54/12 358/56/12 360/55/12 355/53/12
f 405/57/13 362/60/13 361/59/13 407/58/13
f 362/60/13 364/62/13 363/61/13 361/59/13
f 364/62/13 406/64/13 408/63/13 363/61/13
f 401/65/13 366/68/13 365/67/13 403/66/13
f 366/68/13 368/70/13 367/69/13 365/67/13
f 368/70/13 402/72/13 404/71/13 367/69/13
f 397/73/13 370/76/13 369/75/13 399/74/13
f 370/76/13 372/78/13 371/77/13 369/75/13
f 372/78/13 398/80/13 400/79/13 371/77/13
f 389/81/13 374/84/13 373/83/13 391/82/13
f 374/84/13 376/86/13 375/85/13 373/83/13
f 376/86/13 390/88/13 392/87/13 375/85/13
f 393/89/13 378/92/13 377/91/13 395/90/13
f 378/92/13 380/94/13 379/93/13 377/91/13
f 380/94/13 394/96/13 396/95/13 379/93/13
f 385/97/13 382/100/13 381/99/13 387/98/13
f 382/100/13 384/102/13 383/101/13 381/99/13
f 384/102/13 386/104/13 388/103/13 383/101/13
f 437/105/39 410/108/39 409/107/39 439/106/39
f 410/108/40 412/110/40 411/109/40 409/107/40
f 412/110/41 438/112/41 440/111/41 411/109/41
f 433/113/42 414/116/42 413/115/42 435/114/42
f 414/116/42 416/118/42 415/117/42 413/115/42
f 416/118/42 434/120/42 436/119/42 415/117/42
f 429/121/42 418/124/42 417/123/42 431/122/42
f 418/124/42 420/126/42 419/125/42 417/123/42
f 420/126/42 430/128/42 432/127/42 419/125/42
f 425/129/42 422/132/42 421/131/42 427/130/42
f 422/132/42 424/134/42 423/133/42 421/131/42
f 424/134/42 426/136/42 428/135/42 423/133/42
f 469/137/43 442/140/43 441/139/43 471/138/43
f 442/140/43 444/142/43 443/141/43 441/139/43
f 444/142/43 470/144/43 472/143/43 443/141/43
f 465/145/43 446/148/43 445/147/43 467/146/43
f 446/148/43 448/150/43 447/149/43 445/147/43
f 448/150/43 466/152/43 468/151/43 447/149/43
f 461/153/43 450/156/43 449/155/43 463/154/43
f 450/156/43 452/158/43 451/157/43 449/155/43
f 452/158/43 462/160/43 464/159/43 451/157/43
f 457/161/43 454/164/43 453/163/43 459/162/43
f 454/164/43 456/166/43 455/165/43 453/163/43
f 456/166/43 458/168/43 460/167/43 455/165/43
f 501/169/2 474/172/2 473/171/2 503/170/2
f 474/172/2 476/174/2 475/173/2 473/171/2
f 476/174/2 502/176/2 504/175/2 475/173/2
f 497/177/2 478/180/2 477/179/2 499/178/2
f 478/180/2 480/182/2 479/181/2 477/179/2
f 480/182/2 498/184/2 500/183/2 479/181/2
f 493/185/2 482/188/2 481/187/2 495/186/2
f 482/188/2 484/190/2 483/189/2 481/187/2
f 484/190/2 494/192/2 496/191/2 483/189/2
f 489/193/2 486/196/2 485/195/2 491/194/2
f 486/196/2 488/198/2 487/197/2 485/195/2
f 488/198/2 490/200/2 492/199/2 487/197/2
f 549/201/6 506/204/6 505/203/6 551/202/6
f 506/204/6 508/206/6 507/205/6 505/203/6
f 508/206/6 550/208/6 552/207/6 507/205/6
f 545/209/6 510/212/6 509/211/6 547/210/6
f 510/212/6 512/214/6 511/213/6 509/211/6
f 512/214/6 546/216/6 548/215/6 511/213/6
f 541/217/6 514/220/6 513/219/6 543/218/6
f 514/220/6 516/222/6 515/221/6 513/219/6
f 516/222/6 542/224/6 544/223/6 515/221/6
f 533/225/6 518/228/6 517/227/6 535/226/6
f 518/228/6 520/230/6 519/229/6 517/227/6
f 520/230/6 534/232/6 536/231/6 519/229/6
f 521/233/6 522/236/6 526/235/6 525/234/6
f 522/236/6 523/238/6 527/237/6 526/235/6
f 523/238/6 524/240/6 528/239/6 527/237/6
f 537/241/6 530/244/6 529/243/6 539/242/6
f 530/244/6 532/246/6 531/245/6 529/243/6
f 532/246/6 538/248/6 540/247/6 531/245/6
f 562/249/44 561/252/44 555/251/44 556/250/44
f 554/253/45 553/256/45 559/255/45 557/254/45
f 558/257/46 560/258/46 553/256/46 554/253/46
f 564/259/47 563/262/47 566/261/47 565/260/47
f 567/263/48 568/264/48 563/262/48 564/259/48
f 594/265/49 593/268/49 570/267/49 569/266/49
f 569/266/50 570/267/50 577/270/50 580/269/50
f 571/271/51 572/274/51 576/273/51 573/272/51
f 591/275/52 592/276/52 572/274/52 571/271/52
f 581/277/53 582/280/53 586/279/53 585/278/53
f 595/281/54 596/282/54 582/280/54 581/277/54
f 588/283/55 587/286/55 589/285/55 590/284/55
f 583/287/56 584/288/56 596/282/56 595/281/56
f 574/289/57 575/290/57 592/276/57 591/275/57
f 579/291/58 578/292/58 593/268/58 594/265/58
f 597/293/59 598/296/59 600/295/59 599/294/59
f 601/297/60 602/298/60 598/296/60 597/293/60
f 603/299/61 604/302/61 607/301/61 606/300/61
f 605/303/62 608/304/62 604/302/62 603/299/62
f 610/305/63 611/308/63 614/307/63 609/306/63
f 613/309/64 612/312/64 616/311/64 615/310/64
f 1/38/12 2/37/12 310/37/12 309/38/12
f 3/2/42 4/1/42 312/1/42 311/2/42
f 9/5/65 6/8/65 314/8/65 317/5/65
f 6/8/65 8/10/65 316/10/65 314/8/65
f 8/10/65 10/12/65 318/12/65 316/10/65
f 5/7/66 11/6/66 319/6/66 313/7/66
f 7/9/66 5/7/66 313/7/66 315/9/66
f 12/11/66 7/9/66 315/9/66 320/11/66
f 11/6/42 9/5/42 317/5/42 319/6/42
f 10/12/10 12/11/10 320/11/10 318/12/10
f 17/13/65 14/16/65 322/16/65 325/13/65
f 14/16/65 16/18/65 324/18/65 322/16/65
f 16/18/65 18/20/65 326/20/65 324/18/65
f 13/15/66 19/14/66 327/14/66 321/15/66
f 15/17/66 13/15/66 321/15/66 323/17/66
f 20/19/66 15/17/66 323/17/66 328/19/66
f 19/14/42 17/13/42 325/13/42 327/14/42
f 18/20/10 20/19/10 328/19/10 326/20/10
f 25/21/65 22/24/65 330/24/65 333/21/65
f 22/24/65 24/26/65 332/26/65 330/24/65
f 24/26/65 26/28/65 334/28/65 332/26/65
f 21/23/66 27/22/66 335/22/66 329/23/66
f 23/25/66 21/23/66 329/23/66 331/25/66
f 28/27/66 23/25/66 331/25/66 336/27/66
f 27/22/42 25/21/42 333/21/42 335/22/42
f 26/28/10 28/27/10 336/27/10 334/28/10
f 30/32/67 32/34/67 340/34/67 338/32/67
f 32/34/65 34/36/65 342/36/65 340/34/65
f 29/31/66 35/30/66 343/30/66 337/31/66
f 31/33/66 29/31/66 337/31/66 339/33/66
f 36/35/66 31/33/66 339/33/66 344/35/66
f 35/30/42 33/29/42 341/29/42 343/30/42
f 34/36/10 36/35/10 344/35/10 342/36/10
f 2/37/10 30/40/10 338/40/10 310/37/10
f 33/39/42 1/38/42 309/38/42 341/39/42
f 41/41/65 38/44/65 346/44/65 349/41/65
f 38/44/65 40/46/65 348/46/65 346/44/65
f 40/46/65 42/48/65 350/48/65 348/46/65
f 37/43/66 43/42/66 351/42/66 345/43/66
f 39/45/66 37/43/66 345/43/66 347/45/66
f 44/47/66 39/45/66 347/45/66 352/47/66
f 43/42/42 41/41/42 349/41/42 351/42/42
f 42/48/10 44/47/10 352/47/10 350/48/10
f 49/49/65 46/52/65 354/52/65 357/49/65
f 46/52/65 48/54/65 356/54/65 354/52/65
f 48/54/65 50/56/65 358/56/65 356/54/65
f 45/51/66 51/50/66 359/50/66 353/51/66
f 47/53/66 45/51/66 353/51/66 355/53/66
f 52/55/66 47/53/66 355/53/66 360/55/66
f 51/50/42 49/49/42 357/49/42 359/50/42
f 50/56/10 52/55/10 360/55/10 358/56/10
f 77/97/65 74/100/65 382/100/65 385/97/65
f 74/100/65 76/102/65 384/102/65 382/100/65
f 76/102/65 78/104/65 386/104/65 384/102/65
f 73/99/66 79/98/66 387/98/66 381/99/66
f 75/101/66 73/99/66 381/99/66 383/101/66
f 80/103/66 75/101/66 383/101/66 388/103/66
f 79/98/43 77/97/43 385/97/43 387/98/43
f 78/104/11 80/103/11 388/103/11 386/104/11
f 81/81/65 66/84/65 374/84/65 389/81/65
f 66/84/65 68/86/65 376/86/65 374/84/65
f 68/86/65 82/88/65 390/88/65 376/86/65
f 65/83/66 83/82/66 391/82/66 373/83/66
f 67/85/66 65/83/66 373/83/66 375/85/66
f 84/87/66 67/85/66 375/85/66 392/87/66
f 83/82/43 81/81/43 389/81/43 391/82/43
f 82/88/11 84/87/11 392/87/11 390/88/11
f 85/89/65 70/92/65 378/92/65 393/89/65
f 70/92/65 72/94/65 380/94/65 378/92/65
f 72/94/65 86/96/65 394/96/65 380/94/65
f 69/91/66 87/90/66 395/90/66 377/91/66
f 71/93/66 69/91/66 377/91/66 379/93/66
f 88/95/66 71/93/66 379/93/66 396/95/66
f 87/90/43 85/89/43 393/89/43 395/90/43
f 86/96/11 88/95/11 396/95/11 394/96/11
f 89/73/65 62/76/65 370/76/65 397/73/65
f 62/76/65 64/78/65 372/78/65 370/76/65
f 64/78/65 90/80/65 398/80/65 372/78/65
f 61/75/66 91/74/66 399/74/66 369/75/66
f 63/77/66 61/75/66 369/75/66 371/77/66
f 92/79/66 63/77/66 371/77/66 400/79/66
f 91/74/43 89/73/43 397/73/43 399/74/43
f 90/80/11 92/79/11 400/79/11 398/80/11
f 93/65/65 58/68/65 366/68/65 401/65/65
f 58/68/65 60/70/65 368/70/65 366/68/65
f 60/70/65 94/72/65 402/72/65 368/70/65
f 57/67/66 95/66/66 403/66/66 365/67/66
f 59/69/66 57/67/66 365/67/66 367/69/66
f 96/71/66 59/69/66 367/69/66 404/71/66
f 95/66/43 93/65/43 401/65/43 403/66/43
f 94/72/11 96/71/11 404/71/11 402/72/11
f 97/57/65 54/60/65 362/60/65 405/57/65
f 54/60/65 56/62/65 364/62/65 362/60/65
f 56/62/65 98/64/65 406/64/65 364/62/65
f 53/59/66 99/58/66 407/58/66 361/59/66
f 55/61/66 53/59/66 361/59/66 363/61/66
f 100/63/66 55/61/66 363/61/66 408/63/66
f 99/58/43 97/57/43 405/57/43 407/58/43
f 98/64/11 100/63/11 408/63/11 406/64/11
f 117/129/65 114/132/65 422/132/65 425/129/65
f 114/132/65 116/134/65 424/134/65 422/132/65
f 116/134/65 118/136/65 426/136/65 424/134/65
f 113/131/66 119/130/66 427/130/66 421/131/66
f 115/133/66 113/131/66 421/131/66 423/133/66
f 120/135/66 115/133/66 423/133/66 428/135/66
f 119/130/2 117/129/2 425/129/2 427/130/2
f 118/136/12 120/135/12 428/135/12 426/136/12
f 121/121/65 110/124/65 418/124/65 429/121/65
f 110/124/65 112/126/65 420/126/65 418/124/65
f 112/126/65 122/128/65 430/128/65 420/126/65
f 109/123/66 123/122/66 431/122/66 417/123/66
f 111/125/66 109/123/66 417/123/66 419/125/66
f 124/127/66 111/125/66 419/125/66 432/127/66
f 123/122/2 121/121/2 429/121/2 431/122/2
f 122/128/12 124/127/12 432/127/12 430/128/12
f 125/113/65 106/116/65 414/116/65 433/113/65
f 106/116/65 108/118/65 416/118/65 414/116/65
f 108/118/65 126/120/65 434/120/65 416/118/65
f 105/115/66 127/114/66 435/114/66 413/115/66
f 107/117/66 105/115/66 413/115/66 415/117/66
f 128/119/66 107/117/66 415/117/66 436/119/66
f 127/114/2 125/113/2 433/113/2 435/114/2
f 126/120/12 128/119/12 436/119/12 434/120/12
f 129/105/68 102/108/68 410/108/68 437/105/68
f 104/110/68 130/112/68 438/112/68 412/110/68
f 101/107/66 131/106/66 439/106/66 409/107/66
f 103/109/66 101/107/66 409/107/66 411/109/66
f 132/111/66 103/109/66 411/109/66 440/111/66
f 131/106/2 129/105/2 437/105/2 439/106/2
f 130/112/12 132/111/12 440/111/12 438/112/12
f 102/3/2 3/2/2 311/2/2 410/3/2
f 4/1/12 104/4/12 412/4/12 312/1/12
f 149/161/65 146/164/65 454/164/65 457/161/65
f 146/164/65 148/166/65 456/166/65 454/164/65
f 148/166/65 150/168/65 458/168/65 456/166/65
f 145/163/66 151/162/66 459/162/66 453/163/66
f 147/165/66 145/163/66 453/163/66 455/165/66
f 152/167/66 147/165/66 455/165/66 460/167/66
f 151/162/6 149/161/6 457/161/6 459/162/6
f 150/168/13 152/167/13 460/167/13 458/168/13
f 153/153/65 142/156/65 450/156/65 461/153/65
f 142/156/65 144/158/65 452/158/65 450/156/65
f 144/158/65 154/160/65 462/160/65 452/158/65
f 141/155/66 155/154/66 463/154/66 449/155/66
f 143/157/66 141/155/66 449/155/66 451/157/66
f 156/159/66 143/157/66 451/157/66 464/159/66
f 155/154/6 153/153/6 461/153/6 463/154/6
f 154/160/13 156/159/13 464/159/13 462/160/13
f 157/145/65 138/148/65 446/148/65 465/145/65
f 138/148/65 140/150/65 448/150/65 446/148/65
f 140/150/65 158/152/65 466/152/65 448/150/65
f 137/147/66 159/146/66 467/146/66 445/147/66
f 139/149/66 137/147/66 445/147/66 447/149/66
f 160/151/66 139/149/66 447/149/66 468/151/66
f 159/146/6 157/145/6 465/145/6 467/146/6
f 158/152/13 160/151/13 468/151/13 466/152/13
f 161/137/65 134/140/65 442/140/65 469/137/65
f 134/140/65 136/142/65 444/142/65 442/140/65
f 136/142/65 162/144/65 470/144/65 444/142/65
f 133/139/66 163/138/66 471/138/66 441/139/66
f 135/141/66 133/139/66 441/139/66 443/141/66
f 164/143/66 135/141/66 443/141/66 472/143/66
f 163/138/6 161/137/6 469/137/6 471/138/6
f 162/144/13 164/143/13 472/143/13 470/144/13
f 181/193/65 178/196/65 486/196/65 489/193/65
f 178/196/65 180/198/65 488/198/65 486/196/65
f 180/198/65 182/200/65 490/200/65 488/198/65
f 177/195/66 183/194/66 491/194/66 485/195/66
f 179/197/66 177/195/66 485/195/66 487/197/66
f 184/199/66 179/197/66 487/197/66 492/199/66
f 183/194/10 181/193/10 489/193/10 491/194/10
f 182/200/42 184/199/42 492/199/42 490/200/42
f 185/185/65 174/188/65 482/188/65 493/185/65
f 174/188/65 176/190/65 484/190/65 482/188/65
f 176/190/65 186/192/65 494/192/65 484/190/65
f 173/187/66 187/186/66 495/186/66 481/187/66
f 175/189/66 173/187/66 481/187/66 483/189/66
f 188/191/66 175/189/66 483/189/66 496/191/66
f 187/186/10 185/185/10 493/185/10 495/186/10
f 186/192/42 188/191/42 496/191/42 494/192/42
f 189/177/65 170/180/65 478/180/65 497/177/65
f 170/180/65 172/182/65 480/182/65 478/180/65
f 172/182/65 190/184/65 498/184/65 480/182/65
f 169/179/66 191/178/66 499/178/66 477/179/66
f 171/181/66 169/179/66 477/179/66 479/181/66
f 192/183/66 171/181/66 479/181/66 500/183/66
f 191/178/10 189/177/10 497/177/10 499/178/10
f 190/184/42 192/183/42 500/183/42 498/184/42
f 193/169/65 166/172/65 474/172/65 501/169/65
f 166/172/65 168/174/65 476/174/65 474/172/65
f 168/174/65 194/176/65 502/176/65 476/174/65
f 165/171/66 195/170/66 503/170/66 473/171/66
f 167/173/66 165/171/66 473/171/66 475/173/66
f 196/175/66 167/173/66 475/173/66 504/175/66
f 195/170/10 193/169/10 501/169/10 503/170/10
f 194/176/42 196/175/42 504/175/42 502/176/42
f 213/233/65 214/236/65 522/236/65 521/233/65
f 214/236/65 215/238/65 523/238/65 522/236/65
f 215/238/65 216/240/65 524/240/65 523/238/65
f 218/235/66 217/234/66 525/234/66 526/235/66
f 219/237/66 218/235/66 526/235/66 527/237/66
f 220/239/66 219/237/66 527/237/66 528/239/66
f 217/234/11 213/233/11 521/233/11 525/234/11
f 216/240/43 220/239/43 528/239/43 524/240/43
f 225/225/65 210/228/65 518/228/65 533/225/65
f 210/228/65 212/230/65 520/230/65 518/228/65
f 212/230/65 226/232/65 534/232/65 520/230/65
f 209/227/66 227/226/66 535/226/66 517/227/66
f 211/229/66 209/227/66 517/227/66 519/229/66
f 228/231/66 211/229/66 519/229/66 536/231/66
f 227/226/11 225/225/11 533/225/11 535/226/11
f 226/232/43 228/231/43 536/231/43 534/232/43
f 229/241/65 222/244/65 530/244/65 537/241/65
f 222/244/65 224/246/65 532/246/65 530/244/65
f 224/246/65 230/248/65 538/248/65 532/246/65
f 221/243/66 231/242/66 539/242/66 529/243/66
f 223/245/66 221/243/66 529/243/66 531/245/66
f 232/247/66 223/245/66 531/245/66 540/247/66
f 231/242/11 229/241/11 537/241/11 539/242/11
f 230/248/43 232/247/43 540/247/43 538/248/43
f 233/217/65 206/220/65 514/220/65 541/217/65
f 206/220/65 208/222/65 516/222/65 514/220/65
f 208/222/65 234/224/65 542/224/65 516/222/65
f 205/219/66 235/218/66 543/218/66 513/219/66
f 207/221/66 205/219/66 513/219/66 515/221/66
f 236/223/66 207/221/66 515/221/66 544/223/66
f 235/218/11 233/217/11 541/217/11 543/218/11
f 234/224/43 236/223/43 544/223/43 542/224/43
f 237/209/65 202/212/65 510/212/65 545/209/65
f 202/212/65 204/214/65 512/214/65 510/212/65
f 204/214/65 238/216/65 546/216/65 512/214/65
f 201/211/66 239/210/66 547/210/66 509/211/66
f 203/213/66 201/211/66 509/211/66 511/213/66
f 240/215/66 203/213/66 511/213/66 548/215/66
f 239/210/11 237/209/11 545/209/11 547/210/11
f 238/216/43 240/215/43 548/215/43 546/216/43
f 241/201/65 198/204/65 506/204/65 549/201/65
f 198/204/65 200/206/65 508/206/65 506/204/65
f 200/206/65 242/208/65 550/208/65 508/206/65
f 197/203/66 243/202/66 551/202/66 505/203/66
f 199/205/66 197/203/66 505/203/66 507/205/66
f 244/207/66 199/205/66 507/205/66 552/207/66
f 243/202/11 241/201/11 549/201/11 551/202/11
f 242/208/43 244/207/43 552/207/43 550/208/43
f 247/251/69 248/250/69 556/250/69 555/251/69
f 249/254/70 246/253/70 554/253/70 557/254/70
f 246/253/71 250/257/71 558/257/71 554/253/71
f 251/255/72 249/254/72 557/254/72 559/255/72
f 250/257/73 252/258/73 560/258/73 558/257/73
f 245/256/74 251/255/74 559/255/74 553/256/74
f 252/258/75 245/256/75 553/256/75 560/258/75
f 253/252/76 247/251/76 555/251/76 561/252/76
f 254/249/77 253/252/77 561/252/77 562/249/77
f 248/250/78 254/249/78 562/249/78 556/250/78
f 258/261/79 257/260/79 565/260/79 566/261/79
f 259/263/80 260/264/80 568/264/80 567/263/80
f 257/260/81 256/259/81 564/259/81 565/260/81
f 255/262/82 258/261/82 566/261/82 563/262/82
f 256/259/83 259/263/83 567/263/83 564/259/83
f 260/264/84 255/262/84 563/262/84 568/264/84
f 265/272/85 263/271/85 571/271/85 573/272/85
f 283/275/86 266/289/86 574/289/86 591/275/86
f 266/289/87 267/290/87 575/290/87 574/289/87
f 268/273/88 265/272/88 573/272/88 576/273/88
f 264/274/89 268/273/89 576/273/89 572/274/89
f 267/290/90 284/276/90 592/276/90 575/290/90
f 262/267/91 269/270/91 577/270/91 570/267/91
f 270/292/92 285/268/92 593/268/92 578/292/92
f 271/291/93 270/292/93 578/292/93 579/291/93
f 269/270/94 272/269/94 580/269/94 577/270/94
f 272/269/95 261/266/95 569/266/95 580/269/95
f 286/265/96 271/291/96 579/291/96 594/265/96
f 275/287/97 276/288/97 584/288/97 583/287/97
f 278/279/98 277/278/98 585/278/98 586/279/98
f 277/278/99 273/277/99 581/277/99 585/278/99
f 274/280/100 278/279/100 586/279/100 582/280/100
f 287/281/101 275/287/101 583/287/101 595/281/101
f 276/288/102 288/282/102 596/282/102 584/288/102
f 280/283/103 279/286/103 587/286/103 588/283/103
f 279/286/104 281/285/104 589/285/104 587/286/104
f 281/285/105 282/284/105 590/284/105 589/285/105
f 282/284/106 280/283/106 588/283/106 590/284/106
f 263/271/107 283/275/107 591/275/107 571/271/107
f 284/276/108 264/274/108 572/274/108 592/276/108
f 285/268/109 262/267/109 570/267/109 593/268/109
f 261/266/110 286/265/110 594/265/110 569/266/110
f 273/277/111 287/281/111 595/281/111 581/277/111
f 288/282/112 274/280/112 582/280/112 596/282/112
f 292/295/113 291/294/113 599/294/113 600/295/113
f 293/297/114 294/298/114 602/298/114 601/297/114
f 289/293/115 293/297/115 601/297/115 597/293/115
f 294/298/116 290/296/116 598/296/116 602/298/116
f 291/294/117 289/293/117 597/293/117 599/294/117
f 290/296/118 292/295/118 600/295/118 598/296/118
f 295/299/119 297/303/119 605/303/119 603/299/119
f 299/301/120 298/300/120 606/300/120 607/301/120
f 297/303/121 300/304/121 608/304/121 605/303/121
f 300/304/122 296/302/122 604/302/122 608/304/122
f 298/300/123 295/299/123 603/299/123 606/300/123
f 296/302/124 299/301/124 607/301/124 604/302/124
f 301/306/125 302/305/125 610/305/125 609/306/125
f 302/305/126 303/308/126 611/308/126 610/305/126
f 305/309/127 304/312/127 612/312/127 613/309/127
f 306/307/128 301/306/128 609/306/128 614/307/128
f 308/311/129 307/310/129 615/310/129 616/311/129
f 303/308/130 306/307/130 614/307/130 611/308/130
f 307/310/131 305/309/131 613/309/131 615/310/131
f 304/312/132 308/311/132 616/311/132 612/312/132
