# Blender 5.2.2 LTS
# www.blender.org
mtllib bridge_deck.mtl
o Cube.003
v -0.410000 -0.020000 0.000000
v -0.410000 -0.020000 0.000000
v -0.410000 0.780000 0.000000
v -0.410000 0.780000 0.000000
v 0.390000 -0.020000 0.000000
v 0.390000 -0.020000 0.000000
v 0.390000 0.780000 0.000000
v 0.390000 0.780000 0.000000
v 0.190000 0.780000 0.000000
v -0.010000 0.780000 0.000000
v -0.210000 0.780000 0.000000
v -0.210000 0.780000 0.055000
v -0.010000 0.780000 0.055000
v 0.190000 0.780000 0.055000
v -0.210000 -0.020000 0.000000
v -0.010000 -0.020000 0.000000
v 0.190000 -0.020000 0.000000
v 0.190000 -0.020000 0.055000
v -0.010000 -0.020000 0.055000
v -0.210000 -0.020000 0.055000
vn -0.0000 1.0000 -0.0000
vn -0.0000 -1.0000 -0.0000
vn -0.0000 -0.0000 -1.0000
vn -0.2652 -0.0000 0.9642
vn 0.2652 -0.0000 0.9642
vn -0.0000 -0.0000 1.0000
vt 0.375000 0.000000
vt 0.625000 0.000000
vt 0.625000 0.250000
vt 0.375000 0.250000
vt 0.375000 0.437500
vt 0.625000 0.437500
vt 0.625000 0.500000
vt 0.375000 0.500000
vt 0.625000 0.750000
vt 0.375000 0.750000
vt 0.375000 0.937500
vt 0.625000 0.937500
vt 0.625000 1.000000
vt 0.375000 1.000000
vt 0.312500 0.500000
vt 0.312500 0.750000
vt 0.812500 0.500000
vt 0.875000 0.500000
vt 0.875000 0.750000
vt 0.812500 0.750000
vt 0.687500 0.500000
vt 0.687500 0.750000
vt 0.750000 0.500000
vt 0.750000 0.750000
vt 0.125000 0.500000
vt 0.187500 0.500000
vt 0.187500 0.750000
vt 0.125000 0.750000
vt 0.250000 0.500000
vt 0.250000 0.750000
vt 0.625000 0.812500
vt 0.375000 0.812500
vt 0.625000 0.875000
vt 0.375000 0.875000
vt 0.625000 0.312500
vt 0.375000 0.312500
vt 0.625000 0.375000
vt 0.375000 0.375000
s 0
usemtl Material.003
f 1/1/1 2/2/1 4/3/1 3/4/1
f 9/5/1 14/6/1 8/7/1 7/8/1
f 7/8/1 8/7/1 6/9/1 5/10/1
f 15/11/2 20/12/2 2/13/2 1/14/2
f 9/15/3 7/8/3 5/10/3 17/16/3
f 12/17/4 4/18/4 2/19/4 20/20/4
f 8/7/5 14/21/5 18/22/5 6/9/5
f 14/21/6 13/23/6 19/24/6 18/22/6
f 13/23/6 12/17/6 20/20/6 19/24/6
f 3/25/3 11/26/3 15/27/3 1/28/3
f 11/26/3 10/29/3 16/30/3 15/27/3
f 10/29/3 9/15/3 17/16/3 16/30/3
f 5/10/2 6/9/2 18/31/2 17/32/2
f 17/32/2 18/31/2 19/33/2 16/34/2
f 16/34/2 19/33/2 20/12/2 15/11/2
f 3/4/1 4/3/1 12/35/1 11/36/1
f 11/36/1 12/35/1 13/37/1 10/38/1
f 10/38/1 13/37/1 14/6/1 9/5/1
