# Blender 5.2.2 LTS
# www.blender.org
mtllib house_roof.mtl
o house_roof.obj
v 0.275000 -0.361831 0.498677
v 0.278304 -0.078536 0.499715
v 0.275000 -0.217832 0.499205
v 0.381783 0.358164 0.501317
v 0.354213 0.070166 0.500261
v 0.381780 0.108332 0.500401
v 0.357133 0.067521 0.500251
v 0.381441 0.273860 0.501007
v 0.353917 0.007932 0.500032
v 0.325135 0.213537 0.500786
v 0.275000 -0.361778 0.484233
v 0.278304 -0.078483 0.485272
v 0.275000 -0.217779 0.484761
v 0.325135 0.213590 0.486343
v 0.381783 0.358217 0.486873
v 0.357133 0.067574 0.485807
v 0.354213 0.070219 0.485817
v 0.381441 0.273913 0.486564
v 0.353917 0.007985 0.485589
v 0.381780 0.108385 0.485957
v 0.285000 -0.361831 0.498677
v 0.281696 -0.069129 0.499750
v 0.285000 -0.217832 0.499205
v 0.371783 0.358164 0.501317
v 0.344213 0.070166 0.500261
v 0.371786 0.108660 0.500402
v 0.348647 0.072811 0.500270
v 0.372125 0.277494 0.501021
v 0.344510 0.011325 0.500045
v 0.315214 0.214794 0.500791
v 0.285000 -0.361778 0.484233
v 0.281696 -0.069076 0.485306
v 0.285000 -0.217779 0.484761
v 0.315214 0.214847 0.486347
v 0.371783 0.358217 0.486873
v 0.348647 0.072864 0.485827
v 0.344213 0.070219 0.485817
v 0.372125 0.277547 0.486577
v 0.344510 0.011378 0.485601
v 0.371786 0.108713 0.485958
vn -1.0000 -0.0000 -0.0000
vn 0.8805 0.4741 0.0017
vn 0.8560 -0.5170 -0.0019
vn -0.9997 0.0237 0.0001
vn 0.7310 -0.6823 -0.0025
vn 0.7528 -0.6583 -0.0024
vn 1.0000 -0.0048 -0.0000
vn 1.0000 -0.0041 -0.0000
vn 1.0000 -0.0000 -0.0000
vn -0.8825 -0.4704 -0.0017
vn -0.8402 0.5423 0.0020
vn 0.9998 0.0222 0.0001
vn -0.7405 0.6721 0.0025
vn -0.7882 0.6154 0.0023
vn -1.0000 -0.0050 -0.0000
vn -1.0000 -0.0042 -0.0000
vn -0.0000 -0.0037 1.0000
vn -0.0000 -1.0000 -0.0037
vn -0.5290 -0.8486 -0.0031
vn -0.0000 1.0000 0.0037
vn -0.0000 0.0037 -1.0000
vt 0.700000 0.750000
vt 0.700000 0.700000
vt 0.000000 0.000000
vt 0.700000 0.650000
s 0
usemtl Material.003
f 1/1/1 3/2/1 13/2/1 11/1/1
f 10/3/2 6/3/2 20/3/2 14/3/2
f 6/3/3 7/3/3 16/3/3 20/3/3
f 3/2/4 2/4/4 12/4/4 13/2/4
f 8/3/5 10/3/5 14/3/5 18/3/5
f 9/3/6 2/3/6 12/3/6 19/3/6
f 5/3/7 9/3/7 19/3/7 17/3/7
f 4/3/8 8/3/8 18/3/8 15/3/8
f 21/1/9 31/1/9 33/2/9 23/2/9
f 30/3/10 34/3/10 40/3/10 26/3/10
f 26/3/11 40/3/11 36/3/11 27/3/11
f 23/2/12 33/2/12 32/4/12 22/4/12
f 28/3/13 38/3/13 34/3/13 30/3/13
f 29/3/14 39/3/14 32/3/14 22/3/14
f 25/3/15 37/3/15 39/3/15 29/3/15
f 24/3/16 35/3/16 38/3/16 28/3/16
f 2/4/17 3/2/17 23/2/17 22/4/17
f 1/1/18 11/1/18 31/1/18 21/1/18
f 16/3/19 7/3/19 27/3/19 36/3/19
f 5/3/20 17/3/20 37/3/20 25/3/20
f 4/3/20 15/3/20 35/3/20 24/3/20
f 3/2/17 1/1/17 21/1/17 23/2/17
f 8/3/17 4/3/17 24/3/17 28/3/17
f 9/3/17 5/3/17 25/3/17 29/3/17
f 2/3/17 9/3/17 29/3/17 22/3/17
f 10/3/17 8/3/17 28/3/17 30/3/17
f 7/3/17 6/3/17 26/3/17 27/3/17
f 6/3/17 10/3/17 30/3/17 26/3/17
f 13/2/21 12/4/21 32/4/21 33/2/21
f 11/1/21 13/2/21 33/2/21 31/1/21
f 15/3/21 18/3/21 38/3/21 35/3/21
f 17/3/21 19/3/21 39/3/21 37/3/21
f 19/3/21 12/3/21 32/3/21 39/3/21
f 18/3/21 14/3/21 34/3/21 38/3/21
f 20/3/21 16/3/21 36/3/21 40/3/21
f 14/3/21 20/3/21 40/3/21 34/3/21
