# Blender 5.2.2 LTS
# www.blender.org
mtllib house_walls.mtl
o house_walls.obj
v -0.697113 -0.357121 0.001577
v -0.696464 -0.358295 0.498690
v -0.697113 0.357100 0.004196
v -0.696464 0.354629 0.501304
v 0.697113 -0.357121 0.001577
v 0.697113 0.357100 0.004196
v -0.696464 -0.356829 0.098692
v -0.696667 -0.357392 0.197024
v -0.696667 -0.357758 0.297024
v -0.696464 -0.357929 0.398690
v -0.696464 0.354995 0.401304
v -0.696667 0.355570 0.299639
v -0.696667 0.355937 0.199640
v -0.696464 0.356095 0.101306
v 0.697607 0.363113 0.199206
v 0.696464 0.356095 0.101306
v 0.696464 -0.356829 0.098692
v -0.696464 0.215986 0.004327
v -0.696667 0.073654 0.003603
v -0.696667 -0.070345 0.003075
v -0.696464 -0.216012 0.002744
v -0.695000 -0.217832 0.499205
v -0.695528 -0.071597 0.499741
v -0.695528 0.072402 0.500269
v -0.695000 0.214165 0.500789
v 0.696464 -0.216012 0.002744
v 0.696464 -0.072012 0.003272
v 0.696464 0.071987 0.003799
v 0.696464 0.215986 0.004327
v 0.695000 0.215632 0.100791
v 0.695000 0.071633 0.100263
v 0.695000 -0.072366 0.099735
v 0.695000 -0.216365 0.099207
v 0.696464 0.218801 0.200791
v 0.696464 0.074802 0.200263
v 0.696464 -0.069197 0.199735
v 0.696703 -0.212973 0.199207
v -0.420000 0.356449 0.004842
v -0.280000 0.356449 0.004842
v -0.140000 0.356449 0.004842
v 0.000000 0.356449 0.004842
v 0.140000 0.356449 0.004842
v 0.280000 0.356449 0.004842
v 0.420000 0.356449 0.004842
v 0.560000 0.356449 0.004842
v -0.695000 -0.216365 0.099207
v -0.695528 -0.070130 0.099744
v -0.695528 0.073869 0.100272
v -0.695000 0.215632 0.100791
v -0.695528 -0.216724 0.196971
v -0.695917 -0.070684 0.197701
v -0.695917 0.073315 0.198229
v -0.695528 0.215273 0.198555
v -0.695528 -0.217090 0.296970
v -0.695917 -0.071051 0.297700
v -0.695917 0.072948 0.298228
v -0.695528 0.214907 0.298554
v -0.695000 -0.217465 0.399205
v -0.695528 -0.071230 0.399742
v -0.695528 0.072769 0.400270
v -0.695000 0.214532 0.400789
v -0.560000 0.356449 0.004842
v -0.560000 0.353164 0.501298
v -0.420000 0.353164 0.501298
v -0.280000 0.353164 0.501298
v -0.140000 0.353164 0.501298
v 0.000000 0.353164 0.501298
v 0.140000 0.353164 0.501298
v 0.280000 0.363164 0.501242
v -0.560000 -0.356475 0.002229
v -0.420000 -0.356475 0.002229
v -0.280000 -0.356475 0.002229
v -0.140000 -0.356475 0.002229
v -0.000000 -0.356475 0.002229
v 0.140000 -0.356475 0.002229
v 0.280000 -0.356475 0.002229
v 0.420000 -0.356475 0.002229
v 0.560000 -0.356475 0.002229
v 0.280000 -0.356831 0.498683
v 0.140000 -0.356831 0.498695
v 0.000000 -0.356831 0.498695
v -0.140000 -0.356831 0.498695
v -0.280000 -0.356831 0.498695
v -0.420000 -0.356831 0.498695
v -0.560000 -0.356831 0.498695
v 0.560000 -0.355364 0.098698
v 0.420000 -0.355364 0.098698
v 0.280000 -0.355364 0.098698
v 0.140000 -0.355364 0.098698
v -0.000000 -0.355364 0.098698
v -0.140000 -0.355364 0.098698
v -0.280000 -0.355364 0.098698
v -0.420000 -0.355364 0.098698
v -0.560000 -0.355364 0.098698
v 0.560000 -0.355822 0.197730
v 0.420000 -0.356251 0.196459
v 0.280000 -0.356251 0.196459
v 0.140000 -0.356251 0.196459
v 0.000000 -0.356251 0.196459
v -0.140000 -0.356251 0.196459
v -0.280000 -0.356251 0.196459
v -0.420000 -0.356251 0.196459
v -0.560000 -0.356251 0.196459
v 0.420000 -0.356171 0.297822
v 0.280000 -0.356617 0.296458
v 0.140000 -0.356617 0.296458
v 0.000000 -0.356617 0.296458
v -0.140000 -0.356617 0.296458
v -0.280000 -0.356617 0.296458
v -0.420000 -0.356617 0.296458
v -0.560000 -0.356617 0.296458
v 0.280000 -0.356464 0.398686
v 0.140000 -0.356464 0.398696
v 0.000000 -0.356464 0.398696
v -0.140000 -0.356464 0.398696
v -0.280000 -0.356464 0.398696
v -0.420000 -0.356464 0.398696
v -0.560000 -0.356464 0.398696
v -0.560000 0.354631 0.101301
v -0.420000 0.354631 0.101301
v -0.280000 0.354631 0.101301
v -0.140000 0.354631 0.101301
v 0.000000 0.354631 0.101301
v 0.140000 0.354631 0.101301
v 0.280000 0.354631 0.101301
v 0.420000 0.354631 0.101301
v 0.560000 0.354631 0.101301
v -0.560000 0.354800 0.199066
v -0.420000 0.354800 0.199066
v -0.280000 0.354800 0.199066
v -0.140000 0.354800 0.199066
v 0.000000 0.354800 0.199066
v 0.140000 0.354800 0.199066
v 0.280000 0.354800 0.199066
v 0.420000 0.354800 0.199066
v 0.560000 0.354800 0.199066
v -0.560000 0.354434 0.299065
v -0.420000 0.354434 0.299065
v -0.280000 0.354434 0.299065
v -0.140000 0.354434 0.299065
v 0.000000 0.354434 0.299065
v 0.140000 0.354434 0.299065
v 0.280000 0.354434 0.299065
v 0.420000 0.354162 0.299714
v 0.560000 0.358889 0.296318
v -0.560000 0.353531 0.401299
v -0.420000 0.353531 0.401299
v -0.280000 0.353531 0.401299
v -0.140000 0.353531 0.401299
v 0.000000 0.353531 0.401299
v 0.140000 0.353531 0.401299
v 0.280000 0.353531 0.401293
v 0.420000 0.358523 0.396317
v 0.280000 0.219165 0.500789
v -0.560000 0.075166 0.500279
v -0.420000 0.075166 0.500279
v -0.280000 0.075166 0.500279
v -0.140000 0.075166 0.500279
v 0.000000 0.075166 0.500279
v 0.140000 0.075166 0.500279
v 0.280000 0.075166 0.500266
v -0.560000 -0.068833 0.499751
v -0.420000 -0.068833 0.499751
v -0.280000 -0.068833 0.499751
v -0.140000 -0.068833 0.499751
v -0.000000 -0.068833 0.499751
v 0.140000 -0.068833 0.499751
v 0.280000 -0.068833 0.499738
v 0.280000 -0.212832 0.499205
v 0.560000 0.215980 0.005792
v 0.420000 0.215980 0.005792
v 0.280000 0.215980 0.005792
v 0.140000 0.215980 0.005792
v 0.000000 0.215980 0.005792
v -0.140000 0.215980 0.005792
v -0.280000 0.215980 0.005792
v -0.420000 0.215980 0.005792
v -0.560000 0.215980 0.005792
v 0.560000 0.073915 0.004882
v 0.420000 0.074219 0.004744
v 0.280000 0.074219 0.004744
v 0.140000 0.074219 0.004744
v 0.000000 0.074219 0.004744
v -0.140000 0.074219 0.004744
v -0.280000 0.074219 0.004744
v -0.420000 0.074219 0.004744
v -0.560000 0.074219 0.004744
v 0.560000 -0.072018 0.004736
v 0.420000 -0.069938 0.004291
v 0.280000 -0.069780 0.004216
v 0.140000 -0.069780 0.004216
v -0.000000 -0.069780 0.004216
v -0.140000 -0.069780 0.004216
v -0.280000 -0.069780 0.004216
v -0.420000 -0.069780 0.004216
v -0.560000 -0.069780 0.004216
v 0.560000 -0.216017 0.004208
v 0.420000 -0.216017 0.004208
v 0.280000 -0.216017 0.004208
v 0.140000 -0.216017 0.004208
v -0.000000 -0.216017 0.004208
v -0.140000 -0.216017 0.004208
v -0.280000 -0.216017 0.004208
v -0.420000 -0.216017 0.004208
v -0.560000 -0.216017 0.004208
v 0.420000 -0.356313 0.357547
v 0.698211 -0.355847 0.140137
v 0.560000 -0.355833 0.226579
v -0.703535 -0.215986 -0.004327
v -0.702887 -0.362874 -0.004217
v -0.703333 -0.364791 0.396998
v -0.698654 -0.360484 0.494053
v -0.699880 0.214165 0.505787
v -0.700000 0.361862 0.497951
v -0.703333 0.362958 0.102998
v -0.702887 0.362895 -0.001556
v -0.560000 0.363546 -0.002203
v 0.703333 0.362958 0.102998
v 0.702887 0.362895 -0.001556
v 0.703535 0.216012 -0.002744
v 0.703333 -0.363704 0.100334
v 0.702887 -0.362874 -0.004217
v 0.560000 -0.363520 -0.004868
v -0.560000 -0.357801 0.495717
v -0.703333 -0.363704 0.100334
v -0.703535 -0.364266 0.198666
v -0.703535 -0.364633 0.298665
v -0.703333 0.361870 0.399663
v -0.703535 0.362433 0.301331
v -0.703535 0.362800 0.201332
v 0.701109 0.364140 0.201324
v 0.704287 -0.357943 0.140115
v -0.560000 -0.364845 0.100899
v -0.560000 -0.365731 0.198660
v -0.560000 -0.366098 0.298660
v -0.560000 -0.365928 0.396425
v 0.704472 -0.216373 0.101443
v -0.280000 -0.363520 -0.004868
v -0.140000 -0.363520 -0.004868
v -0.420000 -0.363520 -0.004868
v 0.560000 0.364095 0.103572
v 0.560000 0.364264 0.201337
v -0.704472 0.215624 0.103027
v -0.705000 0.215265 0.200791
v -0.705000 0.214899 0.300790
v -0.704472 0.214540 0.398553
v -0.703535 0.216012 -0.002744
v -0.703333 0.070345 -0.003075
v -0.703333 -0.073654 -0.003603
v -0.700104 -0.217832 0.494206
v -0.700000 -0.078833 0.499714
v -0.700000 0.065166 0.500242
v 0.703535 -0.215986 -0.004327
v 0.703535 -0.071987 -0.003799
v 0.703535 0.072012 -0.003272
v 0.704472 0.215624 0.103027
v 0.704472 0.071625 0.102499
v 0.704472 -0.072374 0.101971
v 0.703535 0.218801 0.200791
v 0.703535 0.074802 0.200263
v 0.703535 -0.069197 0.199735
v 0.703297 -0.212973 0.199207
v -0.560000 -0.363520 -0.004868
v 0.145000 0.358164 0.501317
v 0.280000 0.363164 0.501323
v 0.000000 0.362441 0.503906
v -0.140000 0.361876 0.504666
v -0.280000 0.362439 0.503910
v -0.704472 -0.216373 0.101443
v -0.704082 -0.074415 0.101769
v -0.704082 0.069584 0.102297
v -0.705000 -0.216732 0.199207
v -0.704472 -0.074969 0.199726
v -0.704472 0.069030 0.200254
v -0.705000 -0.217099 0.299206
v -0.704472 -0.075336 0.299726
v -0.704472 0.068664 0.300254
v -0.704472 -0.217457 0.396969
v -0.704082 -0.075500 0.397685
v -0.704082 0.068499 0.398213
v -0.420000 0.362709 0.503402
v -0.560000 0.362719 0.503380
v -0.420000 0.363546 -0.002203
v -0.280000 0.363546 -0.002203
v -0.140000 0.363546 -0.002203
v 0.000000 0.363546 -0.002203
v 0.141667 0.363343 -0.002001
v -0.560000 0.216017 -0.004208
v -0.560000 0.069780 -0.004216
v -0.560000 -0.074219 -0.004744
v -0.560000 -0.215980 -0.005792
v 0.278333 0.363343 -0.002001
v 0.418333 0.363343 -0.002001
v 0.560000 0.363546 -0.002203
v -0.000000 -0.363520 -0.004868
v 0.141667 -0.363319 -0.004665
v 0.278333 -0.363319 -0.004665
v 0.418333 -0.363319 -0.004665
v 0.280000 -0.356831 0.498677
v 0.145000 -0.361831 0.498677
v 0.000000 -0.361831 0.493677
v -0.140000 -0.361831 0.493677
v -0.280000 -0.361831 0.493677
v -0.420000 -0.359022 0.494540
v 0.560000 -0.364845 0.100899
v 0.417959 -0.364454 0.100706
v 0.277959 -0.364454 0.100706
v 0.142041 -0.364454 0.100706
v 0.000000 -0.364845 0.100899
v -0.140000 -0.364845 0.100899
v -0.280000 -0.364845 0.100899
v -0.420000 -0.364845 0.100899
v 0.420000 -0.356100 0.298515
v 0.420000 0.363898 0.301333
v 0.560000 -0.355735 0.198479
v 0.418787 -0.365582 0.198661
v 0.277764 -0.365203 0.198662
v 0.142236 -0.365203 0.198662
v -0.000000 -0.365731 0.198660
v -0.140000 -0.365731 0.198660
v -0.280000 -0.365731 0.198660
v -0.420000 -0.365731 0.198660
v 0.278787 -0.365948 0.298660
v 0.142236 -0.365570 0.298662
v -0.000000 -0.366098 0.298660
v -0.140000 -0.366098 0.298660
v -0.280000 -0.366098 0.298660
v -0.420000 -0.366098 0.298660
v 0.280000 -0.360561 0.393760
v 0.142041 -0.365539 0.396621
v -0.000000 -0.365928 0.396425
v -0.140000 -0.365928 0.396425
v -0.280000 -0.365928 0.396425
v -0.420000 -0.365928 0.396425
v -0.560000 0.364095 0.103572
v -0.420000 0.364095 0.103572
v -0.280000 0.364095 0.103572
v -0.140000 0.364095 0.103572
v 0.000000 0.364095 0.103572
v 0.142041 0.363706 0.103375
v 0.277959 0.363706 0.103375
v 0.417959 0.363706 0.103375
v -0.560000 0.364264 0.201337
v -0.420000 0.364264 0.201337
v -0.280000 0.364264 0.201337
v -0.140000 0.364264 0.201337
v 0.000000 0.364264 0.201337
v 0.142236 0.363736 0.201335
v 0.277764 0.363736 0.201335
v 0.418787 0.364115 0.201336
v -0.560000 0.363898 0.301336
v -0.420000 0.363898 0.301336
v -0.280000 0.363898 0.301336
v -0.140000 0.363898 0.301336
v 0.000000 0.363898 0.301336
v 0.142236 0.363370 0.301334
v 0.278787 0.363748 0.301336
v 0.560000 0.363898 0.301327
v -0.560000 0.363011 0.399098
v -0.420000 0.363011 0.399098
v -0.280000 0.363011 0.399098
v -0.140000 0.363011 0.399098
v -0.000000 0.363011 0.399098
v 0.142041 0.362621 0.399291
v 0.280000 0.363437 0.400351
v 0.420000 0.363531 0.401325
v 0.145000 0.214165 0.500789
v 0.280000 0.219165 0.500789
v -0.560000 0.065166 0.500242
v -0.420000 0.065166 0.500242
v -0.280000 0.065166 0.500242
v -0.140000 0.065166 0.500242
v 0.000000 0.065166 0.500242
v 0.143536 0.066631 0.500248
v 0.280000 0.075166 0.500246
v -0.560000 -0.078833 0.499714
v -0.420000 -0.078833 0.499714
v -0.280000 -0.078833 0.499714
v -0.140000 -0.078833 0.499714
v 0.000000 -0.078833 0.499714
v 0.143536 -0.077368 0.499720
v 0.280000 -0.068833 0.499721
v 0.145000 -0.217832 0.499205
v 0.280000 -0.212832 0.499205
v 0.560000 0.216017 -0.004208
v 0.417764 0.216015 -0.003680
v 0.277764 0.216015 -0.003680
v 0.142236 0.216015 -0.003680
v 0.000000 0.216017 -0.004208
v -0.140000 0.216017 -0.004208
v -0.280000 0.216017 -0.004208
v -0.420000 0.216017 -0.004208
v 0.560000 0.072422 -0.004718
v 0.417959 0.069973 -0.003826
v 0.277959 0.069973 -0.003826
v 0.142041 0.069973 -0.003826
v 0.000000 0.069780 -0.004216
v -0.140000 0.069780 -0.004216
v -0.280000 0.069780 -0.004216
v -0.420000 0.069780 -0.004216
v 0.560000 -0.071981 -0.005264
v 0.417767 -0.071789 -0.004733
v 0.277959 -0.074026 -0.004354
v 0.142041 -0.074026 -0.004354
v -0.000000 -0.074219 -0.004744
v -0.140000 -0.074219 -0.004744
v -0.280000 -0.074219 -0.004744
v -0.420000 -0.074219 -0.004744
v 0.560000 -0.215980 -0.005792
v 0.417764 -0.215982 -0.005264
v 0.277764 -0.215982 -0.005264
v 0.142236 -0.215982 -0.005264
v -0.000000 -0.215980 -0.005792
v -0.140000 -0.215980 -0.005792
v -0.280000 -0.215980 -0.005792
v -0.420000 -0.215980 -0.005792
v 0.420000 -0.356313 0.357514
v 0.560000 -0.355833 0.226538
v 0.376783 0.363164 0.501335
v 0.349213 0.075166 0.500279
v 0.420000 0.353268 0.472966
v 0.376322 0.353154 0.504164
v 0.352890 0.065166 0.500242
v -0.696464 0.214205 0.489880
v -0.697113 0.355320 0.489749
v -0.560000 -0.358255 0.487781
v -0.697113 -0.358902 0.487130
v -0.696464 -0.217792 0.488296
v -0.696464 -0.073793 0.488824
v -0.696464 0.070206 0.489352
v 0.140000 0.354669 0.490395
v 0.280000 0.358199 0.491873
v 0.000000 0.354669 0.490395
v -0.140000 0.354669 0.490395
v -0.280000 0.354669 0.490395
v -0.420000 0.354669 0.490395
v -0.560000 0.354669 0.490395
v 0.280000 -0.358255 0.487781
v 0.140000 -0.358255 0.487781
v 0.000000 -0.358255 0.487781
v -0.140000 -0.358255 0.487781
v -0.280000 -0.358255 0.487781
v -0.420000 -0.358255 0.487781
v -0.560000 0.214200 0.491345
v -0.420000 0.214200 0.491345
v -0.280000 0.214200 0.491345
v -0.140000 0.214200 0.491345
v 0.000000 0.214200 0.491345
v 0.140000 0.214200 0.491345
v 0.280000 0.214200 0.491345
v -0.560000 0.070201 0.490817
v -0.420000 0.070201 0.490817
v -0.280000 0.070201 0.490817
v -0.140000 0.070201 0.490817
v 0.000000 0.070201 0.490817
v 0.140000 0.070201 0.490817
v 0.280000 0.070201 0.490817
v -0.560000 -0.073798 0.490289
v -0.420000 -0.073798 0.490289
v -0.280000 -0.073798 0.490289
v -0.140000 -0.073798 0.490289
v 0.000000 -0.073798 0.490289
v 0.140000 -0.073798 0.490289
v 0.280000 -0.073798 0.490289
v -0.560000 -0.217797 0.489761
v -0.420000 -0.217797 0.489761
v -0.280000 -0.217797 0.489761
v -0.140000 -0.217797 0.489761
v 0.000000 -0.217797 0.489761
v 0.140000 -0.217797 0.489761
v 0.280000 -0.217797 0.489761
v 0.376783 0.363217 0.486891
v 0.352890 0.065219 0.485799
v 0.349213 0.075219 0.485835
v -0.702887 -0.362874 -0.004217
v -0.703535 -0.365366 0.498664
v -0.702887 0.362895 -0.001556
v -0.703535 0.361700 0.501329
v 0.702887 -0.362874 -0.004217
v 0.702887 0.362895 -0.001556
v -0.703535 -0.363900 0.098666
v -0.703333 -0.364070 0.200333
v -0.703333 -0.364437 0.300332
v -0.703535 -0.365000 0.398664
v -0.703535 0.362067 0.401330
v -0.703333 0.362225 0.302997
v -0.703333 0.362591 0.202997
v -0.703535 0.363166 0.101332
v 0.702393 0.355416 0.203431
v 0.703535 0.363166 0.101332
v 0.703535 -0.363900 0.098666
v -0.703535 0.216012 -0.002744
v -0.703333 0.070345 -0.003075
v -0.703333 -0.073654 -0.003603
v -0.703535 -0.215986 -0.004327
v -0.705000 -0.217832 0.499205
v -0.704472 -0.076069 0.499724
v -0.704472 0.067930 0.500252
v -0.705000 0.214165 0.500789
v 0.703535 -0.215986 -0.004327
v 0.703535 -0.071987 -0.003799
v 0.703535 0.072012 -0.003272
v 0.703535 0.216012 -0.002744
v 0.705000 0.215632 0.100791
v 0.705000 0.071633 0.100263
v 0.705000 -0.072366 0.099735
v 0.705000 -0.216365 0.099207
v 0.703535 0.211730 0.200791
v 0.703535 0.067731 0.200263
v 0.703535 -0.076268 0.199735
v 0.703297 -0.220491 0.199207
v -0.420000 0.363546 -0.002203
v -0.280000 0.363546 -0.002203
v -0.140000 0.363546 -0.002203
v 0.000000 0.363546 -0.002203
v 0.140000 0.363546 -0.002203
v 0.280000 0.363546 -0.002203
v 0.420000 0.363546 -0.002203
v 0.560000 0.363546 -0.002203
v -0.705000 -0.216365 0.099207
v -0.704472 -0.074602 0.099727
v -0.704472 0.069397 0.100255
v -0.705000 0.215632 0.100791
v -0.704472 -0.216740 0.201443
v -0.704082 -0.074782 0.201768
v -0.704082 0.069218 0.202296
v -0.704472 0.215257 0.203027
v -0.704472 -0.217107 0.301442
v -0.704082 -0.075148 0.301768
v -0.704082 0.068851 0.302296
v -0.704472 0.214890 0.303026
v -0.705000 -0.217465 0.399205
v -0.704472 -0.075702 0.399725
v -0.704472 0.068297 0.400253
v -0.705000 0.214532 0.400789
v -0.560000 0.363546 -0.002203
v -0.560000 0.363164 0.501335
v -0.420000 0.363164 0.501335
v -0.280000 0.363164 0.501335
v -0.140000 0.363164 0.501335
v 0.000000 0.363164 0.501335
v 0.140000 0.363164 0.501335
v 0.280000 0.353165 0.501391
v -0.560000 -0.363520 -0.004868
v -0.420000 -0.363520 -0.004868
v -0.280000 -0.363520 -0.004868
v -0.140000 -0.363520 -0.004868
v -0.000000 -0.363520 -0.004868
v 0.140000 -0.363520 -0.004868
v 0.280000 -0.363520 -0.004868
v 0.420000 -0.363520 -0.004868
v 0.560000 -0.363520 -0.004868
v 0.280000 -0.366831 0.498671
v 0.140000 -0.366831 0.498658
v 0.000000 -0.366831 0.498658
v -0.140000 -0.366831 0.498658
v -0.280000 -0.366831 0.498658
v -0.420000 -0.366831 0.498658
v -0.560000 -0.366831 0.498658
v 0.560000 -0.365364 0.098661
v 0.420000 -0.365364 0.098661
v 0.280000 -0.365364 0.098661
v 0.140000 -0.365364 0.098661
v -0.000000 -0.365364 0.098661
v -0.140000 -0.365364 0.098661
v -0.280000 -0.365364 0.098661
v -0.420000 -0.365364 0.098661
v -0.560000 -0.365364 0.098661
v 0.560000 -0.365640 0.199628
v 0.420000 -0.365211 0.200898
v 0.280000 -0.365211 0.200898
v 0.140000 -0.365211 0.200898
v -0.000000 -0.365211 0.200898
v -0.140000 -0.365211 0.200898
v -0.280000 -0.365211 0.200898
v -0.420000 -0.365211 0.200898
v -0.560000 -0.365211 0.200898
v 0.420000 -0.366024 0.299534
v 0.280000 -0.365578 0.300898
v 0.140000 -0.365578 0.300898
v -0.000000 -0.365578 0.300898
v -0.140000 -0.365578 0.300898
v -0.280000 -0.365578 0.300898
v -0.420000 -0.365578 0.300898
v -0.560000 -0.365578 0.300898
v 0.280000 -0.366464 0.398668
v 0.140000 -0.366464 0.398659
v 0.000000 -0.366464 0.398659
v -0.140000 -0.366464 0.398659
v -0.280000 -0.366464 0.398659
v -0.420000 -0.366464 0.398659
v -0.560000 -0.366464 0.398659
v -0.560000 0.364631 0.101338
v -0.420000 0.364631 0.101338
v -0.280000 0.364631 0.101338
v -0.140000 0.364631 0.101338
v 0.000000 0.364631 0.101338
v 0.140000 0.364631 0.101338
v 0.280000 0.364631 0.101338
v 0.420000 0.364631 0.101338
v 0.560000 0.364631 0.101338
v -0.560000 0.363728 0.203571
v -0.420000 0.363728 0.203571
v -0.280000 0.363728 0.203571
v -0.140000 0.363728 0.203571
v -0.000000 0.363728 0.203571
v 0.140000 0.363728 0.203571
v 0.280000 0.363728 0.203571
v 0.420000 0.363728 0.203571
v 0.560000 0.363728 0.203571
v -0.560000 0.363362 0.303570
v -0.420000 0.363362 0.303570
v -0.280000 0.363362 0.303570
v -0.140000 0.363362 0.303570
v -0.000000 0.363362 0.303570
v 0.140000 0.363362 0.303570
v 0.280000 0.363362 0.303570
v 0.420000 0.363633 0.302922
v 0.560000 0.358906 0.306318
v -0.560000 0.363531 0.401336
v -0.420000 0.363531 0.401336
v -0.280000 0.363531 0.401336
v -0.140000 0.363531 0.401336
v 0.000000 0.363531 0.401336
v 0.140000 0.363531 0.401336
v 0.280000 0.363531 0.401342
v 0.420000 0.358539 0.406317
v 0.280000 0.209165 0.500789
v -0.560000 0.065166 0.500242
v -0.420000 0.065166 0.500242
v -0.280000 0.065166 0.500242
v -0.140000 0.065166 0.500242
v -0.000000 0.065166 0.500242
v 0.140000 0.065166 0.500242
v 0.280000 0.065166 0.500255
v -0.560000 -0.078833 0.499714
v -0.420000 -0.078833 0.499714
v -0.280000 -0.078833 0.499714
v -0.140000 -0.078833 0.499714
v 0.000000 -0.078833 0.499714
v 0.140000 -0.078833 0.499714
v 0.280000 -0.078833 0.499727
v 0.280000 -0.222832 0.499205
v 0.560000 0.216017 -0.004208
v 0.420000 0.216017 -0.004208
v 0.280000 0.216017 -0.004208
v 0.140000 0.216017 -0.004208
v 0.000000 0.216017 -0.004208
v -0.140000 0.216017 -0.004208
v -0.280000 0.216017 -0.004208
v -0.420000 0.216017 -0.004208
v -0.560000 0.216017 -0.004208
v 0.560000 0.070084 -0.004354
v 0.420000 0.069780 -0.004216
v 0.280000 0.069780 -0.004216
v 0.140000 0.069780 -0.004216
v -0.000000 0.069780 -0.004216
v -0.140000 0.069780 -0.004216
v -0.280000 0.069780 -0.004216
v -0.420000 0.069780 -0.004216
v -0.560000 0.069780 -0.004216
v 0.560000 -0.071981 -0.005264
v 0.420000 -0.074061 -0.004819
v 0.280000 -0.074219 -0.004744
v 0.140000 -0.074219 -0.004744
v 0.000000 -0.074219 -0.004744
v -0.140000 -0.074219 -0.004744
v -0.280000 -0.074219 -0.004744
v -0.420000 -0.074219 -0.004744
v -0.560000 -0.074219 -0.004744
v 0.560000 -0.215980 -0.005792
v 0.420000 -0.215980 -0.005792
v 0.280000 -0.215980 -0.005792
v 0.140000 -0.215980 -0.005792
v -0.000000 -0.215980 -0.005792
v -0.140000 -0.215980 -0.005792
v -0.280000 -0.215980 -0.005792
v -0.420000 -0.215980 -0.005792
v -0.560000 -0.215980 -0.005792
v 0.420000 -0.366313 0.357534
v 0.701789 -0.365185 0.140124
v 0.560000 -0.365833 0.226565
v -0.696464 -0.216012 0.002744
v -0.697113 -0.357121 0.001577
v -0.696667 -0.358137 0.400356
v -0.701346 -0.363177 0.503300
v -0.700120 0.214165 0.495790
v -0.700000 0.354467 0.504682
v -0.696667 0.356304 0.099640
v -0.697113 0.357100 0.004196
v -0.560000 0.356449 0.004842
v 0.696667 0.356304 0.099640
v 0.697113 0.357100 0.004196
v 0.696464 0.215986 0.004327
v 0.696667 -0.357025 0.097025
v 0.697113 -0.357121 0.001577
v 0.560000 -0.356475 0.002229
v -0.560000 -0.365861 0.501636
v -0.696667 -0.357025 0.097025
v -0.696464 -0.357195 0.198692
v -0.696464 -0.357562 0.298691
v -0.696667 0.355192 0.402972
v -0.696464 0.355362 0.301305
v -0.696464 0.355729 0.201306
v 0.698891 0.354389 0.201313
v 0.695713 -0.363089 0.140146
v -0.560000 -0.355884 0.096460
v -0.560000 -0.355731 0.198697
v -0.560000 -0.356098 0.298696
v -0.560000 -0.357000 0.400930
v 0.695528 -0.216357 0.096971
v -0.280000 -0.356475 0.002229
v -0.140000 -0.356475 0.002229
v -0.420000 -0.356475 0.002229
v 0.560000 0.355167 0.099067
v 0.560000 0.354264 0.201300
v -0.695528 0.215640 0.098555
v -0.695000 0.215265 0.200791
v -0.695000 0.214899 0.300790
v -0.695528 0.214524 0.403025
v -0.696464 0.215986 0.004327
v -0.696667 0.073654 0.003603
v -0.696667 -0.070345 0.003075
v -0.699896 -0.217832 0.504204
v -0.700000 -0.068833 0.499751
v -0.700000 0.075166 0.500279
v 0.696464 -0.216012 0.002744
v 0.696464 -0.072012 0.003272
v 0.696464 0.071987 0.003799
v 0.695528 0.215640 0.098555
v 0.695528 0.071641 0.098027
v 0.695528 -0.072358 0.097499
v 0.696464 0.211730 0.200791
v 0.696464 0.067731 0.200263
v 0.696464 -0.076268 0.199735
v 0.696703 -0.220491 0.199207
v -0.560000 -0.356475 0.002229
v 0.135000 0.358164 0.501317
v 0.280000 0.353164 0.501310
v 0.000000 0.353887 0.498727
v -0.140000 0.354452 0.497967
v -0.280000 0.353890 0.498723
v -0.695528 -0.216357 0.096971
v -0.695917 -0.070317 0.097702
v -0.695917 0.073682 0.098230
v -0.695000 -0.216732 0.199207
v -0.695528 -0.070497 0.199743
v -0.695528 0.073502 0.200271
v -0.695000 -0.217099 0.299206
v -0.695528 -0.070863 0.299742
v -0.695528 0.073136 0.300270
v -0.695528 -0.217473 0.401441
v -0.695917 -0.071432 0.401782
v -0.695917 0.072567 0.402310
v -0.420000 0.353620 0.499231
v -0.560000 0.353610 0.499253
v -0.420000 0.356449 0.004842
v -0.280000 0.356449 0.004842
v -0.140000 0.356449 0.004842
v 0.000000 0.356449 0.004842
v 0.138333 0.356652 0.004641
v -0.560000 0.215980 0.005792
v -0.560000 0.074219 0.004744
v -0.560000 -0.069780 0.004216
v -0.560000 -0.216017 0.004208
v 0.281667 0.356652 0.004641
v 0.421667 0.356652 0.004641
v 0.560000 0.356449 0.004842
v -0.000000 -0.356475 0.002229
v 0.138333 -0.356677 0.002026
v 0.281667 -0.356677 0.002026
v 0.421667 -0.356677 0.002026
v 0.280000 -0.366831 0.498677
v 0.135000 -0.361831 0.498677
v 0.000000 -0.361831 0.503677
v -0.140000 -0.361831 0.503677
v -0.280000 -0.361831 0.503677
v -0.420000 -0.364640 0.502813
v 0.560000 -0.355884 0.096460
v 0.422041 -0.356274 0.096653
v 0.282041 -0.356274 0.096653
v 0.137959 -0.356274 0.096653
v -0.000000 -0.355884 0.096460
v -0.140000 -0.355884 0.096460
v -0.280000 -0.355884 0.096460
v -0.420000 -0.355884 0.096460
v 0.420000 -0.366095 0.298841
v 0.420000 0.353898 0.301303
v 0.560000 -0.365727 0.198878
v 0.421213 -0.355880 0.198697
v 0.282236 -0.356259 0.198695
v 0.137764 -0.356259 0.198695
v -0.000000 -0.355731 0.198697
v -0.140000 -0.355731 0.198697
v -0.280000 -0.355731 0.198697
v -0.420000 -0.355731 0.198697
v 0.281213 -0.356247 0.298696
v 0.137764 -0.356625 0.298694
v -0.000000 -0.356098 0.298696
v -0.140000 -0.356098 0.298696
v -0.280000 -0.356098 0.298696
v -0.420000 -0.356098 0.298696
v 0.280000 -0.362368 0.403595
v 0.137959 -0.357389 0.400734
v 0.000000 -0.357000 0.400930
v -0.140000 -0.357000 0.400930
v -0.280000 -0.357000 0.400930
v -0.420000 -0.357000 0.400930
v -0.560000 0.355167 0.099067
v -0.420000 0.355167 0.099067
v -0.280000 0.355167 0.099067
v -0.140000 0.355167 0.099067
v -0.000000 0.355167 0.099067
v 0.137959 0.355556 0.099263
v 0.282041 0.355556 0.099263
v 0.422041 0.355556 0.099263
v -0.560000 0.354264 0.201300
v -0.420000 0.354264 0.201300
v -0.280000 0.354264 0.201300
v -0.140000 0.354264 0.201300
v 0.000000 0.354264 0.201300
v 0.137764 0.354792 0.201302
v 0.282236 0.354792 0.201302
v 0.421213 0.354414 0.201301
v -0.560000 0.353898 0.301300
v -0.420000 0.353898 0.301300
v -0.280000 0.353898 0.301300
v -0.140000 0.353898 0.301300
v 0.000000 0.353898 0.301300
v 0.137764 0.354426 0.301302
v 0.281213 0.354047 0.301300
v 0.560000 0.353898 0.301309
v -0.560000 0.354051 0.403537
v -0.420000 0.354051 0.403537
v -0.280000 0.354051 0.403537
v -0.140000 0.354051 0.403537
v 0.000000 0.354051 0.403537
v 0.137959 0.354441 0.403344
v 0.280000 0.353625 0.402283
v 0.420000 0.353531 0.401310
v 0.135000 0.214165 0.500789
v 0.280000 0.209165 0.500789
v -0.560000 0.075166 0.500279
v -0.420000 0.075166 0.500279
v -0.280000 0.075166 0.500279
v -0.140000 0.075166 0.500279
v -0.000000 0.075166 0.500279
v 0.136464 0.073702 0.500274
v 0.280000 0.065166 0.500275
v -0.560000 -0.068833 0.499751
v -0.420000 -0.068833 0.499751
v -0.280000 -0.068833 0.499751
v -0.140000 -0.068833 0.499751
v 0.000000 -0.068833 0.499751
v 0.136464 -0.070297 0.499746
v 0.280000 -0.078833 0.499744
v 0.135000 -0.217832 0.499205
v 0.280000 -0.222832 0.499205
v 0.560000 0.215980 0.005792
v 0.422236 0.215982 0.005264
v 0.282236 0.215982 0.005264
v 0.137764 0.215982 0.005264
v 0.000000 0.215980 0.005792
v -0.140000 0.215980 0.005792
v -0.280000 0.215980 0.005792
v -0.420000 0.215980 0.005792
v 0.560000 0.071577 0.005246
v 0.422041 0.074026 0.004354
v 0.282041 0.074026 0.004354
v 0.137959 0.074026 0.004354
v -0.000000 0.074219 0.004744
v -0.140000 0.074219 0.004744
v -0.280000 0.074219 0.004744
v -0.420000 0.074219 0.004744
v 0.560000 -0.072018 0.004736
v 0.422233 -0.072210 0.004205
v 0.282041 -0.069973 0.003826
v 0.137959 -0.069973 0.003826
v -0.000000 -0.069780 0.004216
v -0.140000 -0.069780 0.004216
v -0.280000 -0.069780 0.004216
v -0.420000 -0.069780 0.004216
v 0.560000 -0.216017 0.004208
v 0.422236 -0.216015 0.003680
v 0.282236 -0.216015 0.003680
v 0.137764 -0.216015 0.003680
v -0.000000 -0.216017 0.004208
v -0.140000 -0.216017 0.004208
v -0.280000 -0.216017 0.004208
v -0.420000 -0.216017 0.004208
v 0.420000 -0.366313 0.357567
v 0.560000 -0.365833 0.226606
v 0.376783 0.353164 0.501298
v 0.349213 0.065166 0.500242
v 0.420000 0.363268 0.473002
v 0.376322 0.363154 0.504200
v 0.352890 0.075166 0.500279
v -0.703535 0.214231 0.482809
v -0.702887 0.361115 0.483997
v -0.560000 -0.365300 0.480684
v -0.702887 -0.364654 0.481336
v -0.703535 -0.217766 0.481225
v -0.703535 -0.073767 0.481753
v -0.703535 0.070232 0.482281
v 0.140000 0.361766 0.483350
v 0.280000 0.358236 0.481873
v 0.000000 0.361766 0.483350
v -0.140000 0.361766 0.483350
v -0.280000 0.361766 0.483350
v -0.420000 0.361766 0.483350
v -0.560000 0.361766 0.483350
v 0.280000 -0.365300 0.480684
v 0.140000 -0.365300 0.480684
v 0.000000 -0.365300 0.480684
v -0.140000 -0.365300 0.480684
v -0.280000 -0.365300 0.480684
v -0.420000 -0.365300 0.480684
v -0.560000 0.214237 0.481345
v -0.420000 0.214237 0.481345
v -0.280000 0.214237 0.481345
v -0.140000 0.214237 0.481345
v 0.000000 0.214237 0.481345
v 0.140000 0.214237 0.481345
v 0.280000 0.214237 0.481345
v -0.560000 0.070238 0.480817
v -0.420000 0.070238 0.480817
v -0.280000 0.070238 0.480817
v -0.140000 0.070238 0.480817
v 0.000000 0.070238 0.480817
v 0.140000 0.070238 0.480817
v 0.280000 0.070238 0.480817
v -0.560000 -0.073761 0.480289
v -0.420000 -0.073761 0.480289
v -0.280000 -0.073761 0.480289
v -0.140000 -0.073761 0.480289
v 0.000000 -0.073761 0.480289
v 0.140000 -0.073761 0.480289
v 0.280000 -0.073761 0.480289
v -0.560000 -0.217761 0.479761
v -0.420000 -0.217761 0.479761
v -0.280000 -0.217761 0.479761
v -0.140000 -0.217761 0.479761
v 0.000000 -0.217761 0.479761
v 0.140000 -0.217761 0.479761
v 0.280000 -0.217761 0.479761
v 0.376783 0.353217 0.486854
v 0.352890 0.075219 0.485835
v 0.349213 0.065219 0.485799
vn 0.9999 0.0104 -0.0000
vn -0.0000 -0.0037 1.0000
vn -0.0107 0.9999 0.0037
vn 0.0077 -0.0112 0.9999
vn -0.0077 0.9999 -0.0072
vn -0.0095 0.9999 0.0074
vn -0.0083 1.0000 0.0037
vn -0.0095 1.0000 0.0001
vn -0.9999 -0.0074 -0.0109
vn -0.9996 -0.0157 0.0249
vn 0.0077 -0.9999 -0.0146
vn 0.0356 -0.9987 0.0365
vn 0.0602 -0.9973 0.0419
vn 0.9999 0.0075 -0.0109
vn 1.0000 0.0092 0.0037
vn 1.0000 0.0081 -0.0000
vn 1.0000 0.0093 -0.0035
vn 1.0000 -0.0093 -0.0036
vn 1.0000 0.0032 -0.0045
vn 1.0000 -0.0000 -0.0038
vn 1.0000 -0.0032 -0.0045
vn 1.0000 -0.0081 -0.0000
vn 1.0000 0.0027 -0.0000
vn 1.0000 -0.0000 -0.0000
vn 1.0000 -0.0027 -0.0000
vn 1.0000 -0.0093 0.0037
vn 1.0000 0.0031 0.0047
vn 1.0000 -0.0000 0.0040
vn 1.0000 -0.0032 0.0047
vn 0.9999 -0.0074 -0.0109
vn 0.9999 0.0025 -0.0135
vn 0.9999 -0.0000 -0.0118
vn 0.9999 -0.0025 -0.0135
vn -0.0083 -0.0037 1.0000
vn -0.0016 -0.0021 1.0000
vn -0.0003 -0.0003 1.0000
vn -0.0000 -0.0001 1.0000
vn -0.9999 0.0092 0.0127
vn -0.9999 -0.0001 0.0146
vn -0.9999 -0.0009 0.0159
vn -0.9999 0.0075 -0.0109
vn -0.9999 0.0001 -0.0152
vn 0.0077 0.0038 1.0000
vn 0.0093 -0.0050 0.9999
vn 0.0093 -0.0023 1.0000
vn 0.0107 -0.0037 0.9999
vn -0.0095 -0.0012 1.0000
vn 0.9999 -0.0104 -0.0000
vn 1.0000 0.0036 -0.0000
vn 1.0000 -0.0037 -0.0000
vn -0.0003 -0.0034 1.0000
vn -0.0021 -0.0021 1.0000
vn -0.0095 -0.0062 0.9999
vn -0.0000 -0.0074 1.0000
vn -0.0005 -0.0069 1.0000
vn -0.0077 0.0038 1.0000
vn -0.0000 0.0068 1.0000
vn -0.0095 -0.9999 -0.0072
vn -0.0000 -1.0000 -0.0088
vn 0.0171 -0.9997 0.0174
vn 0.0348 -0.9984 0.0451
vn -0.0083 -1.0000 -0.0037
vn -0.0000 -1.0000 -0.0037
vn -0.0010 -1.0000 -0.0050
vn -0.0095 -1.0000 -0.0000
vn -0.0000 -1.0000 0.0017
vn -0.0077 -0.9999 -0.0146
vn -0.0000 -0.9998 -0.0188
vn -0.0021 1.0000 -0.0001
vn -0.0000 1.0000 -0.0015
vn -0.0029 1.0000 -0.0005
vn -0.0016 1.0000 0.0014
vn -0.0000 1.0000 0.0037
vn 0.0046 1.0000 -0.0038
vn -0.0016 1.0000 0.0068
vn -0.0000 1.0000 0.0091
vn 0.0077 0.9999 -0.0072
vn -0.0000 0.9999 -0.0115
vn -0.0077 -0.0112 0.9999
vn -0.0000 -0.0141 0.9999
vn -0.0107 -0.9999 -0.0037
vn 0.0357 -0.9983 0.0463
vn 0.0389 -0.9946 0.0959
vn 0.0007 0.0036 -1.0000
vn 0.0004 0.0035 -1.0000
vn -0.0012 1.0000 -0.0016
vn -0.0014 1.0000 -0.0016
vn -0.9992 0.0043 0.0385
vn 0.0027 0.0037 -1.0000
vn 0.0052 -0.9980 0.0631
vn 0.0074 -0.0035 -1.0000
vn -0.0062 -0.9999 -0.0103
vn -0.0091 -0.9999 -0.0074
vn -0.0102 -0.9999 -0.0037
vn -0.0091 -1.0000 0.0001
vn 1.0000 -0.0061 -0.0066
vn 1.0000 -0.0009 0.0017
vn -0.0000 0.0037 -1.0000
vn 0.0062 1.0000 -0.0029
vn 0.0044 1.0000 -0.0068
vn 0.0009 1.0000 0.0037
vn -1.0000 0.0061 -0.0066
vn -1.0000 0.0088 -0.0037
vn -1.0000 0.0099 -0.0000
vn -1.0000 0.0088 0.0038
vn -1.0000 -0.0088 0.0037
vn -1.0000 0.0032 0.0047
vn -1.0000 -0.0000 0.0040
vn -1.0000 -0.0032 0.0047
vn -1.0000 -0.0099 -0.0000
vn -1.0000 0.0037 -0.0000
vn -1.0000 -0.0000 -0.0000
vn -1.0000 -0.0036 -0.0000
vn -1.0000 -0.0088 -0.0038
vn -1.0000 0.0032 -0.0047
vn -1.0000 -0.0000 -0.0040
vn -1.0000 -0.0031 -0.0047
vn -1.0000 -0.0061 -0.0066
vn -1.0000 0.0021 -0.0080
vn -1.0000 -0.0000 -0.0071
vn -1.0000 -0.0020 -0.0080
vn -0.0079 0.0037 -1.0000
vn -0.0037 0.0037 -1.0000
vn -0.0014 0.0050 -1.0000
vn -0.0000 0.0064 -1.0000
vn 0.0032 0.0069 -1.0000
vn -0.0000 0.0074 -1.0000
vn 0.9998 0.0122 0.0158
vn 1.0000 -0.0000 0.0096
vn 0.9999 -0.0009 0.0108
vn 1.0000 0.0061 -0.0066
vn 1.0000 -0.0000 -0.0089
vn 0.0074 0.0109 -0.9999
vn 0.0101 0.0036 -0.9999
vn 0.0101 0.0037 -0.9999
vn 0.0102 0.0037 -0.9999
vn -0.0091 0.0062 -0.9999
vn -0.9989 -0.0089 0.0467
vn -0.9991 0.0008 0.0424
vn -0.9992 -0.0001 0.0400
vn -0.9991 -0.0017 0.0414
vn -0.0050 0.0051 -1.0000
vn -0.0091 0.0012 -1.0000
vn -0.0000 0.0001 -1.0000
vn 0.0032 0.0005 -1.0000
vn -0.0000 0.0010 -1.0000
vn -0.0050 0.0023 -1.0000
vn -0.0074 0.0109 -0.9999
vn -0.0000 0.0136 -0.9999
vn 0.0026 0.0125 -0.9999
vn -0.0000 0.0114 -0.9999
vn -0.0026 0.0125 -0.9999
vn -0.0427 0.9786 -0.2014
vn 0.0105 0.9458 0.3245
vn -0.0933 -0.9752 0.2007
vn -0.0000 0.8550 0.5186
vn -0.0306 0.9791 -0.2013
vn -0.0030 -0.8803 0.4745
vn -0.0069 0.9193 0.3936
vn 0.0031 -0.8802 0.4746
vn -0.0181 0.9946 0.1023
vn -0.0098 -0.9073 0.4204
vn 0.9681 0.0095 0.2505
vn 0.0267 -0.9255 0.3778
vn 0.9682 -0.0056 0.2501
vn -0.0118 -0.8243 0.5661
vn -0.0091 0.9999 0.0074
vn 0.0032 1.0000 0.0084
vn -0.0044 1.0000 0.0054
vn -0.0009 1.0000 0.0034
vn -0.0102 0.9999 0.0037
vn 0.0037 1.0000 0.0037
vn -0.0014 1.0000 0.0018
vn -0.0019 1.0000 0.0010
vn -0.0005 1.0000 0.0029
vn -0.0091 1.0000 -0.0001
vn -0.0000 1.0000 -0.0017
vn 0.0032 1.0000 -0.0010
vn -0.0000 1.0000 -0.0003
vn -0.0013 1.0000 -0.0022
vn -0.0019 1.0000 -0.0029
vn -0.0062 1.0000 -0.0029
vn -0.0000 1.0000 -0.0052
vn 0.0021 1.0000 -0.0043
vn -0.0000 1.0000 -0.0034
vn -0.0021 1.0000 -0.0043
vn 0.0543 -0.9980 0.0331
vn 0.0170 -0.9995 0.0280
vn 0.0032 -1.0000 0.0010
vn 0.0544 -0.9959 0.0725
vn 0.0335 -0.9985 0.0433
vn -0.0014 -1.0000 -0.0056
vn 0.0037 -1.0000 -0.0037
vn 0.0183 -0.9940 0.1075
vn 0.0333 -0.9986 0.0406
vn -0.0013 -1.0000 -0.0096
vn -0.0000 -1.0000 -0.0076
vn 0.0032 -1.0000 -0.0084
vn -0.0000 -1.0000 -0.0091
vn 0.0062 -0.9999 -0.0103
vn -0.0021 -0.9999 -0.0117
vn -0.0000 -0.9999 -0.0108
vn 0.0021 -0.9999 -0.0117
vn -0.0000 -0.9999 -0.0125
vn 0.9513 -0.0011 0.3083
vn -0.0001 -0.8503 0.5263
vn 0.9205 -0.0087 0.3906
vn -0.0018 -0.8590 0.5120
vn -0.0074 -0.0035 -1.0000
vn -0.0000 -0.0063 -1.0000
vn 0.0026 -0.0052 -1.0000
vn -0.0000 -0.0041 -1.0000
vn -0.0026 -0.0052 -1.0000
vn 0.0369 -0.9987 0.0354
vn 0.0006 -0.9992 0.0391
vn -0.0000 -0.9991 0.0421
vn -0.0098 -0.9984 0.0562
vn -0.0040 -0.9971 0.0759
vn -0.0071 1.0000 0.0016
vn -0.0000 1.0000 0.0029
vn 0.0010 1.0000 0.0042
vn 0.0020 1.0000 0.0081
vn -0.0020 1.0000 0.0081
vn 0.0165 0.9996 0.0241
vn -0.0214 0.9995 0.0236
vn -0.0007 1.0000 0.0027
vn -0.0001 -0.0037 1.0000
vn -0.0009 0.0040 -1.0000
vn 0.0045 -1.0000 -0.0050
vn 0.0047 -1.0000 -0.0064
vn -0.0575 0.9925 -0.1082
vn -1.0000 -0.0000 -0.0031
vn 0.2151 0.8342 0.5078
vn -0.0612 -0.3795 0.9232
vn 0.4490 -0.6368 0.6268
vn 0.3612 -0.7916 0.4928
vn 0.2579 -0.9548 0.1482
vn 0.4521 -0.6307 0.6307
vn -0.1967 0.0027 0.9805
vn 0.3553 -0.9291 0.1025
vn 0.6520 -0.1240 -0.7480
vn 0.1849 -0.7577 0.6258
vn 1.0000 -0.0000 -0.0006
vn -1.0000 -0.0000 0.0026
vn 1.0000 -0.0000 -0.0047
vn -1.0000 -0.0000 0.0027
vn -1.0000 -0.0000 0.0043
vn 0.9273 0.0009 0.3744
vn -0.0127 0.9971 0.0744
vn 0.0044 0.9998 0.0212
vn -0.0982 -0.9851 -0.1411
vn -0.0107 -0.0037 0.9999
vn -0.0053 0.0015 1.0000
vn -0.0074 -0.9999 -0.0139
vn -0.0091 -1.0000 -0.0001
vn -0.0079 -1.0000 -0.0037
vn 0.9999 -0.0072 -0.0103
vn 0.9996 -0.0150 0.0238
vn 0.0074 1.0000 -0.0066
vn 0.0342 0.9985 0.0425
vn 0.0583 0.9972 0.0468
vn -0.9999 0.0072 -0.0102
vn -1.0000 0.0088 0.0036
vn -1.0000 0.0077 -0.0000
vn -1.0000 -0.0077 -0.0000
vn -1.0000 0.0027 -0.0000
vn -1.0000 -0.0027 -0.0000
vn -1.0000 -0.0088 0.0036
vn -1.0000 0.0032 0.0045
vn -1.0000 -0.0000 0.0038
vn -1.0000 -0.0032 0.0045
vn -0.9999 -0.0072 -0.0103
vn -0.9999 0.0026 -0.0126
vn -0.9999 -0.0000 -0.0110
vn -0.9999 -0.0025 -0.0126
vn -0.0016 0.0052 -1.0000
vn -0.0003 0.0071 -1.0000
vn 0.9999 0.0088 0.0134
vn 0.9999 -0.0001 0.0146
vn 0.9999 -0.0009 0.0158
vn 0.9999 0.0072 -0.0102
vn 0.9999 0.0001 -0.0141
vn 0.0089 0.0023 -1.0000
vn 0.0088 0.0050 -0.9999
vn -0.0003 0.0039 -1.0000
vn -0.0021 0.0053 -1.0000
vn -0.0005 0.0005 -1.0000
vn 0.0165 0.9996 0.0245
vn 0.0325 0.9983 0.0492
vn -0.0079 1.0000 0.0037
vn -0.0010 1.0000 0.0023
vn 0.0166 0.9996 0.0243
vn -0.0091 0.9999 0.0073
vn -0.0000 1.0000 0.0088
vn -0.0074 1.0000 -0.0066
vn -0.0000 0.9999 -0.0105
vn -0.0022 -1.0000 -0.0075
vn -0.0030 -1.0000 -0.0080
vn -0.0016 -1.0000 -0.0059
vn 0.0045 -0.9999 -0.0109
vn -0.0015 -1.0000 -0.0006
vn -0.0000 -1.0000 0.0015
vn 0.0074 -0.9999 -0.0139
vn -0.0000 -0.9998 -0.0178
vn 0.0356 0.9979 0.0535
vn 0.0318 0.9942 0.1030
vn 0.0007 -0.0037 1.0000
vn 0.0004 -0.0039 1.0000
vn -0.0012 -1.0000 -0.0088
vn -0.0014 -1.0000 -0.0088
vn 0.9992 0.0023 0.0407
vn 0.0028 -0.0037 1.0000
vn 0.0058 0.9977 0.0682
vn -0.0065 1.0000 -0.0036
vn -0.0095 0.9999 0.0072
vn -1.0000 -0.0063 -0.0073
vn -1.0000 -0.0008 0.0015
vn 0.0065 -0.9999 -0.0109
vn 0.0046 -0.9999 -0.0139
vn 0.0009 -1.0000 -0.0037
vn 1.0000 0.0064 -0.0073
vn 1.0000 0.0093 0.0036
vn 1.0000 -0.0093 0.0035
vn 1.0000 0.0031 0.0045
vn 1.0000 -0.0000 0.0038
vn 1.0000 -0.0033 0.0045
vn 1.0000 -0.0063 -0.0073
vn 1.0000 0.0021 -0.0089
vn 1.0000 -0.0000 -0.0079
vn 1.0000 -0.0020 -0.0089
vn -0.0038 -0.0037 1.0000
vn -0.0014 -0.0023 1.0000
vn -0.0000 -0.0010 1.0000
vn 0.0033 -0.0005 1.0000
vn -0.9998 0.0125 0.0159
vn -1.0000 -0.0000 0.0092
vn -0.9999 -0.0009 0.0103
vn -1.0000 0.0064 -0.0073
vn -1.0000 -0.0000 -0.0099
vn 0.0107 -0.0036 0.9999
vn 0.9990 -0.0093 0.0437
vn 0.9991 0.0023 0.0420
vn 0.9991 -0.0002 0.0416
vn 0.9990 -0.0003 0.0454
vn -0.0052 -0.0023 1.0000
vn 0.0033 -0.0069 1.0000
vn -0.0000 -0.0064 1.0000
vn -0.0052 -0.0051 1.0000
vn 0.0026 0.0056 1.0000
vn -0.0000 0.0044 1.0000
vn -0.0026 0.0056 1.0000
vn -0.0305 -0.9883 -0.1494
vn 0.0097 -0.9958 0.0912
vn -0.1062 0.9832 0.1486
vn -0.0000 -0.9888 0.1492
vn -0.0218 -0.9885 -0.1495
vn -0.0006 0.8921 0.4518
vn 0.0030 -0.9859 0.1673
vn 0.0006 0.8921 0.4519
vn -0.0175 -0.9985 0.0514
vn -0.0178 0.9462 0.3231
vn -0.9831 -0.0038 0.1833
vn 0.0303 0.9728 0.2296
vn -0.9758 0.0026 0.2185
vn 0.0087 0.9272 0.3745
vn -0.0095 -1.0000 -0.0001
vn 0.0033 -1.0000 0.0008
vn -0.0042 -1.0000 -0.0020
vn -0.0009 -1.0000 -0.0039
vn 0.0038 -1.0000 -0.0037
vn -0.0013 -1.0000 -0.0056
vn -0.0019 -1.0000 -0.0063
vn -0.0005 -1.0000 -0.0044
vn 0.0033 -1.0000 -0.0082
vn -0.0000 -1.0000 -0.0075
vn -0.0014 -1.0000 -0.0093
vn -0.0020 -0.9999 -0.0100
vn -0.0065 -0.9999 -0.0109
vn -0.0000 -0.9999 -0.0136
vn 0.0021 -0.9999 -0.0126
vn -0.0000 -0.9999 -0.0116
vn -0.0021 -0.9999 -0.0126
vn 0.0558 0.9977 0.0391
vn 0.0158 0.9993 0.0333
vn 0.0033 1.0000 0.0082
vn 0.0551 0.9952 0.0808
vn 0.0340 0.9981 0.0513
vn -0.0013 1.0000 0.0018
vn 0.0038 1.0000 0.0037
vn 0.0178 0.9939 0.1088
vn 0.0341 0.9983 0.0463
vn -0.0014 1.0000 -0.0020
vn -0.0000 1.0000 -0.0002
vn 0.0033 1.0000 -0.0008
vn 0.0065 1.0000 -0.0036
vn -0.0021 1.0000 -0.0053
vn -0.0000 1.0000 -0.0043
vn 0.0021 1.0000 -0.0053
vn -0.0000 1.0000 -0.0063
vn -0.9812 -0.0007 0.1929
vn -0.0000 0.8898 0.4564
vn -0.9850 0.0020 0.1723
vn -0.0000 0.8899 0.4562
vn 0.0026 -0.0129 0.9999
vn -0.0000 -0.0118 0.9999
vn -0.0026 -0.0129 0.9999
vn 0.0342 0.9983 0.0466
vn 0.0023 0.9989 0.0462
vn -0.0000 0.9989 0.0470
vn -0.0102 0.9981 0.0608
vn -0.0047 0.9967 0.0812
vn -0.0073 -1.0000 -0.0060
vn -0.0000 -1.0000 -0.0046
vn 0.0010 -1.0000 -0.0031
vn 0.0020 -1.0000 0.0013
vn -0.0020 -1.0000 0.0013
vn 0.0169 -0.9997 0.0187
vn -0.0202 -0.9997 0.0163
vn -0.0007 -1.0000 -0.0047
vn -0.0001 0.0037 -1.0000
vn -0.0009 -0.0033 1.0000
vn 0.0045 1.0000 0.0024
vn 0.0047 1.0000 0.0011
vn -1.0000 -0.0000 -0.0002
vn -0.0577 0.9925 -0.1082
vn -1.0000 -0.0000 0.0044
vn 0.2118 0.8283 0.5187
vn -0.0611 -0.3792 0.9233
vn 0.4496 -0.6366 0.6266
vn 0.3511 -0.7926 0.4985
vn 0.2818 -0.9481 0.1471
vn -0.1955 -0.0100 0.9807
vn 0.3764 -0.9215 0.0957
vn 0.1846 -0.7578 0.6259
vn 1.0000 -0.0000 0.0002
vn -1.0000 -0.0000 -0.0026
vn -1.0000 -0.0000 -0.0048
vn 1.0000 -0.0000 0.0028
vn 1.0000 -0.0000 0.0044
vn -0.9934 0.0024 0.1144
vn -0.0115 -0.9997 0.0218
vn 0.0044 -1.0000 0.0023
vn -0.0982 0.9861 -0.1339
vn -0.0102 0.0037 -0.9999
vn -0.0052 0.0087 -0.9999
vn -0.0000 -1.0000 0.0054
vn -0.0000 -0.0024 1.0000
vn -0.0000 -0.0023 1.0000
vn -0.0000 -0.0187 -0.9998
vn -0.0000 -0.0169 -0.9999
vn 1.0000 -0.0000 0.0004
vn 1.0000 -0.0000 -0.0005
vn 0.2729 -0.0495 -0.9608
vn -0.0000 -0.0000 -1.0000
vn -0.8944 -0.0000 0.4472
vn -0.7071 -0.0000 -0.7071
vn 0.1240 -0.0000 -0.9923
vn -0.0000 -0.0025 1.0000
vn -0.0000 -1.0000 -0.0004
vn -0.0000 -0.0004 1.0000
vn 0.5812 -0.0030 0.8137
vn -0.0000 1.0000 -0.0000
vn -0.0000 -1.0000 -0.0030
vn -0.0000 0.7097 -0.7045
vn -0.0000 -0.7045 -0.7097
vt 0.575000 0.200000
vt 0.575000 0.250000
vt 0.625000 0.250000
vt 0.625000 0.200000
vt 0.250000 0.600000
vt 0.250000 0.650000
vt 0.275000 0.650000
vt 0.275000 0.600000
vt 0.575000 0.975000
vt 0.575000 1.000000
vt 0.625000 1.000000
vt 0.625000 0.975000
vt 0.350000 0.700000
vt 0.350000 0.750000
vt 0.375000 0.750000
vt 0.375000 0.700000
vt 0.375000 0.975000
vt 0.375000 1.000000
vt 0.425000 1.000000
vt 0.425000 0.975000
vt 0.475000 1.000000
vt 0.475000 0.975000
vt 0.525000 1.000000
vt 0.525000 0.975000
vt 0.425000 0.750000
vt 0.425000 0.700000
vt 0.445726 0.750000
vt 0.475000 0.700000
vt 0.225000 0.600000
vt 0.225000 0.650000
vt 0.200000 0.600000
vt 0.200000 0.650000
vt 0.375000 0.475000
vt 0.375000 0.500000
vt 0.425000 0.500000
vt 0.425000 0.475000
vt 0.475000 0.500000
vt 0.475000 0.475000
vt 0.525000 0.475000
vt 0.375000 0.200000
vt 0.375000 0.250000
vt 0.425000 0.250000
vt 0.425000 0.200000
vt 0.475000 0.250000
vt 0.475000 0.200000
vt 0.525000 0.250000
vt 0.525000 0.200000
vt 0.525000 0.000000
vt 0.525000 0.050000
vt 0.575000 0.050000
vt 0.575000 0.000000
vt 0.525000 0.100000
vt 0.575000 0.100000
vt 0.525000 0.150000
vt 0.575000 0.150000
vt 0.475000 0.000000
vt 0.475000 0.050000
vt 0.475000 0.100000
vt 0.475000 0.150000
vt 0.425000 0.000000
vt 0.425000 0.050000
vt 0.425000 0.100000
vt 0.425000 0.150000
vt 0.375000 0.000000
vt 0.375000 0.050000
vt 0.375000 0.100000
vt 0.375000 0.150000
vt 0.175000 0.600000
vt 0.175000 0.650000
vt 0.150000 0.600000
vt 0.150000 0.650000
vt 0.125000 0.600000
vt 0.125000 0.650000
vt 0.325000 0.650000
vt 0.325000 0.700000
vt 0.350000 0.650000
vt 0.300000 0.650000
vt 0.300000 0.700000
vt 0.275000 0.700000
vt 0.250000 0.700000
vt 0.225000 0.700000
vt 0.425000 0.550000
vt 0.475000 0.550000
vt 0.425000 0.600000
vt 0.475000 0.600000
vt 0.425000 0.650000
vt 0.475000 0.650000
vt 0.375000 0.550000
vt 0.375000 0.600000
vt 0.375000 0.650000
vt 0.350000 0.500000
vt 0.350000 0.550000
vt 0.350000 0.600000
vt 0.200000 0.700000
vt 0.175000 0.700000
vt 0.150000 0.700000
vt 0.125000 0.700000
vt 0.625000 0.050000
vt 0.625000 0.000000
vt 0.625000 0.100000
vt 0.625000 0.150000
vt 0.300000 0.600000
vt 0.325000 0.600000
vt 0.125000 0.550000
vt 0.150000 0.550000
vt 0.175000 0.550000
vt 0.200000 0.550000
vt 0.225000 0.550000
vt 0.250000 0.550000
vt 0.275000 0.550000
vt 0.300000 0.550000
vt 0.325000 0.550000
vt 0.125000 0.500000
vt 0.150000 0.500000
vt 0.175000 0.500000
vt 0.200000 0.500000
vt 0.225000 0.500000
vt 0.250000 0.500000
vt 0.275000 0.500000
vt 0.300000 0.500000
vt 0.325000 0.500000
vt 0.525000 0.275000
vt 0.575000 0.275000
vt 0.525000 0.300000
vt 0.575000 0.300000
vt 0.525000 0.325000
vt 0.575000 0.325000
vt 0.525000 0.350000
vt 0.575000 0.350000
vt 0.525000 0.375000
vt 0.575000 0.375000
vt 0.525000 0.400000
vt 0.575000 0.400000
vt 0.525000 0.425000
vt 0.575000 0.425000
vt 0.525000 0.450000
vt 0.575000 0.450000
vt 0.475000 0.275000
vt 0.475000 0.300000
vt 0.475000 0.325000
vt 0.475000 0.350000
vt 0.475000 0.375000
vt 0.475000 0.400000
vt 0.475000 0.425000
vt 0.475000 0.450000
vt 0.425000 0.275000
vt 0.425000 0.300000
vt 0.425000 0.325000
vt 0.425000 0.350000
vt 0.425000 0.375000
vt 0.425000 0.400000
vt 0.425000 0.425000
vt 0.425000 0.450000
vt 0.375000 0.275000
vt 0.375000 0.300000
vt 0.375000 0.325000
vt 0.375000 0.350000
vt 0.375000 0.375000
vt 0.375000 0.400000
vt 0.375000 0.425000
vt 0.375000 0.450000
vt 0.525000 0.800000
vt 0.525000 0.825000
vt 0.575000 0.825000
vt 0.554431 0.800000
vt 0.525000 0.850000
vt 0.575000 0.850000
vt 0.525000 0.875000
vt 0.575000 0.875000
vt 0.525000 0.900000
vt 0.575000 0.900000
vt 0.525000 0.925000
vt 0.575000 0.925000
vt 0.525000 0.950000
vt 0.575000 0.950000
vt 0.475000 0.775000
vt 0.475000 0.800000
vt 0.488947 0.775000
vt 0.475000 0.825000
vt 0.475000 0.850000
vt 0.475000 0.875000
vt 0.475000 0.900000
vt 0.475000 0.925000
vt 0.475000 0.950000
vt 0.425000 0.775000
vt 0.425000 0.800000
vt 0.425000 0.825000
vt 0.425000 0.850000
vt 0.425000 0.875000
vt 0.425000 0.900000
vt 0.425000 0.925000
vt 0.425000 0.950000
vt 0.375000 0.775000
vt 0.375000 0.800000
vt 0.375000 0.825000
vt 0.375000 0.850000
vt 0.375000 0.875000
vt 0.375000 0.900000
vt 0.375000 0.925000
vt 0.375000 0.950000
vt 0.125000 0.750000
vt 0.150000 0.750000
vt 0.175000 0.750000
vt 0.200000 0.750000
vt 0.225000 0.750000
vt 0.250000 0.750000
vt 0.275000 0.750000
vt 0.300000 0.750000
vt 0.325000 0.750000
vt 0.625000 0.850000
vt 0.625000 0.825000
vt 0.625000 0.875000
vt 0.625000 0.900000
vt 0.625000 0.925000
vt 0.625000 0.950000
vt 0.625000 0.275000
vt 0.625000 0.300000
vt 0.625000 0.325000
vt 0.625000 0.350000
vt 0.625000 0.375000
vt 0.625000 0.400000
vt 0.625000 0.425000
vt 0.000000 0.000000
vt 0.700000 0.650000
vt 0.700000 0.600000
vt 0.700000 0.700000
vt 0.700000 0.750000
vt 0.700000 0.550000
vt 0.700000 0.500000
vt 0.590599 0.442200
vt 0.850000 0.700000
vt 0.875000 0.700000
vt 0.875000 0.750000
vt 0.850000 0.750000
vt 0.850000 0.500000
vt 0.875000 0.500000
vt 0.875000 0.550000
vt 0.850000 0.550000
vt 0.875000 0.600000
vt 0.850000 0.600000
vt 0.875000 0.650000
vt 0.850000 0.650000
vt 0.725000 0.650000
vt 0.725000 0.700000
vt 0.750000 0.650000
vt 0.750000 0.700000
vt 0.775000 0.650000
vt 0.775000 0.700000
vt 0.800000 0.650000
vt 0.800000 0.700000
vt 0.825000 0.650000
vt 0.825000 0.700000
vt 0.725000 0.600000
vt 0.750000 0.600000
vt 0.775000 0.600000
vt 0.800000 0.600000
vt 0.825000 0.600000
vt 0.725000 0.550000
vt 0.750000 0.550000
vt 0.775000 0.550000
vt 0.800000 0.550000
vt 0.825000 0.550000
vt 0.725000 0.500000
vt 0.750000 0.500000
vt 0.775000 0.500000
vt 0.800000 0.500000
vt 0.825000 0.500000
vt 0.725000 0.750000
vt 0.750000 0.750000
vt 0.775000 0.750000
vt 0.800000 0.750000
vt 0.825000 0.750000
s 0
usemtl Material.001
f 61/1/1 11/2/1 4/3/1 25/4/1
f 183/5/2 192/6/2 191/7/2 182/8/2
f 118/9/3 10/10/3 2/11/3 85/12/3
f 197/13/4 78/14/4 5/15/4 26/16/4
f 70/17/5 1/18/5 7/19/5 94/20/5
f 94/20/6 7/19/6 8/21/6 103/22/6
f 103/22/7 8/21/7 9/23/7 111/24/7
f 111/24/8 9/23/8 10/10/8 118/9/8
f 26/16/9 5/15/9 17/25/9 33/26/9
f 33/26/10 17/25/10 207/27/10 37/28/10
f 184/29/2 193/30/2 192/6/2 183/5/2
f 185/31/2 194/32/2 193/30/2 184/29/2
f 45/33/11 6/34/11 16/35/11 127/36/11
f 127/36/12 16/35/12 15/37/12 136/38/12
f 136/38/13 15/37/13 145/39/13
f 18/40/14 3/41/14 14/42/14 49/43/14
f 49/43/15 14/42/15 13/44/15 53/45/15
f 53/45/16 13/44/16 12/46/16 57/47/16
f 57/47/17 12/46/17 11/2/17 61/1/17
f 9/48/18 54/49/18 58/50/18 10/51/18
f 54/49/19 55/52/19 59/53/19 58/50/19
f 55/52/20 56/54/20 60/55/20 59/53/20
f 56/54/21 57/47/21 61/1/21 60/55/21
f 8/56/22 50/57/22 54/49/22 9/48/22
f 50/57/23 51/58/23 55/52/23 54/49/23
f 51/58/24 52/59/24 56/54/24 55/52/24
f 52/59/25 53/45/25 57/47/25 56/54/25
f 7/60/26 46/61/26 50/57/26 8/56/26
f 46/61/27 47/62/27 51/58/27 50/57/27
f 47/62/28 48/63/28 52/59/28 51/58/28
f 48/63/29 49/43/29 53/45/29 52/59/29
f 1/64/30 21/65/30 46/61/30 7/60/30
f 21/65/31 20/66/31 47/62/31 46/61/31
f 20/66/32 19/67/32 48/63/32 47/62/32
f 19/67/33 18/40/33 49/43/33 48/63/33
f 186/68/2 195/69/2 194/32/2 185/31/2
f 187/70/2 196/71/2 195/69/2 186/68/2
f 19/72/34 20/73/34 196/71/34 187/70/34
f 189/74/35 198/75/35 197/13/35 188/76/35
f 190/77/36 199/78/36 198/75/36 189/74/36
f 191/7/37 200/79/37 199/78/37 190/77/37
f 192/6/37 201/80/37 200/79/37 191/7/37
f 193/30/37 202/81/37 201/80/37 192/6/37
f 16/35/38 30/82/38 34/83/38 15/37/38
f 30/82/39 31/84/39 35/85/39 34/83/39
f 31/84/39 32/86/39 36/87/39 35/85/39
f 32/86/40 33/26/40 37/28/40 36/87/40
f 6/34/41 29/88/41 30/82/41 16/35/41
f 29/88/42 28/89/42 31/84/42 30/82/42
f 28/89/42 27/90/42 32/86/42 31/84/42
f 27/90/42 26/16/42 33/26/42 32/86/42
f 45/91/43 170/92/43 29/88/43 6/34/43
f 170/92/44 179/93/44 28/89/44 29/88/44
f 179/93/45 188/76/45 27/90/45 28/89/45
f 188/76/46 197/13/46 26/16/46 27/90/46
f 194/32/37 203/94/37 202/81/37 193/30/37
f 195/69/37 204/95/37 203/94/37 194/32/37
f 196/71/37 205/96/37 204/95/37 195/69/37
f 20/73/47 21/97/47 205/96/47 196/71/47
f 10/51/48 58/50/48 22/98/48 2/99/48
f 58/50/49 59/53/49 23/100/49 22/98/49
f 59/53/24 60/55/24 24/101/24 23/100/24
f 60/55/50 61/1/50 25/4/50 24/101/50
f 182/8/2 191/7/2 190/77/2 181/102/2
f 181/102/51 190/77/51 189/74/51 180/103/51
f 180/103/52 189/74/52 188/76/52 179/93/52
f 18/104/53 19/72/53 187/70/53 178/105/53
f 178/105/54 187/70/54 186/68/54 177/106/54
f 177/106/54 186/68/54 185/31/54 176/107/54
f 176/107/54 185/31/54 184/29/54 175/108/54
f 175/108/54 184/29/54 183/5/54 174/109/54
f 174/109/54 183/5/54 182/8/54 173/110/54
f 173/110/54 182/8/54 181/102/54 172/111/54
f 172/111/54 181/102/54 180/103/54 171/112/54
f 171/112/55 180/103/55 179/93/55 170/92/55
f 3/113/56 18/104/56 178/105/56 62/114/56
f 62/114/57 178/105/57 177/106/57 38/115/57
f 38/115/57 177/106/57 176/107/57 39/116/57
f 39/116/57 176/107/57 175/108/57 40/117/57
f 40/117/57 175/108/57 174/109/57 41/118/57
f 41/118/57 174/109/57 173/110/57 42/119/57
f 42/119/57 173/110/57 172/111/57 43/120/57
f 43/120/57 172/111/57 171/112/57 44/121/57
f 44/121/57 171/112/57 170/92/57 45/91/57
f 12/46/58 137/122/58 146/123/58 11/2/58
f 137/122/59 138/124/59 147/125/59 146/123/59
f 138/124/59 139/126/59 148/127/59 147/125/59
f 139/126/59 140/128/59 149/129/59 148/127/59
f 140/128/59 141/130/59 150/131/59 149/129/59
f 141/130/59 142/132/59 151/133/59 150/131/59
f 142/132/59 143/134/59 152/135/59 151/133/59
f 143/134/60 144/136/60 153/137/60 152/135/60
f 144/136/61 145/39/61 153/137/61
f 13/44/62 128/138/62 137/122/62 12/46/62
f 128/138/63 129/139/63 138/124/63 137/122/63
f 129/139/63 130/140/63 139/126/63 138/124/63
f 130/140/63 131/141/63 140/128/63 139/126/63
f 131/141/63 132/142/63 141/130/63 140/128/63
f 132/142/63 133/143/63 142/132/63 141/130/63
f 133/143/63 134/144/63 143/134/63 142/132/63
f 134/144/64 135/145/64 144/136/64 143/134/64
f 135/145/60 136/38/60 145/39/60 144/136/60
f 14/42/65 119/146/65 128/138/65 13/44/65
f 119/146/66 120/147/66 129/139/66 128/138/66
f 120/147/66 121/148/66 130/140/66 129/139/66
f 121/148/66 122/149/66 131/141/66 130/140/66
f 122/149/66 123/150/66 132/142/66 131/141/66
f 123/150/66 124/151/66 133/143/66 132/142/66
f 124/151/66 125/152/66 134/144/66 133/143/66
f 125/152/66 126/153/66 135/145/66 134/144/66
f 126/153/66 127/36/66 136/38/66 135/145/66
f 3/41/67 62/154/67 119/146/67 14/42/67
f 62/154/68 38/155/68 120/147/68 119/146/68
f 38/155/68 39/156/68 121/148/68 120/147/68
f 39/156/68 40/157/68 122/149/68 121/148/68
f 40/157/68 41/158/68 123/150/68 122/149/68
f 41/158/68 42/159/68 124/151/68 123/150/68
f 42/159/68 43/160/68 125/152/68 124/151/68
f 43/160/68 44/161/68 126/153/68 125/152/68
f 44/161/68 45/33/68 127/36/68 126/153/68
f 104/162/69 105/163/69 112/164/69 206/165/69
f 105/163/70 106/166/70 113/167/70 112/164/70
f 106/166/70 107/168/70 114/169/70 113/167/70
f 107/168/70 108/170/70 115/171/70 114/169/70
f 108/170/70 109/172/70 116/173/70 115/171/70
f 109/172/70 110/174/70 117/175/70 116/173/70
f 110/174/70 111/24/70 118/9/70 117/175/70
f 95/176/71 96/177/71 104/162/71 208/178/71
f 96/177/72 97/179/72 105/163/72 104/162/72
f 97/179/73 98/180/73 106/166/73 105/163/73
f 98/180/73 99/181/73 107/168/73 106/166/73
f 99/181/73 100/182/73 108/170/73 107/168/73
f 100/182/73 101/183/73 109/172/73 108/170/73
f 101/183/73 102/184/73 110/174/73 109/172/73
f 102/184/73 103/22/73 111/24/73 110/174/73
f 17/25/74 86/185/74 95/176/74 207/27/74
f 86/185/75 87/186/75 96/177/75 95/176/75
f 87/186/76 88/187/76 97/179/76 96/177/76
f 88/187/76 89/188/76 98/180/76 97/179/76
f 89/188/76 90/189/76 99/181/76 98/180/76
f 90/189/76 91/190/76 100/182/76 99/181/76
f 91/190/76 92/191/76 101/183/76 100/182/76
f 92/191/76 93/192/76 102/184/76 101/183/76
f 93/192/76 94/20/76 103/22/76 102/184/76
f 5/15/77 78/193/77 86/185/77 17/25/77
f 78/193/78 77/194/78 87/186/78 86/185/78
f 77/194/78 76/195/78 88/187/78 87/186/78
f 76/195/78 75/196/78 89/188/78 88/187/78
f 75/196/78 74/197/78 90/189/78 89/188/78
f 74/197/78 73/198/78 91/190/78 90/189/78
f 73/198/78 72/199/78 92/191/78 91/190/78
f 72/199/78 71/200/78 93/192/78 92/191/78
f 71/200/78 70/17/78 94/20/78 93/192/78
f 21/97/79 1/201/79 70/202/79 205/96/79
f 205/96/80 70/202/80 71/203/80 204/95/80
f 204/95/80 71/203/80 72/204/80 203/94/80
f 203/94/80 72/204/80 73/205/80 202/81/80
f 202/81/80 73/205/80 74/206/80 201/80/80
f 201/80/80 74/206/80 75/207/80 200/79/80
f 200/79/80 75/207/80 76/208/80 199/78/80
f 199/78/80 76/208/80 77/209/80 198/75/80
f 198/75/80 77/209/80 78/14/80 197/13/80
f 112/164/73 113/167/73 80/210/73 79/211/73
f 113/167/73 114/169/73 81/212/73 80/210/73
f 114/169/73 115/171/73 82/213/73 81/212/73
f 115/171/73 116/173/73 83/214/73 82/213/73
f 116/173/73 117/175/73 84/215/73 83/214/73
f 117/175/73 118/9/73 85/12/73 84/215/73
f 11/2/81 146/123/81 63/216/81 4/3/81
f 146/123/63 147/125/63 64/217/63 63/216/63
f 147/125/63 148/127/63 65/218/63 64/217/63
f 148/127/63 149/129/63 66/219/63 65/218/63
f 149/129/63 150/131/63 67/220/63 66/219/63
f 150/131/63 151/133/63 68/221/63 67/220/63
f 151/133/82 152/135/82 69/222/82 68/221/82
f 152/135/83 153/137/83 69/222/83
f 111/223/84 9/223/84 54/223/84 55/223/84 56/223/84 57/223/84 12/223/84 137/223/84 138/223/84 139/223/84 140/223/84 141/223/84 142/223/84 143/223/84 144/223/84 104/223/84 105/223/84 106/223/84 107/223/84 108/223/84 109/223/84 110/223/84
f 103/223/85 8/223/85 50/223/85 51/223/85 52/223/85 53/223/85 13/223/85 128/223/85 129/223/85 130/223/85 131/223/85 132/223/85 133/223/85 134/223/85 135/223/85 136/223/85 15/223/85 95/223/85 96/223/85 97/223/85 98/223/85 99/223/85 100/223/85 101/223/85 102/223/85
f 24/223/86 155/223/86 156/223/86 157/223/86 158/223/86 159/223/86 160/223/86 161/223/86 179/223/86 180/223/86 181/223/86 182/223/86 183/223/86 184/223/86 185/223/86 186/223/86 187/223/86 19/223/86 48/223/86 52/223/86 56/223/86 60/223/86
f 23/223/87 162/223/87 163/223/87 164/223/87 165/223/87 166/223/87 167/223/87 168/223/87 189/223/87 190/223/87 191/223/87 192/223/87 193/223/87 194/223/87 195/223/87 196/223/87 20/223/87 47/223/87 51/223/87 55/223/87 59/223/87
f 246/1/88 213/4/88 214/3/88 228/2/88
f 397/5/89 396/8/89 404/7/89 405/6/89
f 236/9/90 224/12/90 212/11/90 211/10/90
f 409/13/91 253/16/91 222/15/91 223/14/91
f 263/17/92 233/20/92 225/19/92 210/18/92
f 233/20/93 234/22/93 226/21/93 225/19/93
f 234/22/94 235/24/94 227/23/94 226/21/94
f 235/24/95 236/9/95 211/10/95 227/23/95
f 253/16/96 237/26/96 221/25/96 222/15/96
f 237/26/97 262/28/97 232/27/97 221/25/97
f 398/29/98 397/5/98 405/6/98 406/30/98
f 399/31/98 398/29/98 406/30/98 407/32/98
f 294/33/99 241/36/99 218/35/99 219/34/99
f 241/36/100 242/38/100 231/37/100 218/35/100
f 242/38/101 358/39/101 231/37/101
f 247/40/102 243/43/102 215/42/102 216/41/102
f 243/43/103 244/45/103 230/44/103 215/42/103
f 244/45/104 245/47/104 229/46/104 230/44/104
f 245/47/105 246/1/105 228/2/105 229/46/105
f 227/48/106 211/51/106 278/50/106 275/49/106
f 275/49/107 278/50/107 279/53/107 276/52/107
f 276/52/108 279/53/108 280/55/108 277/54/108
f 277/54/109 280/55/109 246/1/109 245/47/109
f 226/56/110 227/48/110 275/49/110 272/57/110
f 272/57/111 275/49/111 276/52/111 273/58/111
f 273/58/112 276/52/112 277/54/112 274/59/112
f 274/59/113 277/54/113 245/47/113 244/45/113
f 225/60/114 226/56/114 272/57/114 269/61/114
f 269/61/115 272/57/115 273/58/115 270/62/115
f 270/62/116 273/58/116 274/59/116 271/63/116
f 271/63/117 274/59/117 244/45/117 243/43/117
f 210/64/118 225/60/118 269/61/118 209/65/118
f 209/65/119 269/61/119 270/62/119 249/66/119
f 249/66/120 270/62/120 271/63/120 248/67/120
f 248/67/121 271/63/121 243/43/121 247/40/121
f 400/68/98 399/31/98 407/32/98 408/69/98
f 289/70/98 400/68/98 408/69/98 290/71/98
f 248/72/122 289/70/122 290/71/122 249/73/122
f 402/74/123 401/76/123 409/13/123 410/75/123
f 403/77/124 402/74/124 410/75/124 411/78/124
f 404/7/125 403/77/125 411/78/125 412/79/125
f 405/6/126 404/7/126 412/79/126 413/80/126
f 406/30/127 405/6/127 413/80/127 414/81/127
f 218/35/128 231/37/128 259/83/128 256/82/128
f 256/82/129 259/83/129 260/85/129 257/84/129
f 257/84/129 260/85/129 261/87/129 258/86/129
f 258/86/130 261/87/130 262/28/130 237/26/130
f 219/34/131 218/35/131 256/82/131 220/88/131
f 220/88/132 256/82/132 257/84/132 255/89/132
f 255/89/132 257/84/132 258/86/132 254/90/132
f 254/90/132 258/86/132 237/26/132 253/16/132
f 294/91/133 219/34/133 220/88/133 385/92/133
f 385/92/134 220/88/134 255/89/134 393/93/134
f 393/93/135 255/89/135 254/90/135 401/76/135
f 401/76/136 254/90/136 253/16/136 409/13/136
f 407/32/127 406/30/127 414/81/127 415/94/127
f 408/69/127 407/32/127 415/94/127 416/95/127
f 290/71/127 408/69/127 416/95/127 291/96/127
f 249/73/137 290/71/137 291/96/137 209/97/137
f 211/51/138 212/99/138 250/98/138 278/50/138
f 278/50/139 250/98/139 251/100/139 279/53/139
f 279/53/140 251/100/140 252/101/140 280/55/140
f 280/55/141 252/101/141 213/4/141 246/1/141
f 396/8/98 395/102/98 403/77/98 404/7/98
f 395/102/124 394/103/124 402/74/124 403/77/124
f 394/103/142 393/93/142 401/76/142 402/74/142
f 247/104/143 288/105/143 289/70/143 248/72/143
f 288/105/144 392/106/144 400/68/144 289/70/144
f 392/106/144 391/107/144 399/31/144 400/68/144
f 391/107/144 390/108/144 398/29/144 399/31/144
f 390/108/144 389/109/144 397/5/144 398/29/144
f 389/109/145 388/110/145 396/8/145 397/5/145
f 388/110/146 387/111/146 395/102/146 396/8/146
f 387/111/146 386/112/146 394/103/146 395/102/146
f 386/112/147 385/92/147 393/93/147 394/103/147
f 216/113/148 217/114/148 288/105/148 247/104/148
f 217/114/149 283/115/149 392/106/149 288/105/149
f 283/115/149 284/116/149 391/107/149 392/106/149
f 284/116/149 285/117/149 390/108/149 391/107/149
f 285/117/149 286/118/149 389/109/149 390/108/149
f 286/118/150 287/119/150 388/110/150 389/109/150
f 287/119/151 292/120/151 387/111/151 388/110/151
f 292/120/151 293/121/151 386/112/151 387/111/151
f 293/121/152 294/91/152 385/92/152 386/112/152
f 375/223/153 420/223/153 474/223/153 457/223/153
f 304/215/154 303/214/154 442/214/154 443/215/154
f 423/223/155 375/223/155 457/223/155 473/223/155
f 303/214/156 302/213/156 441/213/156 442/214/156
f 302/213/156 301/212/156 440/212/156 441/213/156
f 265/223/157 419/223/157 472/223/157 432/223/157
f 267/219/158 268/218/158 435/218/158 434/219/158
f 301/212/159 300/210/159 439/210/159 440/212/159
f 266/220/160 267/219/160 434/219/160 433/220/160
f 300/210/161 299/211/161 438/211/161 439/210/161
f 264/221/162 266/220/162 433/220/162 431/221/162
f 214/3/163 213/4/163 424/4/163 425/3/163
f 265/222/164 264/221/164 431/221/164 432/222/164
f 213/4/165 252/101/165 430/101/165 424/4/165
f 282/216/166 214/3/166 425/3/166 437/216/166
f 229/46/167 228/2/167 359/123/167 351/122/167
f 351/122/76 359/123/76 360/125/76 352/124/76
f 352/124/76 360/125/76 361/127/76 353/126/76
f 353/126/76 361/127/76 362/129/76 354/128/76
f 354/128/76 362/129/76 363/131/76 355/130/76
f 355/130/168 363/131/168 364/133/168 356/132/168
f 356/132/169 364/133/169 365/135/169 357/134/169
f 357/134/170 365/135/170 366/137/170 314/136/170
f 314/136/73 366/137/73 358/39/73
f 230/44/171 229/46/171 351/122/171 343/138/171
f 343/138/73 351/122/73 352/124/73 344/139/73
f 344/139/73 352/124/73 353/126/73 345/140/73
f 345/140/73 353/126/73 354/128/73 346/141/73
f 346/141/73 354/128/73 355/130/73 347/142/73
f 347/142/172 355/130/172 356/132/172 348/143/172
f 348/143/173 356/132/173 357/134/173 349/144/173
f 349/144/174 357/134/174 314/136/174 350/145/174
f 350/145/175 314/136/175 358/39/175 242/38/175
f 215/42/176 230/44/176 343/138/176 335/146/176
f 335/146/177 343/138/177 344/139/177 336/147/177
f 336/147/177 344/139/177 345/140/177 337/148/177
f 337/148/177 345/140/177 346/141/177 338/149/177
f 338/149/177 346/141/177 347/142/177 339/150/177
f 339/150/178 347/142/178 348/143/178 340/151/178
f 340/151/179 348/143/179 349/144/179 341/152/179
f 341/152/180 349/144/180 350/145/180 342/153/180
f 342/153/181 350/145/181 242/38/181 241/36/181
f 216/41/182 215/42/182 335/146/182 217/154/182
f 217/154/183 335/146/183 336/147/183 283/155/183
f 283/155/183 336/147/183 337/148/183 284/156/183
f 284/156/183 337/148/183 338/149/183 285/157/183
f 285/157/183 338/149/183 339/150/183 286/158/183
f 286/158/184 339/150/184 340/151/184 287/159/184
f 287/159/185 340/151/185 341/152/185 292/160/185
f 292/160/185 341/152/185 342/153/185 293/161/185
f 293/161/186 342/153/186 241/36/186 294/33/186
f 313/162/187 417/165/187 329/164/187 323/163/187
f 323/163/188 329/164/188 330/167/188 324/166/188
f 324/166/189 330/167/189 331/169/189 325/168/189
f 325/168/66 331/169/66 332/171/66 326/170/66
f 326/170/66 332/171/66 333/173/66 327/172/66
f 327/172/66 333/173/66 334/175/66 328/174/66
f 328/174/66 334/175/66 236/9/66 235/24/66
f 315/176/190 418/178/190 313/162/190 316/177/190
f 316/177/191 313/162/191 323/163/191 317/179/191
f 317/179/192 323/163/192 324/166/192 318/180/192
f 318/180/193 324/166/193 325/168/193 319/181/193
f 319/181/63 325/168/63 326/170/63 320/182/63
f 320/182/63 326/170/63 327/172/63 321/183/63
f 321/183/63 327/172/63 328/174/63 322/184/63
f 322/184/63 328/174/63 235/24/63 234/22/63
f 221/25/194 232/27/194 315/176/194 305/185/194
f 305/185/195 315/176/195 316/177/195 306/186/195
f 306/186/196 316/177/196 317/179/196 307/187/196
f 307/187/197 317/179/197 318/180/197 308/188/197
f 308/188/198 318/180/198 319/181/198 309/189/198
f 309/189/199 319/181/199 320/182/199 310/190/199
f 310/190/199 320/182/199 321/183/199 311/191/199
f 311/191/199 321/183/199 322/184/199 312/192/199
f 312/192/199 322/184/199 234/22/199 233/20/199
f 222/15/200 221/25/200 305/185/200 223/193/200
f 223/193/201 305/185/201 306/186/201 298/194/201
f 298/194/202 306/186/202 307/187/202 297/195/202
f 297/195/202 307/187/202 308/188/202 296/196/202
f 296/196/203 308/188/203 309/189/203 295/197/203
f 295/197/204 309/189/204 310/190/204 239/198/204
f 239/198/204 310/190/204 311/191/204 238/199/204
f 238/199/204 311/191/204 312/192/204 240/200/204
f 240/200/204 312/192/204 233/20/204 263/17/204
f 252/101/205 251/100/205 429/100/205 430/101/205
f 281/217/206 282/216/206 437/216/206 436/217/206
f 251/100/207 250/98/207 428/98/207 429/100/207
f 268/218/208 281/217/208 436/217/208 435/218/208
f 209/97/209 291/96/209 263/202/209 210/201/209
f 291/96/210 416/95/210 240/203/210 263/202/210
f 416/95/210 415/94/210 238/204/210 240/203/210
f 415/94/210 414/81/210 239/205/210 238/204/210
f 414/81/210 413/80/210 295/206/210 239/205/210
f 413/80/211 412/79/211 296/207/211 295/206/211
f 412/79/212 411/78/212 297/208/212 296/207/212
f 411/78/212 410/75/212 298/209/212 297/208/212
f 410/75/213 409/13/213 223/14/213 298/209/213
f 329/164/214 299/211/214 300/210/214 330/167/214
f 330/167/215 300/210/215 301/212/215 331/169/215
f 331/169/216 301/212/216 302/213/216 332/171/216
f 332/171/216 302/213/216 303/214/216 333/173/216
f 333/173/217 303/214/217 304/215/217 334/175/217
f 334/175/218 304/215/218 224/12/218 236/9/218
f 228/2/219 214/3/219 282/216/219 359/123/219
f 359/123/220 282/216/220 281/217/220 360/125/220
f 360/125/221 281/217/221 268/218/221 361/127/221
f 361/127/222 268/218/222 267/219/222 362/129/222
f 362/129/223 267/219/223 266/220/223 363/131/223
f 363/131/224 266/220/224 264/221/224 364/133/224
f 364/133/225 264/221/225 265/222/225 365/135/225
f 365/135/226 265/222/226 366/137/226
f 233/223/227 312/223/227 311/223/227 310/223/227 309/223/227 308/223/227 307/223/227 306/223/227 305/223/227 221/223/227 237/223/227 258/223/227 257/223/227 256/223/227 218/223/227 241/223/227 342/223/227 341/223/227 340/223/227 339/223/227 338/223/227 337/223/227 336/223/227 335/223/227 215/223/227 243/223/227 271/223/227 270/223/227 269/223/227 225/223/227
f 334/223/228 236/223/228 211/223/228 278/223/228 279/223/228 280/223/228 246/223/228 228/223/228 359/223/228 360/223/228 361/223/228 362/223/228 363/223/228 364/223/228 365/223/228 329/223/228 330/223/228 331/223/228 332/223/228 333/223/228
f 252/223/229 280/223/229 277/223/229 274/223/229 271/223/229 248/223/229 289/223/229 400/223/229 399/223/229 398/223/229 397/223/229 396/223/229 395/223/229 394/223/229 393/223/229 375/223/229 374/223/229 373/223/229 372/223/229 371/223/229 370/223/229 369/223/229
f 251/223/230 279/223/230 276/223/230 273/223/230 270/223/230 249/223/230 290/223/230 408/223/230 407/223/230 406/223/230 405/223/230 404/223/230 403/223/230 402/223/230 382/223/230 381/223/230 380/223/230 379/223/230 378/223/230 377/223/230 376/223/230
f 168/224/112 161/225/112 375/225/112 382/224/112
f 208/178/231 104/162/231 313/162/231 418/178/231
f 169/226/232 168/224/232 382/224/232 384/226/232
f 36/87/2 37/28/2 262/28/2 261/87/2
f 207/27/233 95/176/233 315/176/233 232/27/233
f 37/28/234 207/27/234 232/27/234 262/28/234
f 79/227/112 169/226/112 384/226/112 299/227/112
f 69/222/235 153/137/235 366/137/235 265/222/235
f 152/223/24 112/223/24 329/223/24 365/223/24
f 112/164/24 79/211/24 299/211/24 329/164/24
f 145/39/236 15/37/236 231/37/236 358/39/236
f 179/223/237 161/223/237 375/223/237 393/223/237
f 104/162/112 206/165/112 417/165/112 313/162/112
f 153/137/238 145/39/238 358/39/238 366/137/238
f 95/176/112 208/178/112 418/178/112 315/176/112
f 15/37/239 34/83/239 259/83/239 231/37/239
f 189/223/240 168/223/240 382/223/240 402/223/240
f 95/223/241 15/223/241 231/223/241 315/223/241
f 34/83/2 35/85/2 260/85/2 259/83/2
f 104/223/24 144/223/24 314/223/24 313/223/24
f 206/165/242 112/164/242 329/164/242 417/165/242
f 154/228/243 69/229/243 265/229/243 368/228/243
f 161/225/244 154/228/244 368/228/244 375/225/244
f 35/85/2 36/87/2 261/87/2 260/85/2
f 404/223/245 396/223/245 388/223/245 287/223/245 340/223/245 348/223/245 356/223/245 364/223/245 264/223/245 367/223/245 374/223/245 381/223/245 383/223/245 300/223/245 330/223/245 324/223/245 318/223/245 308/223/245 296/223/245 412/223/245
f 395/223/246 403/223/246 411/223/246 297/223/246 307/223/246 317/223/246 323/223/246 357/223/246 349/223/246 341/223/246 292/223/246 387/223/246
f 394/223/247 402/223/247 410/223/247 298/223/247 306/223/247 316/223/247 350/223/247 342/223/247 293/223/247 386/223/247
f 250/98/248 212/99/248 427/99/248 428/98/248
f 212/11/249 224/12/249 426/12/249 427/11/249
f 224/12/250 304/215/250 443/215/250 426/12/250
f 422/230/251 265/222/251 366/137/251 421/137/251
f 465/231/79 428/232/79 427/233/79 426/234/79
f 437/235/56 425/236/56 424/237/56 444/238/56
f 444/238/252 424/237/252 430/239/252 451/240/252
f 451/240/252 430/239/252 429/241/252 458/242/252
f 458/242/252 429/241/252 428/232/252 465/231/252
f 464/224/2 463/243/2 470/244/2 471/226/2
f 463/243/2 462/245/2 469/246/2 470/244/2
f 462/245/2 461/247/2 468/248/2 469/246/2
f 461/247/2 460/249/2 467/250/2 468/248/2
f 460/249/2 459/251/2 466/252/2 467/250/2
f 459/251/2 458/242/2 465/231/2 466/252/2
f 457/225/2 456/253/2 463/243/2 464/224/2
f 456/253/2 455/254/2 462/245/2 463/243/2
f 455/254/2 454/255/2 461/247/2 462/245/2
f 454/255/2 453/256/2 460/249/2 461/247/2
f 453/256/2 452/257/2 459/251/2 460/249/2
f 452/257/2 451/240/2 458/242/2 459/251/2
f 450/228/2 449/258/2 456/253/2 457/225/2
f 449/258/2 448/259/2 455/254/2 456/253/2
f 448/259/2 447/260/2 454/255/2 455/254/2
f 447/260/2 446/261/2 453/256/2 454/255/2
f 446/261/2 445/262/2 452/257/2 453/256/2
f 445/262/2 444/238/2 451/240/2 452/257/2
f 432/229/253 431/263/253 449/258/253 450/228/253
f 431/263/57 433/264/57 448/259/57 449/258/57
f 433/264/57 434/265/57 447/260/57 448/259/57
f 434/265/57 435/266/57 446/261/57 447/260/57
f 435/266/57 436/267/57 445/262/57 446/261/57
f 436/267/57 437/235/57 444/238/57 445/262/57
f 471/226/80 470/244/80 439/268/80 438/227/80
f 470/244/80 469/246/80 440/269/80 439/268/80
f 469/246/80 468/248/80 441/270/80 440/269/80
f 468/248/80 467/250/80 442/271/80 441/270/80
f 467/250/80 466/252/80 443/272/80 442/271/80
f 466/252/80 465/231/80 426/234/80 443/272/80
f 535/1/104 499/4/104 478/3/104 485/2/104
f 657/5/98 656/8/98 665/7/98 666/6/98
f 592/9/94 559/12/94 476/11/94 484/10/94
f 671/13/91 500/16/91 479/15/91 552/14/91
f 544/17/254 568/20/254 481/19/254 475/18/254
f 568/20/255 577/22/255 482/21/255 481/19/255
f 577/22/256 585/24/256 483/23/256 482/21/256
f 585/24/93 592/9/93 484/10/93 483/23/93
f 500/16/257 507/26/257 491/25/257 479/15/257
f 507/26/258 511/28/258 681/27/258 491/25/258
f 658/29/98 657/5/98 666/6/98 667/30/98
f 659/31/98 658/29/98 667/30/98 668/32/98
f 519/33/259 601/36/259 490/35/259 480/34/259
f 601/36/260 610/38/260 489/37/260 490/35/260
f 610/38/261 619/39/261 489/37/261
f 492/40/262 523/43/262 488/42/262 477/41/262
f 523/43/263 527/45/263 487/44/263 488/42/263
f 527/45/264 531/47/264 486/46/264 487/44/264
f 531/47/103 535/1/103 485/2/103 486/46/103
f 483/48/114 484/51/114 532/50/114 528/49/114
f 528/49/115 532/50/115 533/53/115 529/52/115
f 529/52/116 533/53/116 534/55/116 530/54/116
f 530/54/117 534/55/117 535/1/117 531/47/117
f 482/56/265 483/48/265 528/49/265 524/57/265
f 524/57/266 528/49/266 529/52/266 525/58/266
f 525/58/112 529/52/112 530/54/112 526/59/112
f 526/59/267 530/54/267 531/47/267 527/45/267
f 481/60/268 482/56/268 524/57/268 520/61/268
f 520/61/269 524/57/269 525/58/269 521/62/269
f 521/62/270 525/58/270 526/59/270 522/63/270
f 522/63/271 526/59/271 527/45/271 523/43/271
f 475/64/272 481/60/272 520/61/272 495/65/272
f 495/65/273 520/61/273 521/62/273 494/66/273
f 494/66/274 521/62/274 522/63/274 493/67/274
f 493/67/275 522/63/275 523/43/275 492/40/275
f 660/68/98 659/31/98 668/32/98 669/69/98
f 661/70/98 660/68/98 669/69/98 670/71/98
f 493/72/122 661/70/122 670/71/122 494/73/122
f 663/74/276 662/76/276 671/13/276 672/75/276
f 664/77/277 663/74/277 672/75/277 673/78/277
f 665/7/127 664/77/127 673/78/127 674/79/127
f 666/6/127 665/7/127 674/79/127 675/80/127
f 667/30/127 666/6/127 675/80/127 676/81/127
f 490/35/278 489/37/278 508/83/278 504/82/278
f 504/82/279 508/83/279 509/85/279 505/84/279
f 505/84/279 509/85/279 510/87/279 506/86/279
f 506/86/280 510/87/280 511/28/280 507/26/280
f 480/34/281 490/35/281 504/82/281 503/88/281
f 503/88/282 504/82/282 505/84/282 502/89/282
f 502/89/282 505/84/282 506/86/282 501/90/282
f 501/90/282 506/86/282 507/26/282 500/16/282
f 519/91/133 480/34/133 503/88/133 644/92/133
f 644/92/283 503/88/283 502/89/283 653/93/283
f 653/93/284 502/89/284 501/90/284 662/76/284
f 662/76/136 501/90/136 500/16/136 671/13/136
f 668/32/127 667/30/127 676/81/127 677/94/127
f 669/69/127 668/32/127 677/94/127 678/95/127
f 670/71/127 669/69/127 678/95/127 679/96/127
f 494/73/137 670/71/137 679/96/137 495/97/137
f 484/51/110 476/99/110 496/98/110 532/50/110
f 532/50/111 496/98/111 497/100/111 533/53/111
f 533/53/112 497/100/112 498/101/112 534/55/112
f 534/55/113 498/101/113 499/4/113 535/1/113
f 656/8/98 655/102/98 664/77/98 665/7/98
f 655/102/285 654/103/285 663/74/285 664/77/285
f 654/103/286 653/93/286 662/76/286 663/74/286
f 492/104/143 652/105/143 661/70/143 493/72/143
f 652/105/144 651/106/144 660/68/144 661/70/144
f 651/106/144 650/107/144 659/31/144 660/68/144
f 650/107/144 649/108/144 658/29/144 659/31/144
f 649/108/144 648/109/144 657/5/144 658/29/144
f 648/109/144 647/110/144 656/8/144 657/5/144
f 647/110/144 646/111/144 655/102/144 656/8/144
f 646/111/144 645/112/144 654/103/144 655/102/144
f 645/112/287 644/92/287 653/93/287 654/103/287
f 477/113/148 536/114/148 652/105/148 492/104/148
f 536/114/149 512/115/149 651/106/149 652/105/149
f 512/115/149 513/116/149 650/107/149 651/106/149
f 513/116/149 514/117/149 649/108/149 650/107/149
f 514/117/149 515/118/149 648/109/149 649/108/149
f 515/118/149 516/119/149 647/110/149 648/109/149
f 516/119/149 517/120/149 646/111/149 647/110/149
f 517/120/149 518/121/149 645/112/149 646/111/149
f 518/121/149 519/91/149 644/92/149 645/112/149
f 486/46/176 485/2/176 620/123/176 611/122/176
f 611/122/177 620/123/177 621/125/177 612/124/177
f 612/124/177 621/125/177 622/127/177 613/126/177
f 613/126/177 622/127/177 623/129/177 614/128/177
f 614/128/177 623/129/177 624/131/177 615/130/177
f 615/130/177 624/131/177 625/133/177 616/132/177
f 616/132/177 625/133/177 626/135/177 617/134/177
f 617/134/288 626/135/288 627/137/288 618/136/288
f 618/136/289 627/137/289 619/39/289
f 487/44/290 486/46/290 611/122/290 602/138/290
f 602/138/73 611/122/73 612/124/73 603/139/73
f 603/139/73 612/124/73 613/126/73 604/140/73
f 604/140/73 613/126/73 614/128/73 605/141/73
f 605/141/73 614/128/73 615/130/73 606/142/73
f 606/142/73 615/130/73 616/132/73 607/143/73
f 607/143/73 616/132/73 617/134/73 608/144/73
f 608/144/291 617/134/291 618/136/291 609/145/291
f 609/145/292 618/136/292 619/39/292 610/38/292
f 488/42/293 487/44/293 602/138/293 593/146/293
f 593/146/294 602/138/294 603/139/294 594/147/294
f 594/147/294 603/139/294 604/140/294 595/148/294
f 595/148/294 604/140/294 605/141/294 596/149/294
f 596/149/294 605/141/294 606/142/294 597/150/294
f 597/150/294 606/142/294 607/143/294 598/151/294
f 598/151/294 607/143/294 608/144/294 599/152/294
f 599/152/294 608/144/294 609/145/294 600/153/294
f 600/153/294 609/145/294 610/38/294 601/36/294
f 477/41/295 488/42/295 593/146/295 536/154/295
f 536/154/296 593/146/296 594/147/296 512/155/296
f 512/155/296 594/147/296 595/148/296 513/156/296
f 513/156/296 595/148/296 596/149/296 514/157/296
f 514/157/296 596/149/296 597/150/296 515/158/296
f 515/158/296 597/150/296 598/151/296 516/159/296
f 516/159/296 598/151/296 599/152/296 517/160/296
f 517/160/296 599/152/296 600/153/296 518/161/296
f 518/161/296 600/153/296 601/36/296 519/33/296
f 578/162/297 680/165/297 586/164/297 579/163/297
f 579/163/199 586/164/199 587/167/199 580/166/199
f 580/166/199 587/167/199 588/169/199 581/168/199
f 581/168/199 588/169/199 589/171/199 582/170/199
f 582/170/199 589/171/199 590/173/199 583/172/199
f 583/172/199 590/173/199 591/175/199 584/174/199
f 584/174/199 591/175/199 592/9/199 585/24/199
f 569/176/298 682/178/298 578/162/298 570/177/298
f 570/177/299 578/162/299 579/163/299 571/179/299
f 571/179/63 579/163/63 580/166/63 572/180/63
f 572/180/63 580/166/63 581/168/63 573/181/63
f 573/181/63 581/168/63 582/170/63 574/182/63
f 574/182/63 582/170/63 583/172/63 575/183/63
f 575/183/63 583/172/63 584/174/63 576/184/63
f 576/184/63 584/174/63 585/24/63 577/22/63
f 491/25/300 681/27/300 569/176/300 560/185/300
f 560/185/301 569/176/301 570/177/301 561/186/301
f 561/186/302 570/177/302 571/179/302 562/187/302
f 562/187/302 571/179/302 572/180/302 563/188/302
f 563/188/302 572/180/302 573/181/302 564/189/302
f 564/189/302 573/181/302 574/182/302 565/190/302
f 565/190/302 574/182/302 575/183/302 566/191/302
f 566/191/302 575/183/302 576/184/302 567/192/302
f 567/192/302 576/184/302 577/22/302 568/20/302
f 479/15/303 491/25/303 560/185/303 552/193/303
f 552/193/304 560/185/304 561/186/304 551/194/304
f 551/194/304 561/186/304 562/187/304 550/195/304
f 550/195/304 562/187/304 563/188/304 549/196/304
f 549/196/304 563/188/304 564/189/304 548/197/304
f 548/197/304 564/189/304 565/190/304 547/198/304
f 547/198/304 565/190/304 566/191/304 546/199/304
f 546/199/304 566/191/304 567/192/304 545/200/304
f 545/200/304 567/192/304 568/20/304 544/17/304
f 495/97/209 679/96/209 544/202/209 475/201/209
f 679/96/210 678/95/210 545/203/210 544/202/210
f 678/95/210 677/94/210 546/204/210 545/203/210
f 677/94/210 676/81/210 547/205/210 546/204/210
f 676/81/210 675/80/210 548/206/210 547/205/210
f 675/80/210 674/79/210 549/207/210 548/206/210
f 674/79/210 673/78/210 550/208/210 549/207/210
f 673/78/210 672/75/210 551/209/210 550/208/210
f 672/75/210 671/13/210 552/14/210 551/209/210
f 586/164/63 553/211/63 554/210/63 587/167/63
f 587/167/63 554/210/63 555/212/63 588/169/63
f 588/169/63 555/212/63 556/213/63 589/171/63
f 589/171/63 556/213/63 557/214/63 590/173/63
f 590/173/63 557/214/63 558/215/63 591/175/63
f 591/175/63 558/215/63 559/12/63 592/9/63
f 485/2/171 478/3/171 537/216/171 620/123/171
f 620/123/73 537/216/73 538/217/73 621/125/73
f 621/125/73 538/217/73 539/218/73 622/127/73
f 622/127/73 539/218/73 540/219/73 623/129/73
f 623/129/73 540/219/73 541/220/73 624/131/73
f 624/131/73 541/220/73 542/221/73 625/133/73
f 625/133/305 542/221/305 543/222/305 626/135/305
f 626/135/306 543/222/306 627/137/306
f 585/223/307 584/223/307 583/223/307 582/223/307 581/223/307 580/223/307 579/223/307 578/223/307 618/223/307 617/223/307 616/223/307 615/223/307 614/223/307 613/223/307 612/223/307 611/223/307 486/223/307 531/223/307 530/223/307 529/223/307 528/223/307 483/223/307
f 577/223/308 576/223/308 575/223/308 574/223/308 573/223/308 572/223/308 571/223/308 570/223/308 569/223/308 489/223/308 610/223/308 609/223/308 608/223/308 607/223/308 606/223/308 605/223/308 604/223/308 603/223/308 602/223/308 487/223/308 527/223/308 526/223/308 525/223/308 524/223/308 482/223/308
f 498/223/309 534/223/309 530/223/309 526/223/309 522/223/309 493/223/309 661/223/309 660/223/309 659/223/309 658/223/309 657/223/309 656/223/309 655/223/309 654/223/309 653/223/309 635/223/309 634/223/309 633/223/309 632/223/309 631/223/309 630/223/309 629/223/309
f 497/223/310 533/223/310 529/223/310 525/223/310 521/223/310 494/223/310 670/223/310 669/223/310 668/223/310 667/223/310 666/223/310 665/223/310 664/223/310 663/223/310 642/223/310 641/223/310 640/223/310 639/223/310 638/223/310 637/223/310 636/223/310
f 720/1/311 702/2/311 688/3/311 687/4/311
f 871/5/312 879/6/312 878/7/312 870/8/312
f 710/9/313 685/10/313 686/11/313 698/12/313
f 883/13/4 697/14/4 696/15/4 727/16/4
f 737/17/314 684/18/314 699/19/314 707/20/314
f 707/20/8 699/19/8 700/21/8 708/22/8
f 708/22/3 700/21/3 701/23/3 709/24/3
f 709/24/315 701/23/315 685/10/315 710/9/315
f 727/16/316 696/15/316 695/25/316 711/26/316
f 711/26/317 695/25/317 706/27/317 736/28/317
f 872/29/2 880/30/2 879/6/2 871/5/2
f 873/31/2 881/32/2 880/30/2 872/29/2
f 768/33/318 693/34/318 692/35/318 715/36/318
f 715/36/319 692/35/319 705/37/319 716/38/319
f 716/38/320 705/37/320 832/39/320
f 721/40/321 690/41/321 689/42/321 717/43/321
f 717/43/17 689/42/17 704/44/17 718/45/17
f 718/45/1 704/44/1 703/46/1 719/47/1
f 719/47/322 703/46/322 702/2/322 720/1/322
f 701/48/323 749/49/323 752/50/323 685/51/323
f 749/49/324 750/52/324 753/53/324 752/50/324
f 750/52/325 751/54/325 754/55/325 753/53/325
f 751/54/326 719/47/326 720/1/326 754/55/326
f 700/56/48 746/57/48 749/49/48 701/48/48
f 746/57/49 747/58/49 750/52/49 749/49/49
f 747/58/24 748/59/24 751/54/24 750/52/24
f 748/59/50 718/45/50 719/47/50 751/54/50
f 699/60/18 743/61/18 746/57/18 700/56/18
f 743/61/19 744/62/19 747/58/19 746/57/19
f 744/62/20 745/63/20 748/59/20 747/58/20
f 745/63/21 717/43/21 718/45/21 748/59/21
f 684/64/327 683/65/327 743/61/327 699/60/327
f 683/65/328 723/66/328 744/62/328 743/61/328
f 723/66/329 722/67/329 745/63/329 744/62/329
f 722/67/330 721/40/330 717/43/330 745/63/330
f 874/68/2 882/69/2 881/32/2 873/31/2
f 763/70/2 764/71/2 882/69/2 874/68/2
f 722/72/34 723/73/34 764/71/34 763/70/34
f 876/74/331 884/75/331 883/13/331 875/76/331
f 877/77/332 885/78/332 884/75/332 876/74/332
f 878/7/333 886/79/333 885/78/333 877/77/333
f 879/6/334 887/80/334 886/79/334 878/7/334
f 880/30/37 888/81/37 887/80/37 879/6/37
f 692/35/335 730/82/335 733/83/335 705/37/335
f 730/82/336 731/84/336 734/85/336 733/83/336
f 731/84/336 732/86/336 735/87/336 734/85/336
f 732/86/337 711/26/337 736/28/337 735/87/337
f 693/34/338 694/88/338 730/82/338 692/35/338
f 694/88/339 729/89/339 731/84/339 730/82/339
f 729/89/339 728/90/339 732/86/339 731/84/339
f 728/90/339 727/16/339 711/26/339 732/86/339
f 768/91/43 859/92/43 694/88/43 693/34/43
f 859/92/46 867/93/46 729/89/46 694/88/46
f 867/93/340 875/76/340 728/90/340 729/89/340
f 875/76/46 883/13/46 727/16/46 728/90/46
f 881/32/37 889/94/37 888/81/37 880/30/37
f 882/69/37 890/95/37 889/94/37 881/32/37
f 764/71/37 765/96/37 890/95/37 882/69/37
f 723/73/47 683/97/47 765/96/47 764/71/47
f 685/51/341 752/50/341 724/98/341 686/99/341
f 752/50/342 753/53/342 725/100/342 724/98/342
f 753/53/343 754/55/343 726/101/343 725/100/343
f 754/55/344 720/1/344 687/4/344 726/101/344
f 870/8/2 878/7/2 877/77/2 869/102/2
f 869/102/332 877/77/332 876/74/332 868/103/332
f 868/103/345 876/74/345 875/76/345 867/93/345
f 721/104/53 722/72/53 763/70/53 762/105/53
f 762/105/54 763/70/54 874/68/54 866/106/54
f 866/106/54 874/68/54 873/31/54 865/107/54
f 865/107/54 873/31/54 872/29/54 864/108/54
f 864/108/54 872/29/54 871/5/54 863/109/54
f 863/109/346 871/5/346 870/8/346 862/110/346
f 862/110/347 870/8/347 869/102/347 861/111/347
f 861/111/347 869/102/347 868/103/347 860/112/347
f 860/112/348 868/103/348 867/93/348 859/92/348
f 690/113/56 721/104/56 762/105/56 691/114/56
f 691/114/57 762/105/57 866/106/57 757/115/57
f 757/115/57 866/106/57 865/107/57 758/116/57
f 758/116/57 865/107/57 864/108/57 759/117/57
f 759/117/57 864/108/57 863/109/57 760/118/57
f 760/118/349 863/109/349 862/110/349 761/119/349
f 761/119/350 862/110/350 861/111/350 766/120/350
f 766/120/350 861/111/350 860/112/350 767/121/350
f 767/121/351 860/112/351 859/92/351 768/91/351
f 849/223/352 931/223/352 948/223/352 894/223/352
f 778/215/353 917/215/353 916/214/353 777/214/353
f 897/223/354 947/223/354 931/223/354 849/223/354
f 777/214/355 916/214/355 915/213/355 776/213/355
f 776/213/355 915/213/355 914/212/355 775/212/355
f 739/223/356 906/223/356 946/223/356 893/223/356
f 741/219/357 908/219/357 909/218/357 742/218/357
f 775/212/358 914/212/358 913/210/358 774/210/358
f 740/220/359 907/220/359 908/219/359 741/219/359
f 774/210/360 913/210/360 912/211/360 773/211/360
f 738/221/361 905/221/361 907/220/361 740/220/361
f 688/3/362 899/3/362 898/4/362 687/4/362
f 739/222/363 906/222/363 905/221/363 738/221/363
f 687/4/364 898/4/364 904/101/364 726/101/364
f 756/216/365 911/216/365 899/3/365 688/3/365
f 703/46/366 825/122/366 833/123/366 702/2/366
f 825/122/302 826/124/302 834/125/302 833/123/302
f 826/124/302 827/126/302 835/127/302 834/125/302
f 827/126/302 828/128/302 836/129/302 835/127/302
f 828/128/302 829/130/302 837/131/302 836/129/302
f 829/130/367 830/132/367 838/133/367 837/131/367
f 830/132/368 831/134/368 839/135/368 838/133/368
f 831/134/369 788/136/369 840/137/369 839/135/369
f 788/136/63 832/39/63 840/137/63
f 704/44/81 817/138/81 825/122/81 703/46/81
f 817/138/63 818/139/63 826/124/63 825/122/63
f 818/139/63 819/140/63 827/126/63 826/124/63
f 819/140/63 820/141/63 828/128/63 827/126/63
f 820/141/63 821/142/63 829/130/63 828/128/63
f 821/142/370 822/143/370 830/132/370 829/130/370
f 822/143/371 823/144/371 831/134/371 830/132/371
f 823/144/372 824/145/372 788/136/372 831/134/372
f 824/145/373 716/38/373 832/39/373 788/136/373
f 689/42/58 809/146/58 817/138/58 704/44/58
f 809/146/59 810/147/59 818/139/59 817/138/59
f 810/147/59 811/148/59 819/140/59 818/139/59
f 811/148/59 812/149/59 820/141/59 819/140/59
f 812/149/59 813/150/59 821/142/59 820/141/59
f 813/150/374 814/151/374 822/143/374 821/142/374
f 814/151/375 815/152/375 823/144/375 822/143/375
f 815/152/376 816/153/376 824/145/376 823/144/376
f 816/153/377 715/36/377 716/38/377 824/145/377
f 690/41/378 691/154/378 809/146/378 689/42/378
f 691/154/379 757/155/379 810/147/379 809/146/379
f 757/155/379 758/156/379 811/148/379 810/147/379
f 758/156/379 759/157/379 812/149/379 811/148/379
f 759/157/379 760/158/379 813/150/379 812/149/379
f 760/158/380 761/159/380 814/151/380 813/150/380
f 761/159/381 766/160/381 815/152/381 814/151/381
f 766/160/381 767/161/381 816/153/381 815/152/381
f 767/161/382 768/33/382 715/36/382 816/153/382
f 787/162/383 797/163/383 803/164/383 891/165/383
f 797/163/384 798/166/384 804/167/384 803/164/384
f 798/166/385 799/168/385 805/169/385 804/167/385
f 799/168/294 800/170/294 806/171/294 805/169/294
f 800/170/294 801/172/294 807/173/294 806/171/294
f 801/172/294 802/174/294 808/175/294 807/173/294
f 802/174/294 709/24/294 710/9/294 808/175/294
f 789/176/386 790/177/386 787/162/386 892/178/386
f 790/177/387 791/179/387 797/163/387 787/162/387
f 791/179/388 792/180/388 798/166/388 797/163/388
f 792/180/389 793/181/389 799/168/389 798/166/389
f 793/181/73 794/182/73 800/170/73 799/168/73
f 794/182/73 795/183/73 801/172/73 800/170/73
f 795/183/73 796/184/73 802/174/73 801/172/73
f 796/184/73 708/22/73 709/24/73 802/174/73
f 695/25/390 779/185/390 789/176/390 706/27/390
f 779/185/391 780/186/391 790/177/391 789/176/391
f 780/186/392 781/187/392 791/179/392 790/177/392
f 781/187/393 782/188/393 792/180/393 791/179/393
f 782/188/394 783/189/394 793/181/394 792/180/394
f 783/189/70 784/190/70 794/182/70 793/181/70
f 784/190/70 785/191/70 795/183/70 794/182/70
f 785/191/70 786/192/70 796/184/70 795/183/70
f 786/192/70 707/20/70 708/22/70 796/184/70
f 696/15/395 697/193/395 779/185/395 695/25/395
f 697/193/396 772/194/396 780/186/396 779/185/396
f 772/194/397 771/195/397 781/187/397 780/186/397
f 771/195/397 770/196/397 782/188/397 781/187/397
f 770/196/398 769/197/398 783/189/398 782/188/398
f 769/197/399 713/198/399 784/190/399 783/189/399
f 713/198/399 712/199/399 785/191/399 784/190/399
f 712/199/399 714/200/399 786/192/399 785/191/399
f 714/200/399 737/17/399 707/20/399 786/192/399
f 726/101/400 904/101/400 903/100/400 725/100/400
f 755/217/401 910/217/401 911/216/401 756/216/401
f 725/100/402 903/100/402 902/98/402 724/98/402
f 742/218/403 909/218/403 910/217/403 755/217/403
f 683/97/79 684/201/79 737/202/79 765/96/79
f 765/96/80 737/202/80 714/203/80 890/95/80
f 890/95/80 714/203/80 712/204/80 889/94/80
f 889/94/80 712/204/80 713/205/80 888/81/80
f 888/81/80 713/205/80 769/206/80 887/80/80
f 887/80/404 769/206/404 770/207/404 886/79/404
f 886/79/405 770/207/405 771/208/405 885/78/405
f 885/78/405 771/208/405 772/209/405 884/75/405
f 884/75/406 772/209/406 697/14/406 883/13/406
f 803/164/407 804/167/407 774/210/407 773/211/407
f 804/167/408 805/169/408 775/212/408 774/210/408
f 805/169/409 806/171/409 776/213/409 775/212/409
f 806/171/409 807/173/409 777/214/409 776/213/409
f 807/173/410 808/175/410 778/215/410 777/214/410
f 808/175/411 710/9/411 698/12/411 778/215/411
f 702/2/412 833/123/412 756/216/412 688/3/412
f 833/123/413 834/125/413 755/217/413 756/216/413
f 834/125/414 835/127/414 742/218/414 755/217/414
f 835/127/415 836/129/415 741/219/415 742/218/415
f 836/129/416 837/131/416 740/220/416 741/219/416
f 837/131/417 838/133/417 738/221/417 740/220/417
f 838/133/418 839/135/418 739/222/418 738/221/418
f 839/135/419 840/137/419 739/222/419
f 707/223/420 699/223/420 743/223/420 744/223/420 745/223/420 717/223/420 689/223/420 809/223/420 810/223/420 811/223/420 812/223/420 813/223/420 814/223/420 815/223/420 816/223/420 715/223/420 692/223/420 730/223/420 731/223/420 732/223/420 711/223/420 695/223/420 779/223/420 780/223/420 781/223/420 782/223/420 783/223/420 784/223/420 785/223/420 786/223/420
f 808/223/421 807/223/421 806/223/421 805/223/421 804/223/421 803/223/421 839/223/421 838/223/421 837/223/421 836/223/421 835/223/421 834/223/421 833/223/421 702/223/421 720/223/421 754/223/421 753/223/421 752/223/421 685/223/421 710/223/421
f 726/223/422 843/223/422 844/223/422 845/223/422 846/223/422 847/223/422 848/223/422 849/223/422 867/223/422 868/223/422 869/223/422 870/223/422 871/223/422 872/223/422 873/223/422 874/223/422 763/223/422 722/223/422 745/223/422 748/223/422 751/223/422 754/223/422
f 725/223/423 850/223/423 851/223/423 852/223/423 853/223/423 854/223/423 855/223/423 856/223/423 876/223/423 877/223/423 878/223/423 879/223/423 880/223/423 881/223/423 882/223/423 764/223/423 723/223/423 744/223/423 747/223/423 750/223/423 753/223/423
f 642/224/424 856/224/424 849/225/424 635/225/424
f 682/178/425 892/178/425 787/162/425 578/162/425
f 643/226/426 858/226/426 856/224/426 642/224/426
f 510/87/2 735/87/2 736/28/2 511/28/2
f 681/27/427 706/27/427 789/176/427 569/176/427
f 511/28/428 736/28/428 706/27/428 681/27/428
f 553/227/112 773/227/112 858/226/112 643/226/112
f 543/222/429 739/222/429 840/137/429 627/137/429
f 626/223/24 839/223/24 803/223/24 586/223/24
f 586/164/24 803/164/24 773/211/24 553/211/24
f 619/39/430 832/39/430 705/37/430 489/37/430
f 653/223/431 867/223/431 849/223/431 635/223/431
f 578/162/112 787/162/112 891/165/112 680/165/112
f 627/137/238 840/137/238 832/39/238 619/39/238
f 569/176/112 789/176/112 892/178/112 682/178/112
f 489/37/432 705/37/432 733/83/432 508/83/432
f 663/223/433 876/223/433 856/223/433 642/223/433
f 569/223/241 789/223/241 705/223/241 489/223/241
f 508/83/2 733/83/2 734/85/2 509/85/2
f 578/223/24 787/223/24 788/223/24 618/223/24
f 680/165/434 891/165/434 803/164/434 586/164/434
f 628/228/435 842/228/435 739/229/435 543/229/435
f 635/225/436 849/225/436 842/228/436 628/228/436
f 509/85/2 734/85/2 735/87/2 510/87/2
f 878/223/437 886/223/437 770/223/437 782/223/437 792/223/437 798/223/437 804/223/437 774/223/437 857/223/437 855/223/437 848/223/437 841/223/437 738/223/437 838/223/437 830/223/437 822/223/437 814/223/437 761/223/437 862/223/437 870/223/437
f 869/223/438 861/223/438 766/223/438 815/223/438 823/223/438 831/223/438 797/223/438 791/223/438 781/223/438 771/223/438 885/223/438 877/223/438
f 868/223/439 860/223/439 767/223/439 816/223/439 824/223/439 790/223/439 780/223/439 772/223/439 884/223/439 876/223/439
f 724/98/440 902/98/440 901/99/440 686/99/440
f 686/11/441 901/11/441 900/12/441 698/12/441
f 698/12/442 900/12/442 917/215/442 778/215/442
f 896/230/443 895/137/443 840/137/443 739/222/443
f 939/231/209 900/234/209 901/233/209 902/232/209
f 911/235/148 918/238/148 898/237/148 899/236/148
f 918/238/444 925/240/444 904/239/444 898/237/444
f 925/240/444 932/242/444 903/241/444 904/239/444
f 932/242/444 939/231/444 902/232/444 903/241/444
f 938/224/98 945/226/98 944/244/98 937/243/98
f 937/243/98 944/244/98 943/246/98 936/245/98
f 936/245/98 943/246/98 942/248/98 935/247/98
f 935/247/98 942/248/98 941/250/98 934/249/98
f 934/249/98 941/250/98 940/252/98 933/251/98
f 933/251/98 940/252/98 939/231/98 932/242/98
f 931/225/98 938/224/98 937/243/98 930/253/98
f 930/253/98 937/243/98 936/245/98 929/254/98
f 929/254/98 936/245/98 935/247/98 928/255/98
f 928/255/98 935/247/98 934/249/98 927/256/98
f 927/256/98 934/249/98 933/251/98 926/257/98
f 926/257/98 933/251/98 932/242/98 925/240/98
f 924/228/98 931/225/98 930/253/98 923/258/98
f 923/258/98 930/253/98 929/254/98 922/259/98
f 922/259/98 929/254/98 928/255/98 921/260/98
f 921/260/98 928/255/98 927/256/98 920/261/98
f 920/261/98 927/256/98 926/257/98 919/262/98
f 919/262/98 926/257/98 925/240/98 918/238/98
f 906/229/445 924/228/445 923/258/445 905/263/445
f 905/263/149 923/258/149 922/259/149 907/264/149
f 907/264/149 922/259/149 921/260/149 908/265/149
f 908/265/149 921/260/149 920/261/149 909/266/149
f 909/266/149 920/261/149 919/262/149 910/267/149
f 910/267/149 919/262/149 918/238/149 911/235/149
f 945/226/210 912/227/210 913/268/210 944/244/210
f 944/244/210 913/268/210 914/269/210 943/246/210
f 943/246/210 914/269/210 915/270/210 942/248/210
f 942/248/210 915/270/210 916/271/210 941/250/210
f 941/250/210 916/271/210 917/272/210 940/252/210
f 940/252/210 917/272/210 900/234/210 939/231/210
f 25/4/2 4/3/2 478/3/2 499/4/2
f 85/12/2 2/11/2 476/11/2 559/12/2
f 2/99/2 22/98/2 496/98/2 476/99/2
f 22/98/2 23/100/2 497/100/2 496/98/2
f 23/100/2 24/101/2 498/101/2 497/100/2
f 24/101/2 25/4/2 499/4/2 498/101/2
f 68/221/446 69/222/446 543/222/446 542/221/446
f 67/220/2 68/221/2 542/221/2 541/220/2
f 66/219/2 67/220/2 541/220/2 540/219/2
f 65/218/2 66/219/2 540/219/2 539/218/2
f 64/217/2 65/218/2 539/218/2 538/217/2
f 63/216/2 64/217/2 538/217/2 537/216/2
f 4/3/2 63/216/2 537/216/2 478/3/2
f 79/211/447 80/210/447 554/210/447 553/211/447
f 80/210/2 81/212/2 555/212/2 554/210/2
f 81/212/2 82/213/2 556/213/2 555/212/2
f 82/213/2 83/214/2 557/214/2 556/213/2
f 83/214/2 84/215/2 558/215/2 557/214/2
f 84/215/2 85/12/2 559/12/2 558/215/2
f 155/223/2 24/223/2 498/223/2 629/223/2
f 156/223/2 155/223/2 629/223/2 630/223/2
f 157/223/2 156/223/2 630/223/2 631/223/2
f 158/223/2 157/223/2 631/223/2 632/223/2
f 159/223/2 158/223/2 632/223/2 633/223/2
f 160/223/2 159/223/2 633/223/2 634/223/2
f 161/223/447 160/223/447 634/223/447 635/223/447
f 162/223/2 23/223/2 497/223/2 636/223/2
f 163/223/2 162/223/2 636/223/2 637/223/2
f 164/223/2 163/223/2 637/223/2 638/223/2
f 165/223/2 164/223/2 638/223/2 639/223/2
f 166/223/2 165/223/2 639/223/2 640/223/2
f 167/223/2 166/223/2 640/223/2 641/223/2
f 168/223/448 167/223/448 641/223/448 642/223/448
f 168/224/112 169/226/112 643/226/112 642/224/112
f 161/225/112 168/224/112 642/224/112 635/225/112
f 154/228/112 161/225/112 635/225/112 628/228/112
f 69/229/112 154/228/112 628/228/112 543/229/112
f 169/226/112 79/227/112 553/227/112 643/226/112
f 112/223/24 152/223/24 626/223/24 586/223/24
f 313/223/24 314/223/24 788/223/24 787/223/24
f 252/223/2 369/223/2 843/223/2 726/223/2
f 369/223/2 370/223/2 844/223/2 843/223/2
f 370/223/2 371/223/2 845/223/2 844/223/2
f 371/223/2 372/223/2 846/223/2 845/223/2
f 372/223/2 373/223/2 847/223/2 846/223/2
f 373/223/2 374/223/2 848/223/2 847/223/2
f 374/223/449 375/223/449 849/223/449 848/223/449
f 251/223/2 376/223/2 850/223/2 725/223/2
f 376/223/2 377/223/2 851/223/2 850/223/2
f 377/223/2 378/223/2 852/223/2 851/223/2
f 378/223/2 379/223/2 853/223/2 852/223/2
f 379/223/2 380/223/2 854/223/2 853/223/2
f 380/223/2 381/223/2 855/223/2 854/223/2
f 381/223/450 382/223/450 856/223/450 855/223/450
f 384/226/24 382/224/24 856/224/24 858/226/24
f 383/223/2 381/223/2 855/223/2 857/223/2
f 438/211/24 299/211/24 773/211/24 912/211/24
f 382/224/451 375/225/451 849/225/451 856/224/451
f 381/223/2 374/223/2 848/223/2 855/223/2
f 423/223/24 473/223/24 947/223/24 897/223/24
f 375/225/452 368/228/452 842/228/452 849/225/452
f 374/223/2 367/223/2 841/223/2 848/223/2
f 474/223/24 420/223/24 894/223/24 948/223/24
f 368/228/24 265/229/24 739/229/24 842/228/24
f 367/223/2 264/223/2 738/223/2 841/223/2
f 472/223/24 419/223/24 893/223/24 946/223/24
f 299/227/24 384/226/24 858/226/24 773/227/24
f 300/223/2 383/223/2 857/223/2 774/223/2
f 315/223/453 231/223/453 705/223/453 789/223/453
f 152/223/454 365/223/454 839/223/454 626/223/454
f 179/223/455 393/223/455 867/223/455 653/223/455
f 189/223/456 402/223/456 876/223/456 663/223/456
f 314/223/457 144/223/457 618/223/457 788/223/457
f 357/223/2 323/223/2 797/223/2 831/223/2
f 350/223/2 316/223/2 790/223/2 824/223/2
f 419/223/458 265/223/458 739/223/458 893/223/458
f 375/223/459 423/223/459 897/223/459 849/223/459
f 420/223/460 375/223/460 849/223/460 894/223/460
f 422/230/461 421/137/461 895/137/461 896/230/461
f 421/137/462 366/137/462 840/137/462 895/137/462
f 265/222/463 422/230/463 896/230/463 739/222/463
f 464/224/24 471/226/24 945/226/24 938/224/24
f 457/225/24 464/224/24 938/224/24 931/225/24
f 450/228/24 457/225/24 931/225/24 924/228/24
f 432/229/24 450/228/24 924/228/24 906/229/24
f 471/226/24 438/227/24 912/227/24 945/226/24
f 432/223/464 472/223/464 946/223/464 906/223/464
f 473/223/465 457/223/465 931/223/465 947/223/465
f 457/223/464 474/223/464 948/223/464 931/223/464
